<svg xmlns="http://www.w3.org/2000/svg" width="46.933" height="50" viewBox="0 0 46.933 50"><defs><style>.a{fill:#0899ba;}</style></defs><path class="a" d="M61.587,31.444a7.808,7.808,0,0,0-10.671-2.859l-3.967,2.29v-8.48a4.918,4.918,0,0,0-.976-2.929l-4.883-6.51V10.183a2.934,2.934,0,0,0,1.953-2.762V2.929A2.933,2.933,0,0,0,40.114,0H22.537a2.933,2.933,0,0,0-2.93,2.929V7.421a2.934,2.934,0,0,0,1.953,2.762v2.772l-4.883,6.51a4.917,4.917,0,0,0-.976,2.929V41.306a4.888,4.888,0,0,0,4.883,4.883H36.277a7.8,7.8,0,0,0,10.612,2.762l11.839-6.836A7.818,7.818,0,0,0,61.587,31.444ZM21.56,2.929a.978.978,0,0,1,.976-.977H40.114a.978.978,0,0,1,.977.977V7.421a.978.978,0,0,1-.977.976H22.537a.978.978,0,0,1-.976-.976V2.929ZM18.24,20.637l5.078-6.77a.976.976,0,0,0,.2-.586V10.351H39.137V12.3H22.71a.977.977,0,0,0,0,1.953H39.626l4.784,6.379a2.955,2.955,0,0,1,.566,1.433h-27.3A2.953,2.953,0,0,1,18.24,20.637Zm2.344,23.6a2.933,2.933,0,0,1-2.929-2.929V40.32H35.4a7.825,7.825,0,0,0,.047,3.916H20.584Zm15.578-5.859H17.654V24.022H45V32l-5.92,3.418A7.754,7.754,0,0,0,36.162,38.377Zm9.751,8.882a5.859,5.859,0,1,1-5.859-10.148l5.3-3.06L51.213,44.2Zm11.839-6.836-4.847,2.8L47.045,33.074l4.847-2.8a5.859,5.859,0,1,1,5.859,10.148Z" transform="translate(-15.701)"/></svg>