<svg xmlns="http://www.w3.org/2000/svg" width="28" height="28" viewBox="0 0 28 28"><defs><style>.a{fill:#0899ba;}.b{fill:#fff;}</style></defs><g transform="translate(-696 -545)"><g transform="translate(696 545)"><circle class="a" cx="14" cy="14" r="14"/></g><path class="b" d="M16.345,5.928a.326.326,0,0,0-.326-.326H11.788a.326.326,0,0,1-.326-.326V1.046A.326.326,0,0,0,11.137.72H5.928a.326.326,0,0,0-.326.326V5.277a.326.326,0,0,1-.326.326H1.046a.326.326,0,0,0-.326.326v5.208a.326.326,0,0,0,.326.326H5.277a.326.326,0,0,1,.326.326v4.232a.326.326,0,0,0,.326.326h5.208a.326.326,0,0,0,.326-.326V11.788a.326.326,0,0,1,.326-.326h4.232a.326.326,0,0,0,.326-.326Z" transform="translate(701.28 550.28)"/></g></svg>