<svg xmlns="http://www.w3.org/2000/svg" width="9.398" height="8.223" viewBox="0 0 9.398 8.223"><defs><style>.a{fill:#FFFFFF;}</style></defs><g transform="translate(0 1.174)"><path class="a" d="M9.293,101.049,7.53,99.581a.294.294,0,0,0-.482.226v.881H6.557a1.169,1.169,0,0,1-1-.552l-1.9-3.043a2.335,2.335,0,0,0-1.992-1.1H0v1.175H1.666a1.169,1.169,0,0,1,1,.552l1.9,3.043a2.337,2.337,0,0,0,1.992,1.1h.492v.881a.294.294,0,0,0,.169.266.3.3,0,0,0,.125.028.29.29,0,0,0,.188-.068L9.293,101.5a.293.293,0,0,0,0-.451Z" transform="translate(0 -95.988)"/></g><g transform="translate(4.458 0)"><path class="a" d="M247.714,33.548l-1.762-1.468a.294.294,0,0,0-.482.226v.881h-.492a2.335,2.335,0,0,0-1.992,1.1l-.106.17.693,1.108.41-.656a1.169,1.169,0,0,1,1-.552h.492v.881a.293.293,0,0,0,.169.266.3.3,0,0,0,.125.028.294.294,0,0,0,.188-.068L247.714,34a.293.293,0,0,0,0-.451Z" transform="translate(-242.88 -32.012)"/></g><g transform="translate(0 4.665)"><g transform="translate(0)"><path class="a" d="M3.073,286.164l-.409.656a1.17,1.17,0,0,1-1,.552H0v1.175H1.666a2.337,2.337,0,0,0,1.992-1.1l.106-.17Z" transform="translate(0 -286.164)"/></g></g></svg>
