<svg xmlns="http://www.w3.org/2000/svg" width="10.996" height="17.063" viewBox="0 0 10.996 17.063">
  <g id="icon-app" transform="translate(-534 -178.938)">
    <g id="Grupo_3006" data-name="Grupo 3006" transform="translate(165 -241.934)">
      <path id="Caminho_3399" data-name="Caminho 3399" d="M9.071,3h7.854A1.643,1.643,0,0,1,18.5,4.706v13.65a1.643,1.643,0,0,1-1.571,1.706H9.071A1.643,1.643,0,0,1,7.5,18.356V4.706A1.643,1.643,0,0,1,9.071,3Z" transform="translate(361.5 417.871)" fill="#9e9e9e"/>
      <path id="Caminho_3400" data-name="Caminho 3400" d="M8.744,3h6.219a1.234,1.234,0,0,1,1.244,1.224v9.791a1.234,1.234,0,0,1-1.244,1.224H8.744A1.234,1.234,0,0,1,7.5,14.014V4.224A1.234,1.234,0,0,1,8.744,3Z" transform="translate(362.634 419.634)" fill="#fff"/>
      <circle id="Elipse_241" data-name="Elipse 241" cx="0.737" cy="0.737" r="0.737" transform="translate(373.534 435.666)" fill="#fff"/>
    </g>
  </g>
</svg>
