<svg xmlns="http://www.w3.org/2000/svg" width="13.474" height="15.398" viewBox="0 0 13.474 15.398">
  <g id="icon-pacient-details" transform="translate(-367 -499.856)">
    <path id="Icon_awesome-user-injured" data-name="Icon awesome-user-injured" d="M8.342.36A3.821,3.821,0,0,0,3.173,2.406H5.614L8.342.36ZM10.3,2.406A3.841,3.841,0,0,0,9.2.917L7.218,2.406H10.3ZM6.737,7.7a3.85,3.85,0,0,0,3.85-3.85,3.846,3.846,0,0,0-.048-.481h-7.6a3.79,3.79,0,0,0-.048.481A3.85,3.85,0,0,0,6.737,7.7ZM2.406,9.014V15.4H6.263L3.3,8.736a4,4,0,0,0-.9.277ZM0,13.955A1.444,1.444,0,0,0,1.444,15.4V9.631A4.015,4.015,0,0,0,0,12.7Zm7.7-1.444H6.034L7.317,15.4H7.7a1.444,1.444,0,0,0,0-2.887Zm1.732-3.85h-.5a5.234,5.234,0,0,1-4.384,0H4.323l1.283,2.887H7.7a2.409,2.409,0,0,1,2.406,2.406A2.383,2.383,0,0,1,9.612,15.4H12.03a1.444,1.444,0,0,0,1.444-1.444V12.7A4.042,4.042,0,0,0,9.432,8.662Z" transform="translate(367 499.856)" fill="#0899ba"/>
  </g>
</svg>
