<svg xmlns="http://www.w3.org/2000/svg" width="53.536" height="53.536" viewBox="0 0 53.536 53.536"><defs><style>.a{fill:#0899ba;}</style></defs><path class="a" d="M26.768.563A26.768,26.768,0,1,0,53.536,27.331,26.763,26.763,0,0,0,26.768.563Zm0,10.362a9.5,9.5,0,1,1-9.5,9.5A9.5,9.5,0,0,1,26.768,10.924Zm0,37.13a20.683,20.683,0,0,1-15.813-7.361,12.034,12.034,0,0,1,10.632-6.455,2.641,2.641,0,0,1,.766.119,14.291,14.291,0,0,0,4.415.745,14.237,14.237,0,0,0,4.415-.745,2.641,2.641,0,0,1,.766-.119,12.034,12.034,0,0,1,10.632,6.455A20.683,20.683,0,0,1,26.768,48.054Z" transform="translate(0 -0.563)"/></svg>