<svg xmlns="http://www.w3.org/2000/svg" width="28.123" height="21.093" viewBox="0 0 28.123 21.093">
  <path id="Icon_email" data-name="Icon email" d="M27.591,11.465a.331.331,0,0,1,.533.258V22.956a2.637,2.637,0,0,1-2.637,2.637H2.637A2.637,2.637,0,0,1,0,22.956V11.729a.329.329,0,0,1,.533-.258c1.23.956,2.862,2.17,8.464,6.24,1.159.846,3.114,2.626,5.064,2.615,1.961.016,3.955-1.8,5.07-2.615C24.734,13.64,26.36,12.421,27.591,11.465Zm-13.529,7.1c1.274.022,3.109-1.6,4.032-2.274,7.289-5.29,7.844-5.751,9.525-7.069a1.314,1.314,0,0,0,.505-1.038V7.137A2.637,2.637,0,0,0,25.487,4.5H2.637A2.637,2.637,0,0,0,0,7.137V8.18A1.322,1.322,0,0,0,.505,9.218C2.186,10.531,2.741,11,10.03,16.288,10.953,16.958,12.787,18.584,14.062,18.562Z" transform="translate(0 -4.5)" fill="#0899ba"/>
</svg>
