<svg xmlns="http://www.w3.org/2000/svg" width="28" height="28" viewBox="0 0 28 28"><defs><style>.a{fill:#0899ba;}.b{fill:#fff;}</style></defs><g transform="translate(-356 -606)"><g transform="translate(-1 455)"><g transform="translate(-702 -133)"><circle class="a" cx="14" cy="14" r="14" transform="translate(1059 284)"/></g></g><g transform="translate(374.896 619.35)"><g transform="translate(0 0)"><path class="b" d="M399.875,273.32h-1.381a3.593,3.593,0,0,1,.218,1.235v5.218a1.538,1.538,0,0,1-.089.515h2.283a1.548,1.548,0,0,0,1.546-1.546V275.9A2.58,2.58,0,0,0,399.875,273.32Z" transform="translate(-398.494 -273.32)"/></g></g><g transform="translate(361 619.35)"><g transform="translate(0 0)"><path class="b" d="M3.74,274.556a3.591,3.591,0,0,1,.218-1.235H2.577A2.58,2.58,0,0,0,0,275.9v2.845a1.548,1.548,0,0,0,1.546,1.546H3.829a1.539,1.539,0,0,1-.089-.516Z" transform="translate(0 -273.321)"/></g></g><g transform="translate(365.771 618.007)"><path class="b" d="M142.563,234.815h-3.157a2.58,2.58,0,0,0-2.577,2.577v5.218a.515.515,0,0,0,.515.515h7.28a.515.515,0,0,0,.515-.515v-5.218A2.58,2.58,0,0,0,142.563,234.815Z" transform="translate(-136.829 -234.815)"/></g><g transform="translate(366.827 611.173)"><g transform="translate(0 0)"><path class="b" d="M170.213,38.84a3.1,3.1,0,1,0,3.1,3.1A3.1,3.1,0,0,0,170.213,38.84Z" transform="translate(-167.114 -38.84)"/></g></g><g transform="translate(362.166 614.062)"><g transform="translate(0 0)"><path class="b" d="M35.761,121.689a2.317,2.317,0,1,0,2.318,2.318A2.321,2.321,0,0,0,35.761,121.689Z" transform="translate(-33.443 -121.689)"/></g></g><g transform="translate(373.052 614.062)"><g transform="translate(0 0)"><path class="b" d="M347.925,121.689a2.318,2.318,0,1,0,2.318,2.318A2.321,2.321,0,0,0,347.925,121.689Z" transform="translate(-345.607 -121.689)"/></g></g></g></svg>