<svg id="icon-data" xmlns="http://www.w3.org/2000/svg" width="24" height="24.584" viewBox="0 0 24 24.584">
  <path id="Caminho_907" data-name="Caminho 907" d="M12.988,3H7.4A1.4,1.4,0,0,0,6,4.4V15.579a1.4,1.4,0,0,0,1.4,1.4h8.386a1.4,1.4,0,0,0,1.4-1.4V7.193Z" transform="translate(0.857 6.857)" fill="none" stroke="#fff" stroke-linecap="round" stroke-linejoin="round" stroke-width="1.5"/>
  <path id="Caminho_908" data-name="Caminho 908" d="M21,3V7.193h4.193" transform="translate(-7.154 6.857)" fill="none" stroke="#fff" stroke-linecap="round" stroke-linejoin="round" stroke-width="1.5"/>
  <path id="Caminho_909" data-name="Caminho 909" d="M17.591,19.5H12" transform="translate(-2.347 -1.956)" fill="none" stroke="#fff" stroke-linecap="round" stroke-linejoin="round" stroke-width="1.5"/>
  <path id="Caminho_910" data-name="Caminho 910" d="M17.591,25.5H12" transform="translate(-2.347 -5.16)" fill="none" stroke="#fff" stroke-linecap="round" stroke-linejoin="round" stroke-width="1.5"/>
  <path id="Caminho_911" data-name="Caminho 911" d="M13.4,13.5H12" transform="translate(-2.347 1.249)" fill="none" stroke="#fff" stroke-linecap="round" stroke-linejoin="round" stroke-width="1.5"/>
  <g id="Grupo_957" data-name="Grupo 957" transform="translate(0 0)">
    <circle id="Elipse_80" data-name="Elipse 80" cx="12" cy="12" r="12" fill="#0899ba"/>
  </g>
  <g id="Icon_feather-file-text" data-name="Icon feather-file-text" transform="translate(6 5.143)">
    <path id="Caminho_907-2" data-name="Caminho 907" d="M12.988,3H7.4A1.4,1.4,0,0,0,6,4.4V15.579a1.4,1.4,0,0,0,1.4,1.4h8.386a1.4,1.4,0,0,0,1.4-1.4V7.193Z" transform="translate(-6 -3)" fill="none" stroke="#fff" stroke-linecap="round" stroke-linejoin="round" stroke-width="1.5"/>
    <path id="Caminho_908-2" data-name="Caminho 908" d="M21,3V7.193h4.193" transform="translate(-14.012 -3)" fill="none" stroke="#fff" stroke-linecap="round" stroke-linejoin="round" stroke-width="1.5"/>
    <path id="Caminho_909-2" data-name="Caminho 909" d="M17.591,19.5H12" transform="translate(-9.205 -11.813)" fill="none" stroke="#fff" stroke-linecap="round" stroke-linejoin="round" stroke-width="1.5"/>
    <path id="Caminho_910-2" data-name="Caminho 910" d="M17.591,25.5H12" transform="translate(-9.205 -15.017)" fill="none" stroke="#fff" stroke-linecap="round" stroke-linejoin="round" stroke-width="1.5"/>
    <path id="Caminho_911-2" data-name="Caminho 911" d="M13.4,13.5H12" transform="translate(-9.205 -8.608)" fill="none" stroke="#fff" stroke-linecap="round" stroke-linejoin="round" stroke-width="1.5"/>
  </g>
</svg>
