<svg xmlns="http://www.w3.org/2000/svg" width="28" height="28" viewBox="0 0 28 28"><defs><style>.a{fill:#0899ba;}.b{fill:#fff;}</style></defs><g transform="translate(-1059 -284)"><circle class="a" cx="14" cy="14" r="14" transform="translate(1059 284)"/><path class="b" d="M11.782,0H1.683A1.684,1.684,0,0,0,0,1.683V16.27a1.684,1.684,0,0,0,1.683,1.683h10.1a1.684,1.684,0,0,0,1.683-1.683V1.683A1.684,1.684,0,0,0,11.782,0ZM5.049,1.122H8.416a.561.561,0,1,1,0,1.122H5.049a.561.561,0,0,1,0-1.122ZM6.733,5.61A2.244,2.244,0,1,1,4.488,7.855,2.246,2.246,0,0,1,6.733,5.61Zm3.927,8.3a.735.735,0,0,1-.785.673H3.591a.735.735,0,0,1-.785-.673v-.673a2.208,2.208,0,0,1,2.356-2.02h.175a3.612,3.612,0,0,0,2.791,0H8.3a2.208,2.208,0,0,1,2.356,2.02Z" transform="translate(1066 289)"/></g></svg>
