<svg xmlns="http://www.w3.org/2000/svg" width="32" height="32" viewBox="0 0 32 32">
  <path id="icon-pacient" d="M16,32A16,16,0,1,1,32,16,16.021,16.021,0,0,1,16,32Zm1.03-11.59a2.81,2.81,0,0,1,2.248,4.518h2.837a1.7,1.7,0,0,0,1.694-1.7V21.761a4.746,4.746,0,0,0-4.742-4.74H18.48a6.174,6.174,0,0,1-5.147,0h-.256l1.5,3.389Zm-1.954,1.13,1.508,3.389h.446a1.694,1.694,0,1,0,0-3.389Zm-3.2-4.429a4.73,4.73,0,0,0-1.052.323v7.495h4.53L11.875,17.11ZM9.694,18.155h0A4.724,4.724,0,0,0,8,21.761V23.23a1.7,1.7,0,0,0,1.692,1.7V18.156Zm1.752-7.344,0,.027-.016.116a2.842,2.842,0,0,0-.038.419,4.516,4.516,0,1,0,9.032,0,3.16,3.16,0,0,0-.04-.444c0-.02-.006-.04-.008-.059s-.006-.039-.008-.059ZM15.9,6.855a4.486,4.486,0,0,0-4.179,2.827h2.867l3.2-2.4A4.525,4.525,0,0,0,15.9,6.855Zm2.9,1.079h0L16.472,9.681h3.615A4.517,4.517,0,0,0,18.8,7.934Z" transform="translate(0 0)" fill="#0899ba"/>
</svg>
