<svg xmlns="http://www.w3.org/2000/svg" width="13" height="14.857" viewBox="0 0 13 14.857">
  <path id="icon-company" d="M12.652,13.929h-.58V.7a.7.7,0,0,0-.7-.7H1.625a.7.7,0,0,0-.7.7V13.929H.348A.348.348,0,0,0,0,14.277v.58H13v-.58A.348.348,0,0,0,12.652,13.929ZM3.714,2.205a.348.348,0,0,1,.348-.348H5.223a.348.348,0,0,1,.348.348V3.366a.348.348,0,0,1-.348.348H4.063a.348.348,0,0,1-.348-.348Zm0,2.786a.348.348,0,0,1,.348-.348H5.223a.348.348,0,0,1,.348.348V6.152a.348.348,0,0,1-.348.348H4.063a.348.348,0,0,1-.348-.348ZM5.223,9.286H4.063a.348.348,0,0,1-.348-.348V7.777a.348.348,0,0,1,.348-.348H5.223a.348.348,0,0,1,.348.348V8.938A.348.348,0,0,1,5.223,9.286Zm2.205,4.643H5.571V11.491a.348.348,0,0,1,.348-.348H7.08a.348.348,0,0,1,.348.348ZM9.286,8.938a.348.348,0,0,1-.348.348H7.777a.348.348,0,0,1-.348-.348V7.777a.348.348,0,0,1,.348-.348H8.938a.348.348,0,0,1,.348.348Zm0-2.786a.348.348,0,0,1-.348.348H7.777a.348.348,0,0,1-.348-.348V4.991a.348.348,0,0,1,.348-.348H8.938a.348.348,0,0,1,.348.348Zm0-2.786a.348.348,0,0,1-.348.348H7.777a.348.348,0,0,1-.348-.348V2.205a.348.348,0,0,1,.348-.348H8.938a.348.348,0,0,1,.348.348Z" fill="#0899ba"/>
</svg>
