<svg xmlns="http://www.w3.org/2000/svg" width="28" height="28" viewBox="0 0 28 28"><defs><style>.a{fill:#0899ba;}.b{fill:none;stroke:#fff;stroke-linecap:round;stroke-linejoin:round;stroke-width:1.5px;}</style></defs><g transform="translate(-349 -240)"><g transform="translate(-710 -44)"><circle class="a" cx="14" cy="14" r="14" transform="translate(1059 284)"/></g><g transform="translate(350 243)"><path class="b" d="M14.153,3H7.631A1.631,1.631,0,0,0,6,4.631V17.676a1.631,1.631,0,0,0,1.631,1.631h9.784a1.631,1.631,0,0,0,1.631-1.631V7.892Z"/><path class="b" d="M21,3V7.892h4.892" transform="translate(-6.847)"/><path class="b" d="M18.522,19.5H12" transform="translate(-2.739 -7.532)"/><path class="b" d="M18.522,25.5H12" transform="translate(-2.739 -10.27)"/><path class="b" d="M13.631,13.5H12" transform="translate(-2.739 -4.793)"/></g></g></svg>