<svg xmlns="http://www.w3.org/2000/svg" width="16.375" height="8.188" viewBox="0 0 16.375 8.188"><defs><style>.a{fill:#c7af80;}</style></defs><path class="a" d="M0,8.387V13.3a1.639,1.639,0,0,0,1.638,1.637H4.094V6.75H1.638A1.639,1.639,0,0,0,0,8.387ZM14.738,6.75H12.281v8.188h2.456A1.639,1.639,0,0,0,16.375,13.3V8.387A1.639,1.639,0,0,0,14.738,6.75ZM4.913,14.938h6.55V6.75H4.913ZM9.416,9a.614.614,0,1,1-.614.614A.613.613,0,0,1,9.416,9Zm0,2.456a.614.614,0,1,1-.614.614A.613.613,0,0,1,9.416,11.458ZM6.959,9a.614.614,0,1,1-.614.614A.613.613,0,0,1,6.959,9Zm0,2.456a.614.614,0,1,1-.614.614A.613.613,0,0,1,6.959,11.458Z" transform="translate(0 -6.75)"/></svg>