<svg xmlns="http://www.w3.org/2000/svg" width="11" height="11" viewBox="0 0 11 11"><defs><style>.a{fill:none;stroke:#f9ca24;stroke-linecap:round;stroke-linejoin:round;}</style></defs><g transform="translate(0.5 0.5)"><path class="a" d="M15.045,12.773A2.273,2.273,0,1,1,12.773,10.5,2.273,2.273,0,0,1,15.045,12.773Z" transform="translate(-7.773 -7.773)"/><path class="a" d="M18,1.5v.909" transform="translate(-13 -1.5)"/><path class="a" d="M18,31.5v.909" transform="translate(-13 -22.409)"/><path class="a" d="M6.33,6.33l.645.645" transform="translate(-4.866 -4.866)"/><path class="a" d="M27.54,27.54l.645.645" transform="translate(-19.649 -19.649)"/><path class="a" d="M1.5,18h.909" transform="translate(-1.5 -13)"/><path class="a" d="M31.5,18h.909" transform="translate(-22.409 -13)"/><path class="a" d="M6.33,28.185l.645-.645" transform="translate(-4.866 -19.649)"/><path class="a" d="M27.54,6.975l.645-.645" transform="translate(-19.649 -4.866)"/></g></svg>