<svg xmlns="http://www.w3.org/2000/svg" width="10.977" height="12.545" viewBox="0 0 10.977 12.545">
  <g id="icon-alergia" transform="translate(-363 -260.508)">
    <path id="icon-user" d="M5.489,6.273A3.136,3.136,0,1,0,2.352,3.136,3.136,3.136,0,0,0,5.489,6.273Zm2.2.784H7.275a4.265,4.265,0,0,1-3.573,0H3.293A3.294,3.294,0,0,0,0,10.35v1.019a1.176,1.176,0,0,0,1.176,1.176H9.8a1.176,1.176,0,0,0,1.176-1.176V10.35A3.294,3.294,0,0,0,7.684,7.057Z" transform="translate(363 260.508)" fill="#fff"/>
    <circle id="Elipse_243" data-name="Elipse 243" cx="0.547" cy="0.547" r="0.547" transform="translate(367.925 261.872)" fill="#ff6565"/>
    <circle id="Elipse_244" data-name="Elipse 244" cx="0.547" cy="0.547" r="0.547" transform="translate(369.567 264.06)" fill="#ff6565"/>
    <circle id="Elipse_245" data-name="Elipse 245" cx="0.547" cy="0.547" r="0.547" transform="translate(366.831 264.06)" fill="#ff6565"/>
    <circle id="Elipse_246" data-name="Elipse 246" cx="0.547" cy="0.547" r="0.547" transform="translate(370.114 270.08)" fill="#ff6565"/>
    <circle id="Elipse_247" data-name="Elipse 247" cx="0.547" cy="0.547" r="0.547" transform="translate(365.189 269.533)" fill="#ff6565"/>
    <circle id="Elipse_248" data-name="Elipse 248" cx="0.547" cy="0.547" r="0.547" transform="translate(368.472 268.438)" fill="#ff6565"/>
    <circle id="Elipse_249" data-name="Elipse 249" cx="0.821" cy="0.821" r="0.821" transform="translate(366.831 270.627)" fill="#ff6565"/>
    <circle id="Elipse_250" data-name="Elipse 250" cx="0.274" cy="0.274" r="0.274" transform="translate(368.472 270.08)" fill="#ff6565"/>
    <circle id="Elipse_251" data-name="Elipse 251" cx="0.274" cy="0.274" r="0.274" transform="translate(369.019 262.966)" fill="#ff6565"/>
  </g>
</svg>
