<svg xmlns="http://www.w3.org/2000/svg" width="176.235" height="164.307" viewBox="0 0 176.235 164.307"><defs><style>.a{fill:#ebebeb;}.b{fill:#fafafa;}.c{fill:#263238;}.d{fill:#0899ba;}.e{opacity:0.8;}.f{fill:#fff;}.g{fill:#4fc66a;}.h{fill:#e0e0e0;}.i{fill:#16679a;}.j{fill:#455a64;}.k{fill:#ffbe9d;}.l{fill:#eb996e;}.m{opacity:0.2;}.n{fill:#f9ca24;}.o{fill:#ebb500;}.p{opacity:0.9;}</style></defs><g transform="translate(-34.763 -35.237)"><g transform="translate(34.764 35.237)"><path class="a" d="M196.23,54.3c16.323,23.645,16.787,56.318,4.124,82.133s-37.065,44.756-64.205,54.216c-19.369,6.754-40.916,8.948-60.386,2.478s-36.308-22.6-40.24-42.734c-1.485-7.607-1-15.97,3.315-22.42,6.886-10.277,20.778-12.547,33.077-13.884s26.2-3.559,33.117-13.808c5.325-7.875,4.836-18.144,6.922-27.42A49.329,49.329,0,0,1,142.7,37.988a46.638,46.638,0,0,1,8.187-2.134,47.193,47.193,0,0,1,43.959,16.767Z" transform="translate(-34.764 -35.237)"/><circle class="a" cx="18.016" cy="18.016" r="18.016" transform="translate(13.699 2.564)"/></g><g transform="translate(56.477 50.548)"><path class="b" d="M211.909,176.864c0-.733-.036-41.048-.088-103.252l.088.076H89.1l.1-.1V176.836l-.1-.092,122.825.092L89.1,176.928H89V73.48H212.017v.088C211.961,135.815,211.909,176.131,211.909,176.864Z" transform="translate(-89 -73.48)"/><rect class="b" width="122.825" height="103.252" transform="translate(0.1 0.132)"/><rect class="a" width="44.103" height="10.109" transform="translate(0.34 7.262)"/><path class="c" d="M106.563,104.3v-1.389c0-.9-.024-2.138-.044-3.635l.084.084H99.288l.1-.1h0v5.008l-.1-.1,5.249.048,1.513.028h.548a4.03,4.03,0,0,1-.516.024l-1.493.024-5.309.048H99.2V99.271h0c-.092.092.128-.128.108-.1h7.4v.084c0,1.521-.032,2.778-.044,3.687v1A1.958,1.958,0,0,1,106.563,104.3Z" transform="translate(-95.1 -88.882)"/><path class="c" d="M106.669,99.4a2.973,2.973,0,0,1-.26.3c-.176.18-.436.432-.761.745-.649.625-1.557,1.477-2.566,2.4h-.168l-.048-.044-.092-.088-.188-.172-.36-.336-.685-.637-1.165-1.129c-.324-.312-.585-.564-.765-.745a1.481,1.481,0,0,1-.26-.3,2.426,2.426,0,0,1,.316.236c.192.164.468.4.8.7l1.177,1.057.689.629.364.332.188.172.092.088.048.04.024.024h-.128c1.009-.929,1.93-1.766,2.606-2.362.336-.3.613-.536.8-.7a1.4,1.4,0,0,1,.34-.212Z" transform="translate(-95.206 -89.023)"/><path class="c" d="M101.776,105a8.336,8.336,0,0,1-1.145,1.469,8.243,8.243,0,0,1-1.3,1.333,17.188,17.188,0,0,1,2.446-2.8Z" transform="translate(-95.194 -92.381)"/><path class="c" d="M114.2,107.7a8.592,8.592,0,0,1-1.265-1.405,8.716,8.716,0,0,1-1.1-1.541,8.52,8.52,0,0,1,1.265,1.409,8.611,8.611,0,0,1,1.1,1.537Z" transform="translate(-102.69 -92.231)"/><path class="c" d="M152.826,103.644c0,.06-5.165.1-11.53.1s-11.526-.044-11.526-.1,5.161-.1,11.526-.1S152.826,103.588,152.826,103.644Z" transform="translate(-113.447 -91.505)"/><rect class="d" width="79.042" height="17.319" transform="translate(43.883 34.759)"/><path class="c" d="M278.015,203.564c0,.06-17.464.1-39,.1s-39-.044-39-.1,17.46-.1,39-.1S278.015,203.508,278.015,203.564Z" transform="translate(-155.566 -151.422)"/><g class="e" transform="translate(43.883 34.759)"><rect class="f" width="79.042" height="17.319"/></g><rect class="g" width="6.49" height="6.49" rx="2.25" transform="translate(48.968 40.172)"/><path class="f" d="M215.587,180.6a.4.4,0,0,1-.24-.08l-1.309-.985a.4.4,0,1,1,.48-.637l1.021.765,2.05-2.226a.4.4,0,1,1,.589.544l-2.294,2.49A.4.4,0,0,1,215.587,180.6Z" transform="translate(-163.865 -135.74)"/><path class="d" d="M211.909,176.864c0-.733-.036-41.048-.088-103.252l.088.076H89.1l.1-.1V176.836l-.1-.092,122.825.092L89.1,176.928H89V73.48H212.017v.088C211.961,135.815,211.909,176.131,211.909,176.864Z" transform="translate(-89 -73.48)"/><path class="d" d="M89.85,91.464c0-.06,27.388-.1,61.17-.1s61.178.044,61.178.1-27.384.1-61.178.1S89.85,91.52,89.85,91.464Z" transform="translate(-89.51 -84.202)"/><circle class="d" cx="1.313" cy="1.313" r="1.313" transform="translate(2.766 2.25)"/><circle class="d" cx="1.313" cy="1.313" r="1.313" transform="translate(6.418 2.25)"/><path class="d" d="M117.392,79.484a1.313,1.313,0,1,1-1.858,0A1.313,1.313,0,0,1,117.392,79.484Z" transform="translate(-104.681 -76.849)"/><path class="c" d="M128.033,126.9a1.16,1.16,0,0,1,.284,0l.833-.024,3.051-.04h.04l.024.032,1.345,1.77.02.028v2.746h-6.91v-.108c0-.9,0-1.71.024-2.4h0l.937-1.469a4.593,4.593,0,0,1,.352-.532.653.653,0,0,1-.072.152l-.228.4-.865,1.477V128.9c0,.681,0,1.485.02,2.4l-.088-.088h6.722l-.1.1v-2.61l.02.056-1.321-1.782.068.032-3.019-.04h-.841A1.678,1.678,0,0,1,128.033,126.9Z" transform="translate(-111.619 -105.477)"/><path class="c" d="M133.706,131.73a2.334,2.334,0,0,1-.581.08c-.368.032-.9.068-1.525.108l.084-.088a1.773,1.773,0,0,1-.316.933,1.237,1.237,0,0,1-.4.368,1.437,1.437,0,0,1-.56.132,1.4,1.4,0,0,1-1.1-.464,2.074,2.074,0,0,1-.448-.957l.088.072c-.585,0-1.073-.02-1.413-.036a2.037,2.037,0,0,1-.533-.06,2.182,2.182,0,0,1,.532-.048c.34,0,.829-.028,1.413-.04H129v.076a1.946,1.946,0,0,0,.42.849,1.2,1.2,0,0,0,.945.4,1.1,1.1,0,0,0,.472-.108,1.021,1.021,0,0,0,.352-.3,1.665,1.665,0,0,0,.3-.821v-.084h.076c.633-.02,1.161-.032,1.533-.036A2.4,2.4,0,0,1,133.706,131.73Z" transform="translate(-111.786 -108.389)"/><path class="c" d="M162.811,127.394a1.336,1.336,0,0,1,.34-.032v.064c-.8.04-3.279.072-6.185.072-1.8,0-3.435,0-4.616-.032l-1.4-.032a2.311,2.311,0,0,1-.512-.04,2.311,2.311,0,0,1,.512-.04l1.4-.032c1.181-.02,2.8-.032,4.616-.032,2.907,0,5.369.032,6.185.072v.064A1.133,1.133,0,0,1,162.811,127.394Z" transform="translate(-125.842 -105.747)"/><path class="c" d="M162.811,133.944a1.133,1.133,0,0,1,.34-.032v.064c-.8.04-3.279.072-6.185.072-1.8,0-3.435,0-4.616-.032l-1.4-.032a2.668,2.668,0,0,1-.512-.04,2.43,2.43,0,0,1,.512-.044l1.4-.032c1.181,0,2.8-.028,4.616-.028,2.907,0,5.369.028,6.185.072v.064A1.631,1.631,0,0,1,162.811,133.944Z" transform="translate(-125.842 -109.674)"/><path class="c" d="M162.811,140.484a1.336,1.336,0,0,1,.34-.032v.064c-.8.044-3.279.072-6.185.072-1.8,0-3.435,0-4.616-.028l-1.4-.036a2.31,2.31,0,0,1-.512-.04,2.665,2.665,0,0,1,.512-.04l1.4-.032c1.181-.02,2.8-.032,4.616-.032,2.907,0,5.369.032,6.185.072v.064A1.132,1.132,0,0,1,162.811,140.484Z" transform="translate(-125.842 -113.596)"/><path class="c" d="M128.033,173.744a1.258,1.258,0,0,1,.284-.024l.833-.02,3.051-.04h.04l.024.032,1.345,1.77.02.028v2.746h-6.91v-.088c0-.9,0-1.71.024-2.4v-.02h0l.937-1.469a4.592,4.592,0,0,1,.34-.5.652.652,0,0,1-.072.152l-.228.4-.849,1.485v-.036c0,.681,0,1.485.02,2.4l-.088-.088h6.722l-.1.1v-2.61l.02.056-1.321-1.782.068.032-3.019-.04h-.841A1.675,1.675,0,0,1,128.033,173.744Z" transform="translate(-111.619 -133.552)"/><path class="c" d="M133.706,178.578a2.334,2.334,0,0,1-.581.08c-.368.032-.9.068-1.525.108l.084-.088a1.774,1.774,0,0,1-.316.933,1.237,1.237,0,0,1-.4.368,1.437,1.437,0,0,1-.56.132,1.4,1.4,0,0,1-1.1-.464,2.074,2.074,0,0,1-.448-.957l.088.072c-.585,0-1.073-.02-1.413-.036a2.037,2.037,0,0,1-.532-.052,2.282,2.282,0,0,1,.532-.052l1.413-.036H129v.076a1.946,1.946,0,0,0,.42.849,1.2,1.2,0,0,0,.945.4,1.1,1.1,0,0,0,.472-.108,1.021,1.021,0,0,0,.352-.3,1.666,1.666,0,0,0,.3-.821V178.6h.076c.633,0,1.161-.032,1.533-.036A2.4,2.4,0,0,1,133.706,178.578Z" transform="translate(-111.786 -136.484)"/><path class="c" d="M162.811,174.234a1.336,1.336,0,0,1,.34-.032v.064c-.8.04-3.279.072-6.185.072-1.8,0-3.435,0-4.616-.032l-1.4-.032a2.309,2.309,0,0,1-.512-.04,2.311,2.311,0,0,1,.512-.04l1.4-.032c1.181-.02,2.8-.032,4.616-.032,2.907,0,5.369.032,6.185.072v.064a1.339,1.339,0,0,1-.34-.032Z" transform="translate(-125.842 -133.834)"/><path class="c" d="M162.811,180.772a1.133,1.133,0,0,1,.34-.032v.056c-.8.04-3.279.072-6.185.072-1.8,0-3.435,0-4.616-.032l-1.4-.032a2.668,2.668,0,0,1-.512-.04,2.431,2.431,0,0,1,.512-.044l1.4-.032c1.181-.02,2.8-.028,4.616-.028,2.907,0,5.369.028,6.185.072v.064A1.627,1.627,0,0,1,162.811,180.772Z" transform="translate(-125.842 -137.75)"/><path class="c" d="M162.811,187.324a1.338,1.338,0,0,1,.34-.032v.064c-.8.044-3.279.072-6.186.072-1.8,0-3.435,0-4.616-.028l-1.4-.036a2.312,2.312,0,0,1-.512-.04,2.664,2.664,0,0,1,.512-.04l1.4-.032c1.181-.02,2.8-.032,4.616-.032,2.907,0,5.369.032,6.186.072v.064A1.133,1.133,0,0,1,162.811,187.324Z" transform="translate(-125.842 -141.684)"/><path class="c" d="M128.033,220.584a1.257,1.257,0,0,1,.284-.024l.833-.02,3.051-.04h.04l.024.032,1.345,1.77.02.028v2.746h-6.91v-.088c0-.9,0-1.71.024-2.4h0l.937-1.469a4.589,4.589,0,0,1,.34-.5.653.653,0,0,1-.072.152l-.228.4-.865,1.477v-.036c0,.681,0,1.485.02,2.4l-.088-.088h6.722l-.1.1v-2.61l.02.056L132.1,220.7l.068.032-3.019-.04h-.841A1.677,1.677,0,0,1,128.033,220.584Z" transform="translate(-111.619 -161.64)"/><path class="c" d="M133.706,225.418a2.334,2.334,0,0,1-.581.08c-.368.032-.9.068-1.525.108l.084-.088a1.774,1.774,0,0,1-.316.933,1.236,1.236,0,0,1-.4.368,1.365,1.365,0,0,1-.56.128,1.385,1.385,0,0,1-1.1-.46,2.074,2.074,0,0,1-.448-.957l.088.072c-.585,0-1.073,0-1.413-.036a2.038,2.038,0,0,1-.532-.052,2.283,2.283,0,0,1,.532-.052l1.413-.036H129v.076a1.946,1.946,0,0,0,.42.849,1.2,1.2,0,0,0,.945.4,1.105,1.105,0,0,0,.472-.108,1.021,1.021,0,0,0,.352-.3,1.666,1.666,0,0,0,.3-.821v-.084h.076c.633-.024,1.161-.032,1.533-.036A2.4,2.4,0,0,1,133.706,225.418Z" transform="translate(-111.786 -164.572)"/><path class="c" d="M162.811,221.074a1.337,1.337,0,0,1,.34-.032v.064c-.8.04-3.279.072-6.186.072-1.8,0-3.435,0-4.616-.032l-1.4-.032a2.309,2.309,0,0,1-.512-.04,2.311,2.311,0,0,1,.512-.04l1.4-.032c1.181-.02,2.8-.032,4.616-.032,2.907,0,5.369.032,6.186.072v.064A1.339,1.339,0,0,1,162.811,221.074Z" transform="translate(-125.842 -161.921)"/><path class="c" d="M162.811,227.624a1.133,1.133,0,0,1,.34-.032v.064c-.8.04-3.279.072-6.185.072-1.8,0-3.435,0-4.616-.032l-1.4-.032a2.665,2.665,0,0,1-.512-.04,2.43,2.43,0,0,1,.512-.044l1.4-.032c1.181-.02,2.8-.028,4.616-.028,2.907,0,5.369.028,6.185.072v.064A1.629,1.629,0,0,1,162.811,227.624Z" transform="translate(-125.842 -165.849)"/><path class="c" d="M162.811,234.164a1.338,1.338,0,0,1,.34-.032v.064c-.8.044-3.279.072-6.185.072-1.8,0-3.435,0-4.616-.028l-1.4-.036a2.309,2.309,0,0,1-.512-.04,2.67,2.67,0,0,1,.512-.04l1.4-.032c1.181,0,2.8-.032,4.616-.032,2.907,0,5.369.032,6.185.072v.064a1.134,1.134,0,0,1-.34-.032Z" transform="translate(-125.842 -169.771)"/><path class="c" d="M373.133,135.539a2.994,2.994,0,0,1-.02-.372c0-.26,0-.6,0-1.021,0-.893-.028-2.134-.044-3.635l.084.084-7.331.02.1-.1h0v5l-.1-.1,5.245.048,1.517.024h.548a5.013,5.013,0,0,1-.516,0l-1.493.028-5.309.048h-.1v-5.1h0c-.092.092.128-.128.1-.108l7.319.024h.084v.08c0,1.521-.032,2.782-.04,3.687,0,.4,0,.749-.024,1A2.621,2.621,0,0,1,373.133,135.539Z" transform="translate(-254.924 -107.586)"/><path class="c" d="M373.329,130.74a1.484,1.484,0,0,1-.26.3c-.18.18-.44.436-.765.749-.649.625-1.553,1.473-2.566,2.4h-.144l-.024-.024-.044-.044-.1-.084-.184-.172-.364-.336-.681-.637-1.149-1.089c-.324-.312-.585-.568-.761-.749a1.482,1.482,0,0,1-.26-.3,1.817,1.817,0,0,1,.316.236c.192.164.468.4.8.7l1.177,1.053.693.629.364.336.184.168.1.088.048.044h-.116c1.009-.933,1.934-1.766,2.606-2.362.34-.3.617-.536.8-.7A1.522,1.522,0,0,1,373.329,130.74Z" transform="translate(-255.119 -107.816)"/><path class="c" d="M368.4,136.36a8.808,8.808,0,0,1-1.149,1.457,8.19,8.19,0,0,1-1.3,1.333,15.861,15.861,0,0,1,2.45-2.79Z" transform="translate(-255.071 -111.186)"/><path class="c" d="M380.826,139.033a8.8,8.8,0,0,1-1.265-1.405,8.7,8.7,0,0,1-1.1-1.537,8.811,8.811,0,0,1,1.265,1.405A8.463,8.463,0,0,1,380.826,139.033Z" transform="translate(-262.573 -111.024)"/><path class="c" d="M278.009,116.714c0,.056-17.464.1-39,.1s-39.007-.052-39.007-.1,17.46-.1,39-.1S278.009,116.658,278.009,116.714Z" transform="translate(-155.56 -99.343)"/><path class="c" d="M278.009,160.144c0,.056-17.464.1-39,.1S200,160.2,200,160.144s17.46-.1,39-.1S278.009,160.084,278.009,160.144Z" transform="translate(-155.56 -125.385)"/><path class="c" d="M278.009,246.1c0,.056-17.464.1-39,.1S200,246.16,200,246.1s17.46-.1,39-.1S278.009,246.044,278.009,246.1Z" transform="translate(-155.56 -176.931)"/><path class="c" d="M278.015,290.1c0,.06-17.464.1-39,.1s-39-.044-39-.1,17.46-.1,39-.1S278.015,290.048,278.015,290.1Z" transform="translate(-155.566 -203.315)"/><path class="c" d="M216.8,137.142a.777.777,0,0,0,.24-.056.881.881,0,0,0,.512-.428,2.512,2.512,0,0,0,.088-1.089c.012-.44,0-.941,0-1.489v-2.3a1.413,1.413,0,0,0-.04-.476.8.8,0,0,0-.717-.548h-4.776a.8.8,0,0,0-.781.653c-.028.368,0,.8,0,1.2v3.363a2.088,2.088,0,0,0,.024.484.825.825,0,0,0,.22.4.853.853,0,0,0,.376.208,1.93,1.93,0,0,0,.436.024h.869l2.614.032.713.02a1.2,1.2,0,0,1,.248.02.916.916,0,0,1-.248,0l-.713.02-2.614.036h-.869a1.969,1.969,0,0,1-.476-.024.973.973,0,0,1-.729-.709,2,2,0,0,1-.032-.528v-3.964a4.848,4.848,0,0,1,0-.629,1,1,0,0,1,.985-.8h4.756a1,1,0,0,1,.877.681,1.6,1.6,0,0,1,.048.536v4.4a1.017,1.017,0,0,1-.124.516.941.941,0,0,1-.573.432A.581.581,0,0,1,216.8,137.142Z" transform="translate(-162.237 -107.708)"/><path class="c" d="M216.8,266.876a.777.777,0,0,0,.24-.056.881.881,0,0,0,.512-.428,2.512,2.512,0,0,0,.088-1.089c.012-.44,0-.941,0-1.489v-2.3a1.413,1.413,0,0,0-.04-.476.8.8,0,0,0-.717-.548h-4.776a.8.8,0,0,0-.781.649c-.028.372,0,.8,0,1.2v3.359a2.114,2.114,0,0,0,.024.488.8.8,0,0,0,.6.609,1.72,1.72,0,0,0,.436.028h.869l2.614.032.713.02a1.2,1.2,0,0,1,.248,0,.918.918,0,0,1-.248.02l-.713.02-2.614.032h-.869a1.969,1.969,0,0,1-.476-.024.973.973,0,0,1-.729-.709,2,2,0,0,1-.032-.532v-3.96a4.849,4.849,0,0,1,0-.629,1,1,0,0,1,.985-.821h4.756a1,1,0,0,1,.877.681,1.6,1.6,0,0,1,.048.536v4.4a1.017,1.017,0,0,1-.124.516.917.917,0,0,1-.573.428A.636.636,0,0,1,216.8,266.876Z" transform="translate(-162.237 -185.487)"/><path class="c" d="M216.8,266.876a.777.777,0,0,0,.24-.056.881.881,0,0,0,.512-.428,2.512,2.512,0,0,0,.088-1.089c.012-.44,0-.941,0-1.489v-2.3a1.413,1.413,0,0,0-.04-.476.8.8,0,0,0-.717-.548h-4.776a.8.8,0,0,0-.781.649c-.028.372,0,.8,0,1.2v3.359a2.114,2.114,0,0,0,.024.488.8.8,0,0,0,.6.609,1.72,1.72,0,0,0,.436.028h.869l2.614.032.713.02a1.2,1.2,0,0,1,.248,0,.918.918,0,0,1-.248.02l-.713.02-2.614.032h-.869a1.969,1.969,0,0,1-.476-.024.973.973,0,0,1-.729-.709,2,2,0,0,1-.032-.532v-3.96a4.849,4.849,0,0,1,0-.629,1,1,0,0,1,.985-.821h4.756a1,1,0,0,1,.877.681,1.6,1.6,0,0,1,.048.536v4.4a1.017,1.017,0,0,1-.124.516.917.917,0,0,1-.573.428A.636.636,0,0,1,216.8,266.876Z" transform="translate(-162.237 -203.487)"/><path class="c" d="M216.8,266.876a.777.777,0,0,0,.24-.056.881.881,0,0,0,.512-.428,2.512,2.512,0,0,0,.088-1.089c.012-.44,0-.941,0-1.489v-2.3a1.413,1.413,0,0,0-.04-.476.8.8,0,0,0-.717-.548h-4.776a.8.8,0,0,0-.781.649c-.028.372,0,.8,0,1.2v3.359a2.114,2.114,0,0,0,.024.488.8.8,0,0,0,.6.609,1.72,1.72,0,0,0,.436.028h.869l2.614.032.713.02a1.2,1.2,0,0,1,.248,0,.918.918,0,0,1-.248.02l-.713.02-2.614.032h-.869a1.969,1.969,0,0,1-.476-.024.973.973,0,0,1-.729-.709,2,2,0,0,1-.032-.532v-3.96a4.849,4.849,0,0,1,0-.629,1,1,0,0,1,.985-.821h4.756a1,1,0,0,1,.877.681,1.6,1.6,0,0,1,.048.536v4.4a1.017,1.017,0,0,1-.124.516.917.917,0,0,1-.573.428A.636.636,0,0,1,216.8,266.876Z" transform="translate(-162.237 -169.487)"/><path class="c" d="M198.56,186.28V172.42c0-8.56.1-20.386.224-33.45s.212-24.886.288-33.454c.028-4.276.048-7.739.064-10.141,0-1.2,0-2.118.024-2.754v12.9c-.02,8.56-.1,20.39-.228,33.454s-.212,24.882-.284,33.45c-.028,4.276-.048,7.739-.064,10.141,0,1.2,0,2.118-.024,2.758v.717C198.56,186.208,198.56,186.28,198.56,186.28Z" transform="translate(-154.697 -84.382)"/><path class="c" d="M269.662,177.564c0,.056-6.005.1-13.436.1s-13.436-.048-13.436-.1,6.005-.1,13.436-.1S269.662,177.5,269.662,177.564Z" transform="translate(-181.219 -135.831)"/><path class="c" d="M286.457,184.964c0,.06-9.777.1-21.831.1s-21.835-.044-21.835-.1,9.777-.1,21.835-.1S286.457,184.916,286.457,184.964Z" transform="translate(-181.219 -140.268)"/><path class="c" d="M269.662,264.674c0,.056-6.005.1-13.436.1s-13.436-.048-13.436-.1,6.005-.1,13.436-.1S269.662,264.614,269.662,264.674Z" transform="translate(-181.219 -188.066)"/><path class="c" d="M286.457,272.074c0,.056-9.777.1-21.831.1s-21.835-.048-21.835-.1,9.777-.1,21.835-.1S286.457,272.018,286.457,272.074Z" transform="translate(-181.219 -192.503)"/><path class="c" d="M269.662,135.7c0,.06-6.005.108-13.436.108s-13.436-.048-13.436-.108,6.005-.1,13.436-.1S269.662,135.648,269.662,135.7Z" transform="translate(-181.219 -110.73)"/><path class="c" d="M286.457,143.114c0,.056-9.777.1-21.831.1s-21.835-.048-21.835-.1,9.777-.1,21.835-.1S286.457,143.058,286.457,143.114Z" transform="translate(-181.219 -115.173)"/><path class="c" d="M269.662,220.244c0,.056-6.005.1-13.436.1s-13.436-.048-13.436-.1,6.005-.1,13.436-.1S269.662,220.188,269.662,220.244Z" transform="translate(-181.219 -161.424)"/><path class="c" d="M286.457,227.644c0,.06-9.777.1-21.831.1s-21.835-.044-21.835-.1,9.777-.1,21.835-.1S286.457,227.588,286.457,227.644Z" transform="translate(-181.219 -165.861)"/><path class="c" d="M269.662,306c0,.056-6.005.1-13.436.1s-13.436-.048-13.436-.1,6.005-.1,13.436-.1S269.662,305.94,269.662,306Z" transform="translate(-181.219 -212.849)"/><path class="c" d="M286.457,313.4c0,.056-9.777.1-21.831.1s-21.835-.048-21.835-.1,9.777-.1,21.835-.1S286.457,313.348,286.457,313.4Z" transform="translate(-181.219 -217.287)"/><rect class="h" width="5.289" height="5.289" transform="translate(113.645 9.444)"/><rect class="h" width="5.289" height="5.289" transform="translate(105.033 9.444)"/><rect class="h" width="5.289" height="5.289" transform="translate(96.422 9.444)"/><path class="i" d="M103.29,131.66l2.246,2.931,1.922-2.931Z" transform="translate(-97.569 -108.367)"/></g><g transform="translate(35.395 106.41)"><path class="c" d="M83.628,218.456c5.2-6.87,10.714-5.9,14.529-4.24a10.481,10.481,0,0,1,6.125,10.009,6.952,6.952,0,0,0,.148,3.255c.717,1.6,2.8,2.07,4,3.359,1.653,1.766,1.289,4.556.729,6.91s-1.145,5.036.236,7.018c1.269,1.814,3.683,2.3,5.677,3.271a10.409,10.409,0,0,1,5.509,6.482,8.888,8.888,0,0,1-1.886,8.2c-1.938,2.106-4.844,3.043-7.675,3.459a28.277,28.277,0,0,1-32.369-29.41" transform="translate(-61.692 -213.012)"/><path class="j" d="M109.487,216.6a15.05,15.05,0,0,0-1.854.1,24.788,24.788,0,0,0-4.308,1.249,12.214,12.214,0,0,1-4.436.829,5.562,5.562,0,0,1-1.357-.22,1.89,1.89,0,0,1-.472-.188,9.169,9.169,0,0,0,1.834.264,13.212,13.212,0,0,0,4.368-.881,21.779,21.779,0,0,1,4.352-1.2,7.282,7.282,0,0,1,1.377-.036A1.9,1.9,0,0,1,109.487,216.6Z" transform="translate(-72.75 -215.108)"/><path class="k" d="M144.707,353.24c.2.6,4.352,20.218,4.352,20.218L180.643,385.6l-1.778,4.608-27.08-2.382h0c-15.806-2.358-16.683-10.113-15.73-18.781l1.637-14.857Z" transform="translate(-95.976 -297.099)"/><path class="d" d="M44.67,312.824a24.632,24.632,0,0,1,12.719-9.344L74,304.681a12.667,12.667,0,0,1,10.121,3.735l1.545,41.169,3.815,10.81H49.959l-5.289-47.57" transform="translate(-41.335 -267.261)"/><path class="b" d="M107.3,354.153a1.016,1.016,0,0,1-.1-.064l-.268-.2a5.181,5.181,0,0,0-.436-.324l-.621-.4c-.248-.132-.52-.28-.821-.428a10.97,10.97,0,0,0-3.639-.957,10.848,10.848,0,0,0-3.227.2,9.728,9.728,0,0,0-3.407,1.433,7.154,7.154,0,0,0-2.682,3.015,4.308,4.308,0,0,0-.364,2.086,3.927,3.927,0,0,0,.8,2.022,2.8,2.8,0,0,0,1.826,1.085,1.766,1.766,0,0,0,1.8-.773,2.318,2.318,0,0,0,.032-1.962,3.728,3.728,0,0,0-.472-.881,4.931,4.931,0,0,0-.665-.721,7.138,7.138,0,0,0-3.279-1.637,10.068,10.068,0,0,0-3.227-.18,21.219,21.219,0,0,0-4.6,1.089l-1.221.4-.316.1a.328.328,0,0,1-.112.028l.1-.048.312-.124c.272-.1.681-.26,1.2-.448a20.15,20.15,0,0,1,4.6-1.149,10.249,10.249,0,0,1,3.279.156,7.367,7.367,0,0,1,3.367,1.665c.128.112.248.232.364.356a3.6,3.6,0,0,1,.332.4,4,4,0,0,1,.5.921,2.53,2.53,0,0,1-.044,2.138,1.725,1.725,0,0,1-.861.737,2.287,2.287,0,0,1-1.137.136,2.991,2.991,0,0,1-1.966-1.161,4.1,4.1,0,0,1-.829-2.13,4.448,4.448,0,0,1,.4-2.186,7.311,7.311,0,0,1,2.762-3.095,10.009,10.009,0,0,1,3.479-1.445,11,11,0,0,1,3.275-.176,10.411,10.411,0,0,1,2.642.585,11.029,11.029,0,0,1,1.025.428c.3.156.577.312.8.448l.617.42a5.461,5.461,0,0,1,.428.344l.252.216Z" transform="translate(-63.906 -296.106)"/><path class="d" d="M141.613,315.76l9.809,17.64-10.882,3.343Z" transform="translate(-98.823 -274.624)"/><path class="c" d="M145.262,373.4a1.85,1.85,0,0,1-.032-.308c0-.22-.028-.512-.052-.881-.036-.8-.084-1.9-.148-3.259-.112-2.746-.252-6.546-.376-10.742s-.2-8.007-.224-10.754v-4.144a1.823,1.823,0,0,1,.02-.308,1.525,1.525,0,0,1,.024.308l.024.885c0,.8.04,1.9.072,3.255.072,2.77.172,6.562.284,10.75s.236,7.975.316,10.746c.032,1.357.06,2.466.08,3.259v.885a1.5,1.5,0,0,1,.012.308Z" transform="translate(-101.155 -290.965)"/><path class="b" d="M126.806,323.456a1.122,1.122,0,0,1-.224.156,6.129,6.129,0,0,1-.689.376,7.263,7.263,0,0,1-6.91-.581,4.564,4.564,0,0,1-.957-.8,2.362,2.362,0,0,1-.593-1.2,1.6,1.6,0,0,1,.356-1.333,1.425,1.425,0,0,1,1.357-.4,1.762,1.762,0,0,1,1.173.8,2,2,0,0,1,.212,1.365,2.7,2.7,0,0,1-.556,1.2,3.258,3.258,0,0,1-.981.8,6.141,6.141,0,0,1-2.222.625,9.919,9.919,0,0,1-2,.024,9.811,9.811,0,0,1-2.8-.677,7.24,7.24,0,0,1-.713-.332,1.042,1.042,0,0,1-.236-.14,2.426,2.426,0,0,1,.252.1c.164.072.4.176.725.292a10.374,10.374,0,0,0,2.8.6,10.013,10.013,0,0,0,1.97-.048,6.028,6.028,0,0,0,2.15-.621,3.135,3.135,0,0,0,.921-.753,2.53,2.53,0,0,0,.508-1.113,1.8,1.8,0,0,0-.192-1.221,1.533,1.533,0,0,0-1.033-.7,1.225,1.225,0,0,0-1.165.328,1.4,1.4,0,0,0-.3,1.165,2.17,2.17,0,0,0,.536,1.089,4.493,4.493,0,0,0,.917.8,7.042,7.042,0,0,0,3.98,1.2,7.362,7.362,0,0,0,2.8-.536C126.482,323.648,126.794,323.436,126.806,323.456Z" transform="translate(-81.121 -276.947)"/><path class="b" d="M91.832,414.446l-.112-.076-.32-.232a10.827,10.827,0,0,0-1.309-.781,11.646,11.646,0,0,0-5.4-1.2,16.3,16.3,0,0,0-7.851,2.354A11.208,11.208,0,0,0,74.9,415.9a6.634,6.634,0,0,0-1.529,1.922A3.8,3.8,0,0,0,73,420.271a2.166,2.166,0,0,0,.617,1.089,1.2,1.2,0,0,0,1.153.284,1.637,1.637,0,0,0,.925-.8,2.778,2.778,0,0,0,.332-1.225,4.284,4.284,0,0,0-.761-2.4,5.853,5.853,0,0,0-1.774-1.693,6.87,6.87,0,0,0-2.2-.861,12.7,12.7,0,0,0-4.4-.044,26.323,26.323,0,0,0-3.775.825,27.1,27.1,0,0,0-5.161,2.178c-.581.316-1.021.581-1.321.761l-.336.208-.12.064a.834.834,0,0,1,.108-.084l.328-.224c.288-.192.729-.464,1.305-.8a26.022,26.022,0,0,1,5.161-2.21,25.457,25.457,0,0,1,3.8-.853,12.659,12.659,0,0,1,4.46.024,6.958,6.958,0,0,1,2.262.881,6,6,0,0,1,1.838,1.746,4.46,4.46,0,0,1,.8,2.5,2.967,2.967,0,0,1-.36,1.321,1.842,1.842,0,0,1-1.049.917,1.409,1.409,0,0,1-1.349-.328,2.4,2.4,0,0,1-.677-1.2,3.98,3.98,0,0,1,.4-2.594,6.806,6.806,0,0,1,1.577-1.982,11.732,11.732,0,0,1,1.978-1.405,16.407,16.407,0,0,1,7.947-2.334,11.539,11.539,0,0,1,5.445,1.265A7.731,7.731,0,0,1,91.832,414.446Z" transform="translate(-48.237 -332.35)"/><path class="k" d="M56.936,331.1a5.858,5.858,0,0,0-11.434-.3c-.024.092-.048.188-.068.284-2.246,9.581,5.341,37.89,7.379,39.523s4.06,3.483,7.543,2.038c2.038-.845,23.2-19.545,23.2-19.545s4.892,4.688,6.526,4.28,4.748-5.2,4.748-5.2,3.027,4.536,3.407,4.6a1.137,1.137,0,0,0,1.2-1.629c-.4-.613-4.26-9.048-4.26-9.048s3.039-.328,2.426-1.349c0,0-.076-.937-2.13-.757s-2.014-2.166-5.837-1.942-11.718,1.2-22.82,9.721L61.668,355.4Z" transform="translate(-41.546 -280.98)"/><path class="l" d="M89.754,375.119l.128-.1.4-.292,1.5-1.125a59.563,59.563,0,0,1,5.949-3.747,39.233,39.233,0,0,1,10.009-3.867c1.009-.212,2.054-.4,3.139-.524.544-.06,1.093-.108,1.653-.148a7.23,7.23,0,0,1,1.71.076,4.493,4.493,0,0,1,1.637.637c.508.308.937.737,1.449,1a1.894,1.894,0,0,0,.8.212c.284,0,.6-.036.909-.024a2.8,2.8,0,0,1,.933.16.989.989,0,0,1,.689.7v-.04a.588.588,0,0,1,.08.432.7.7,0,0,1-.252.356,2.45,2.45,0,0,1-.729.368,8.433,8.433,0,0,1-1.6.34l.084-.14,2.714,5.873c.476,1,.949,2.03,1.465,3.027a1.647,1.647,0,0,1,.2.4,1.293,1.293,0,0,1,0,.464,1.325,1.325,0,0,1-.456.8,1.165,1.165,0,0,1-.877.268h-.116a.3.3,0,0,1-.084-.028l-.056-.04a1.639,1.639,0,0,1-.168-.164c-.1-.108-.2-.22-.284-.336-1.045-1.337-1.97-2.722-2.891-4.084h.172a34.9,34.9,0,0,1-2.354,3.179,12.81,12.81,0,0,1-1.349,1.405c-.124.1-.256.2-.38.3a4.547,4.547,0,0,1-.424.252,1.237,1.237,0,0,1-.989.08,6.441,6.441,0,0,1-1.706-.837c-.524-.34-1.021-.7-1.505-1.081-.961-.757-1.862-1.545-2.718-2.354h.128c-6.71,5.9-12.455,10.858-16.563,14.293-2.054,1.718-3.7,3.051-4.852,3.932-.577.44-1.029.769-1.345.973a2.646,2.646,0,0,1-.5.276,4.333,4.333,0,0,0,.484-.3c.308-.216.757-.544,1.325-.993,1.137-.893,2.77-2.242,4.8-3.972,4.088-3.459,9.817-8.436,16.515-14.349l.064-.056.064.06a34.953,34.953,0,0,0,2.71,2.334c.476.372.973.737,1.489,1.069a6.226,6.226,0,0,0,1.645.8c.6.224,1.137-.2,1.6-.6a13.136,13.136,0,0,0,1.325-1.381,35.007,35.007,0,0,0,2.338-3.159l.084-.132.088.128c.917,1.357,1.85,2.746,2.879,4.072q.136.168.276.324c.048.048.1.1.144.14l.032.024h0v0h.1a.957.957,0,0,0,.729-.22,1.025,1.025,0,0,0,.2-1.405c-.532-1.021-1-2.038-1.473-3.043l-2.71-5.881-.056-.124h.136a8.281,8.281,0,0,0,1.557-.332,2.218,2.218,0,0,0,.669-.328.52.52,0,0,0,.184-.252.4.4,0,0,0-.056-.284h0v-.028a.825.825,0,0,0-.564-.54,2.594,2.594,0,0,0-.865-.144c-.3,0-.589.028-.909.024a2.142,2.142,0,0,1-.9-.24c-.552-.284-.973-.713-1.461-1.013a4.4,4.4,0,0,0-1.569-.613,12.368,12.368,0,0,0-3.311.068,27.311,27.311,0,0,0-3.123.512,39.483,39.483,0,0,0-10.009,3.811,63.51,63.51,0,0,0-5.969,3.691l-1.513,1.1-.4.28Z" transform="translate(-64.499 -304.325)"/><path class="l" d="M81.555,405.186a1.756,1.756,0,0,1-.084-.3,5.424,5.424,0,0,1-.1-.837,8.528,8.528,0,0,1,1.469-5.277,6.177,6.177,0,0,1,.52-.665c.136-.144.216-.22.224-.212s-.252.36-.621.957a9.669,9.669,0,0,0-1.449,5.2C81.523,404.745,81.591,405.182,81.555,405.186Z" transform="translate(-63.334 -323.878)"/><path class="d" d="M46.522,311.61c-.2.132-7.242,2.238-8.351,9.46s-.456,19.8-.456,19.8l19.113-1.313-5.481-25.391Z" transform="translate(-37.05 -272.136)"/><path class="l" d="M158.519,395.845c-.032,0,.02-.26,0-.657a3.455,3.455,0,0,0-.4-1.485,3.519,3.519,0,0,0-1-1.169c-.32-.232-.556-.328-.544-.364a1.345,1.345,0,0,1,.629.244,3.119,3.119,0,0,1,1.1,1.2,3.058,3.058,0,0,1,.356,1.6A1.349,1.349,0,0,1,158.519,395.845Z" transform="translate(-108.435 -320.443)"/><path class="l" d="M162.9,391.419a4.432,4.432,0,0,0-1.954-3.059,1.137,1.137,0,0,1,.516.232,3.279,3.279,0,0,1,.961.977,3.244,3.244,0,0,1,.484,1.285A1.1,1.1,0,0,1,162.9,391.419Z" transform="translate(-111.062 -318.158)"/><path class="l" d="M165.83,384.6c0-.02.18.06.4.256a2.8,2.8,0,0,1,.9,2.05c0,.292-.052.468-.076.464a6.4,6.4,0,0,0-.356-1.5A6.61,6.61,0,0,0,165.83,384.6Z" transform="translate(-113.988 -315.899)"/><path class="b" d="M53.788,351.18a.269.269,0,0,1-.1,0l-.288-.032a10.182,10.182,0,0,0-1.113-.076,10.6,10.6,0,0,0-4,.741,10.137,10.137,0,0,0-4.672,3.707,5.473,5.473,0,0,0-1,3.319,3.691,3.691,0,0,0,.536,1.762,2.71,2.71,0,0,0,1.465,1.137,2.558,2.558,0,0,0,1.842-.088,2.094,2.094,0,0,0,1.121-1.353,3.387,3.387,0,0,0-.072-1.766,5.041,5.041,0,0,0-.761-1.541,7.639,7.639,0,0,0-5.064-2.995,7.754,7.754,0,0,0-4,.536,8.972,8.972,0,0,0-1,.5l-.248.152-.088.044a5.714,5.714,0,0,1,1.3-.769,7.631,7.631,0,0,1,4.052-.609,7.739,7.739,0,0,1,5.2,3.023,5.141,5.141,0,0,1,.8,1.6,3.571,3.571,0,0,1,.076,1.874,2.294,2.294,0,0,1-1.229,1.489,2.8,2.8,0,0,1-2,.1,2.931,2.931,0,0,1-1.565-1.241,3.868,3.868,0,0,1-.585-1.846,5.669,5.669,0,0,1,1.069-3.443,10.2,10.2,0,0,1,4.78-3.735,10.341,10.341,0,0,1,4.048-.681,7.608,7.608,0,0,1,1.5.188Z" transform="translate(-36.34 -295.747)"/><path class="b" d="M59.371,322.179a2.529,2.529,0,0,1-.484.224,4.467,4.467,0,0,1-.593.212,6.734,6.734,0,0,1-.8.224,8.7,8.7,0,0,1-.989.188c-.36.06-.745.08-1.153.108a13.315,13.315,0,0,1-2.642-.18,13.034,13.034,0,0,1-2.538-.753c-.372-.168-.729-.32-1.041-.5a8.816,8.816,0,0,1-.865-.52,7.61,7.61,0,0,1-.673-.488,4.567,4.567,0,0,1-.476-.4,2.554,2.554,0,0,1-.376-.376c.028-.036.577.5,1.6,1.145a8.892,8.892,0,0,0,.873.488,11.339,11.339,0,0,0,1.033.48,12.543,12.543,0,0,0,5.1.917c.4-.024.8-.036,1.137-.088s.681-.1.981-.16C58.655,322.448,59.355,322.139,59.371,322.179Z" transform="translate(-42.576 -277.116)"/><path class="c" d="M55.708,356.16a1.082,1.082,0,0,1,.044.192c.024.144.056.328.092.557.08.512.188,1.2.32,2.094.26,1.814.625,4.332,1.045,7.254v.108h-.1l-4.468.312-10.361.681-3.139.184-.857.04H38a1.28,1.28,0,0,1,.3-.044l.849-.076,3.139-.248,10.357-.745,4.464-.3-.092.112c-.4-2.927-.729-5.449-.969-7.262-.112-.881-.2-1.6-.264-2.1-.028-.232-.048-.4-.064-.564A.669.669,0,0,1,55.708,356.16Z" transform="translate(-37.335 -298.85)"/><g class="m" transform="translate(9.064 33.789)"><path d="M59.019,302.895c-.192.677.344,1.309.693,1.918a8.532,8.532,0,0,1,.769,3.931,27.408,27.408,0,0,0,1.133,7.318,12.55,12.55,0,0,0,4.044,6.081,8.246,8.246,0,0,0,6.966,1.633,6.172,6.172,0,0,0,4.608-5.2c.2-2.462-1.281-4.656-2.13-6.954a36.635,36.635,0,0,1-1.325-5.5,16.42,16.42,0,0,0-1.838-5.329,6.81,6.81,0,0,0-4.4-3.3,4.351,4.351,0,0,0-4.732,2.27" transform="translate(-58.979 -297.41)"/></g><path class="k" d="M81.93,228.519v2.126l-.14,31.872a6.85,6.85,0,0,0,7.114,6.65h0a7.211,7.211,0,0,0,7.383-6.806c.084-3.923.24-8.051.24-8.051s5.069-.749,6.234-7.327c.581-3.267.508-8.648.312-13.048a6.962,6.962,0,0,0-7.567-6.626Z" transform="translate(-63.594 -221.569)"/><path class="c" d="M128.559,252.833a.849.849,0,0,1-.833.841.8.8,0,0,1-.857-.781.845.845,0,0,1,.829-.837.8.8,0,0,1,.861.777Z" transform="translate(-90.626 -236.424)"/><path class="c" d="M126.915,249.476c-.108.108-.737-.38-1.649-.4s-1.6.428-1.681.316c-.048-.052.064-.248.356-.452a2.318,2.318,0,0,1,1.349-.4,2.25,2.25,0,0,1,1.309.448C126.875,249.224,126.967,249.424,126.915,249.476Z" transform="translate(-88.649 -234.315)"/><path class="c" d="M107.029,252.407a.845.845,0,0,1-.833.837.8.8,0,0,1-.857-.777.849.849,0,0,1,.829-.841.8.8,0,0,1,.861.781Z" transform="translate(-77.715 -236.166)"/><path class="c" d="M104.565,249.49c-.108.108-.741-.376-1.649-.4s-1.6.428-1.681.316c-.048-.052.064-.248.356-.456a2.35,2.35,0,0,1,1.349-.4,2.218,2.218,0,0,1,1.313.448C104.525,249.242,104.617,249.442,104.565,249.49Z" transform="translate(-75.247 -234.322)"/><path class="c" d="M117.084,256.54a6.057,6.057,0,0,1,1.481-.244c.236,0,.456-.06.5-.216a1.2,1.2,0,0,0-.14-.693c-.212-.569-.428-1.161-.657-1.782a30.365,30.365,0,0,1-1.461-4.656,30.954,30.954,0,0,1,1.83,4.528l.629,1.79a1.353,1.353,0,0,1,.1.917.589.589,0,0,1-.4.332,1.9,1.9,0,0,1-.4.048,6.254,6.254,0,0,1-1.481-.024Z" transform="translate(-84.583 -234.561)"/><path class="l" d="M105.418,291.064a16.755,16.755,0,0,1-8.808-2.514s2.062,4.568,8.672,4.068Z" transform="translate(-72.481 -258.308)"/><path class="l" d="M112.384,272.405a1.634,1.634,0,0,0-1.457-.637,1.5,1.5,0,0,0-1.045.536.949.949,0,0,0-.092,1.081,1.1,1.1,0,0,0,1.2.324,3.5,3.5,0,0,0,1.177-.673,1.037,1.037,0,0,0,.264-.264.316.316,0,0,0,0-.34" transform="translate(-80.307 -248.241)"/><path class="c" d="M110.57,269.36c.148,0,.132.981.969,1.7s1.886.625,1.89.765c0,.06-.236.188-.681.192a2.446,2.446,0,0,1-1.581-.585,2.122,2.122,0,0,1-.745-1.421C110.39,269.616,110.506,269.352,110.57,269.36Z" transform="translate(-80.759 -246.801)"/><path class="c" d="M104.089,240.926c-.1.244-1,.112-2.07.22s-1.942.4-2.078.16c-.06-.108.092-.336.444-.569a3.423,3.423,0,0,1,1.545-.512,3.5,3.5,0,0,1,1.6.22C103.932,240.614,104.129,240.81,104.089,240.926Z" transform="translate(-74.47 -229.321)"/><path class="c" d="M126.564,242.824c-.164.2-.8-.02-1.541-.044s-1.393.112-1.537-.1c-.06-.108.044-.312.324-.5a2.226,2.226,0,0,1,2.482.124C126.552,242.512,126.636,242.712,126.564,242.824Z" transform="translate(-88.586 -230.306)"/><path class="c" d="M75.262,222.895c1.786,2.326,0,5.657-2.026,7.795s-4.456,4.612-3.875,7.483c.677,3.331,5.261,5.425,4.616,8.76-.236,1.2-1.2,2.262-1.177,3.5,0,2.238,2.923,3.3,3.775,5.365,1.169,2.839-1.942,5.709-1.962,8.776,0,1.742.993,3.355,1.065,5.1.14,3.567-4.052,6.217-7.519,5.377s-5.873-4.22-6.658-7.715-.268-7.11.256-10.637c-.332,1.505-2.614,1.81-3.739.757a4.862,4.862,0,0,1-1.041-4.32c.593-3.823,3.067-7.078,4.224-10.766,1.013-3.227.985-6.67,1.409-10.009s1.425-6.854,3.964-9.088,6.958-2.55,9.052.1" transform="translate(-48.658 -218.095)"/><path class="j" d="M74.374,274.49a1.482,1.482,0,0,1,.084-.132c.06-.092.144-.22.252-.376a8.456,8.456,0,0,0,1.3-4.236,8.167,8.167,0,0,0-.649-3.535,17.734,17.734,0,0,0-2.426-3.667,18.6,18.6,0,0,1-1.413-2.034,8.034,8.034,0,0,1-.937-2.434,4.844,4.844,0,0,1,.224-2.758,3.915,3.915,0,0,1,.8-1.2,8.957,8.957,0,0,1,1.133-.929,5.969,5.969,0,0,0,2.054-2.03,4.264,4.264,0,0,0,.184-2.919c-.48-2-1.874-3.563-2.766-5.3a6.693,6.693,0,0,1-.829-2.766,6.057,6.057,0,0,1,.516-2.722,11.826,11.826,0,0,1,3.1-4c1.2-1.069,2.362-1.978,3.327-2.923a10.518,10.518,0,0,0,2.194-2.871,7,7,0,0,0,.753-2.618,4.852,4.852,0,0,0-.172-1.714c-.112-.4-.208-.568-.192-.577a3.164,3.164,0,0,1,.232.565,4.664,4.664,0,0,1,.212,1.73,6.834,6.834,0,0,1-.729,2.662,10.594,10.594,0,0,1-2.194,2.927c-.965.961-2.138,1.878-3.315,2.947a11.778,11.778,0,0,0-3.043,3.972,5.926,5.926,0,0,0-.5,2.634,6.574,6.574,0,0,0,.8,2.682c.448.857,1,1.677,1.533,2.538a9.849,9.849,0,0,1,1.257,2.8,4.476,4.476,0,0,1-.2,3.063,6.124,6.124,0,0,1-2.122,2.1,8.813,8.813,0,0,0-1.109.9,3.811,3.811,0,0,0-.777,1.133,4.684,4.684,0,0,0-.216,2.646,8.039,8.039,0,0,0,.9,2.4,18.723,18.723,0,0,0,1.4,2,17.662,17.662,0,0,1,2.422,3.715,8.447,8.447,0,0,1-.749,7.855c-.116.164-.212.28-.272.364A.8.8,0,0,1,74.374,274.49Z" transform="translate(-56.81 -218.845)"/><path class="c" d="M147.931,369.725l-15.174,26.5-21.487.745v2.362h62.772l17.083-27.985a1.6,1.6,0,0,0-1.357-2.4h-40.46a1.6,1.6,0,0,0-1.377.784Z" transform="translate(-81.271 -306.513)"/><path class="h" d="M244.5,400.448c-.953,1.481-2.4,2.238-3.275,1.685s-.781-2.2.172-3.679,2.4-2.238,3.275-1.685S245.456,398.967,244.5,400.448Z" transform="translate(-158.839 -323.093)"/></g><g transform="translate(176.086 104.56)"><path class="c" d="M436.683,291.108a1.2,1.2,0,0,0-.088-.2l-.276-.593a15.178,15.178,0,0,1-.8-2.366,20.957,20.957,0,0,1,.072-9.144,48.6,48.6,0,0,1,1.694-6.141c.721-2.182,1.553-4.5,2.234-6.994a27.028,27.028,0,0,0,1.1-8.039,31.408,31.408,0,0,0-1.87-8.508,41.486,41.486,0,0,1-2.166-8.379A12.772,12.772,0,0,1,438.124,233c1.225-2.258,2.766-4.188,3.92-6.19a21.5,21.5,0,0,0,2.358-5.949,22.111,22.111,0,0,0,.148-9.208,16.988,16.988,0,0,0-.961-3.259,1.518,1.518,0,0,0,.056.216c.048.156.112.364.2.625a24.191,24.191,0,0,1,.6,2.438,22.372,22.372,0,0,1-.24,9.148,21.5,21.5,0,0,1-2.362,5.873c-1.153,1.978-2.7,3.9-3.951,6.186a13.028,13.028,0,0,0-1.6,7.9,41.6,41.6,0,0,0,2.17,8.443,31.777,31.777,0,0,1,1.866,8.427,27,27,0,0,1-1.077,7.955c-.669,2.49-1.493,4.8-2.2,6.99a48.538,48.538,0,0,0-1.669,6.178,20.607,20.607,0,0,0,.024,9.208,13.468,13.468,0,0,0,.873,2.362l.3.581A.932.932,0,0,0,436.683,291.108Z" transform="translate(-416.006 -208.39)"/><path class="n" d="M445.178,241.4s2.342-7.491-1.862-11.879a.256.256,0,0,0-.444.128C442.647,230.886,442.367,234.654,445.178,241.4Z" transform="translate(-420.726 -221.009)"/><path class="c" d="M445.32,235.88a6.879,6.879,0,0,0,.16,1.385c.152.949.332,2.07.533,3.3s.372,2.354.524,3.307a7.343,7.343,0,0,0,.248,1.365,5.6,5.6,0,0,0-.04-1.393c-.08-.857-.228-2.034-.444-3.327s-.436-2.454-.617-3.295A6.279,6.279,0,0,0,445.32,235.88Z" transform="translate(-422.274 -224.874)"/><path class="n" d="M430.69,289.045s-1.433-7.719-7.206-9.609a.256.256,0,0,0-.332.32C423.519,280.934,425.033,284.4,430.69,289.045Z" transform="translate(-408.972 -250.983)"/><path class="c" d="M427.89,284.39a7.114,7.114,0,0,0,.8,1.145c.58.773,1.261,1.674,2,2.67l2,2.678a7.642,7.642,0,0,0,.861,1.093,5.747,5.747,0,0,0-.689-1.2c-.468-.721-1.153-1.69-1.946-2.734s-1.533-1.966-2.09-2.622A5.893,5.893,0,0,0,427.89,284.39Z" transform="translate(-411.822 -253.963)"/><path class="n" d="M439.116,334.834s.869-7.8-4.1-11.306a.26.26,0,0,0-.4.208C434.624,325,435.068,328.749,439.116,334.834Z" transform="translate(-415.857 -277.407)"/><path class="c" d="M437.93,329.49a6.848,6.848,0,0,0,.428,1.325c.332.909.721,1.97,1.153,3.143s.8,2.238,1.145,3.147a7.742,7.742,0,0,0,.5,1.293,5.606,5.606,0,0,0-.3-1.357c-.24-.829-.613-1.954-1.069-3.2s-.9-2.33-1.237-3.119A6.168,6.168,0,0,0,437.93,329.49Z" transform="translate(-417.842 -281.007)"/><path class="n" d="M427.672,383.713s.593-7.831-4.492-11.154a.26.26,0,0,0-.4.224C422.832,374.04,423.408,377.775,427.672,383.713Z" transform="translate(-408.757 -306.808)"/><path class="c" d="M426.29,378.44a6.461,6.461,0,0,0,.464,1.309l1.265,3.1c.472,1.161.9,2.21,1.257,3.1a7.752,7.752,0,0,0,.552,1.277,5.8,5.8,0,0,0-.356-1.349c-.268-.8-.681-1.93-1.181-3.143s-.981-2.294-1.345-3.067a6.37,6.37,0,0,0-.657-1.229Z" transform="translate(-410.862 -310.359)"/><path class="d" d="M457.24,227.941s6.958-3.635,7.094-9.709a.26.26,0,0,0-.4-.224C462.893,218.721,460.03,221.183,457.24,227.941Z" transform="translate(-429.421 -214.133)"/><path class="c" d="M462.967,223.84a6.728,6.728,0,0,0-.865,1.089c-.569.781-1.229,1.7-1.962,2.71s-1.4,1.93-1.97,2.706a7.608,7.608,0,0,0-.8,1.141,5.573,5.573,0,0,0,.957-1.013c.549-.661,1.277-1.6,2.042-2.662s1.429-2.042,1.894-2.766A6.041,6.041,0,0,0,462.967,223.84Z" transform="translate(-429.499 -217.655)"/><path class="n" d="M438.57,268.765s7.166-3.2,7.675-9.26a.26.26,0,0,0-.4-.248C444.776,259.93,441.765,262.2,438.57,268.765Z" transform="translate(-418.226 -238.867)"/><path class="c" d="M444.765,264.93a6.515,6.515,0,0,0-.933,1.033l-2.122,2.586-2.13,2.582a7.34,7.34,0,0,0-.861,1.093,6,6,0,0,0,1.017-.957c.589-.625,1.373-1.517,2.2-2.53s1.549-1.954,2.058-2.646a6.264,6.264,0,0,0,.769-1.161Z" transform="translate(-418.316 -242.294)"/><path class="n" d="M448.856,310.08s4.92-6.117,2.614-11.734a.26.26,0,0,0-.46-.044C450.349,299.37,448.708,302.777,448.856,310.08Z" transform="translate(-424.388 -262.233)"/><path class="c" d="M451.1,304.81a7.132,7.132,0,0,0-.36,1.345c-.2.941-.444,2.046-.709,3.271s-.512,2.326-.721,3.267a7.782,7.782,0,0,0-.268,1.361,5.682,5.682,0,0,0,.468-1.309c.24-.825.532-1.978.8-3.259s.488-2.446.625-3.295A6.3,6.3,0,0,0,451.1,304.81Z" transform="translate(-424.504 -266.208)"/><path class="n" d="M436.7,366.176s7.11-3.323,7.515-9.384a.26.26,0,0,0-.4-.244C442.753,357.216,439.783,359.554,436.7,366.176Z" transform="translate(-417.105 -297.207)"/><path class="c" d="M442.8,362.26a6.99,6.99,0,0,0-.917,1.049l-2.078,2.626-2.066,2.626a7.464,7.464,0,0,0-.841,1.109,5.885,5.885,0,0,0,1-.973c.581-.633,1.349-1.541,2.162-2.57s1.517-1.978,2-2.678A6.468,6.468,0,0,0,442.8,362.26Z" transform="translate(-417.225 -300.657)"/><path class="c" d="M401.32,303.57v.673c.02.472.048,1.109.084,1.906.088,1.673.216,4,.372,6.806h0a26.211,26.211,0,0,0,3.9,9.044c1.425,2.254,2.919,4.3,4.208,6.206a43.837,43.837,0,0,1,3.155,5.2,21.857,21.857,0,0,1,1.477,3.827c.124.468.216.833.272,1.085a1.958,1.958,0,0,0,.1.376,2.328,2.328,0,0,0-.048-.4c-.032-.256-.108-.629-.22-1.1a20.366,20.366,0,0,0-1.4-3.887,41.562,41.562,0,0,0-3.119-5.277c-1.281-1.918-2.767-3.968-4.184-6.21a26.7,26.7,0,0,1-3.9-8.936h0c-.2-2.8-.356-5.121-.476-6.806-.064-.8-.116-1.425-.152-1.9a3.729,3.729,0,0,0-.052-.5A.716.716,0,0,0,401.32,303.57Z" transform="translate(-395.889 -265.464)"/><path class="o" d="M410.191,330.019s-3.011-7.246.777-12.011a.26.26,0,0,1,.456.088C411.76,319.321,412.381,323.049,410.191,330.019Z" transform="translate(-400.528 -274.061)"/><path class="c" d="M412.205,324.5a6.231,6.231,0,0,0-.236,1.373c-.108.853-.228,2.034-.32,3.339s-.136,2.494-.136,3.351a5.607,5.607,0,0,0,.084,1.393,7.775,7.775,0,0,0,.12-1.385c.064-.961.14-2.09.224-3.339s.168-2.378.232-3.339A6.708,6.708,0,0,0,412.205,324.5Z" transform="translate(-401.994 -278.015)"/><path class="o" d="M434.164,373.856s-2.4-7.471,1.746-11.895a.26.26,0,0,1,.448.124C436.594,363.319,436.906,367.086,434.164,373.856Z" transform="translate(-415.169 -300.427)"/><path class="c" d="M436.392,368.33a6.081,6.081,0,0,0-.348,1.349c-.176.841-.4,2-.589,3.3s-.34,2.474-.4,3.331a5.876,5.876,0,0,0-.028,1.393,7.261,7.261,0,0,0,.236-1.369c.14-.953.308-2.074.492-3.307s.36-2.358.5-3.311A7.08,7.08,0,0,0,436.392,368.33Z" transform="translate(-416.084 -304.297)"/><path class="d" d="M393.582,309.855s-6.43-4.5-5.781-10.541a.26.26,0,0,1,.432-.172C389.166,300,391.689,302.813,393.582,309.855Z" transform="translate(-387.755 -262.769)"/><g class="p" transform="translate(0 36.306)"><path class="o" d="M393.582,309.855s-6.43-4.5-5.781-10.541a.26.26,0,0,1,.432-.172C389.166,300,391.689,302.813,393.582,309.855Z" transform="translate(-387.755 -299.075)"/></g><path class="c" d="M390.78,305.33a6.005,6.005,0,0,0,.533,1.285c.368.777.9,1.838,1.521,2.991s1.2,2.178,1.682,2.9a5.831,5.831,0,0,0,.821,1.129,7.556,7.556,0,0,0-.641-1.233l-1.6-2.939-1.6-2.943A6.978,6.978,0,0,0,390.78,305.33Z" transform="translate(-389.569 -266.519)"/><path class="d" d="M413.963,362.415s-7.759-1.2-9.837-6.918a.26.26,0,0,1,.312-.34C405.668,355.489,409.155,356.914,413.963,362.415Z" transform="translate(-397.563 -296.392)"/><g class="p" transform="translate(6.548 58.755)"><path class="o" d="M413.963,362.415s-7.759-1.2-9.837-6.918a.26.26,0,0,1,.312-.34C405.668,355.489,409.155,356.914,413.963,362.415Z" transform="translate(-404.111 -355.148)"/></g><path class="c" d="M409.24,359.8a6.273,6.273,0,0,0,1.049.917c.669.536,1.6,1.253,2.682,2s2.054,1.417,2.8,1.866a5.514,5.514,0,0,0,1.233.653,7.94,7.94,0,0,0-1.117-.825l-2.742-1.918-2.726-1.942a6.924,6.924,0,0,0-1.181-.753Z" transform="translate(-400.638 -299.182)"/><path class="i" d="M430.521,408.96,428.3,423.553l-8.888-.016L416.42,408.96Z" transform="translate(-404.944 -328.661)"/><path class="c" d="M419.67,417.652a.314.314,0,0,0,.072.056,2.42,2.42,0,0,0,.236.132,3.171,3.171,0,0,0,.993.3,3.644,3.644,0,0,0,1.633-.152,3.435,3.435,0,0,0,1.758-1.277,2.483,2.483,0,0,0,.4-1.221,1.333,1.333,0,0,0-.6-1.253,1.449,1.449,0,0,0-1.489.12,2.17,2.17,0,0,0-.849,1.341,5.665,5.665,0,0,0-.112,1.649,5.458,5.458,0,0,0,.36,1.686A3.731,3.731,0,0,0,423.1,420.5a2.855,2.855,0,0,0,1.71.713,3.1,3.1,0,0,0,1.782-.516,5.344,5.344,0,0,0,1.325-1.2,2.918,2.918,0,0,0,.673-1.6,1.858,1.858,0,0,0-.633-1.545,1.445,1.445,0,0,0-1.573-.1,1.693,1.693,0,0,0-.909,1.2,2.278,2.278,0,0,0,1.125,2.31,3.142,3.142,0,0,0,2.146.312,4.862,4.862,0,0,0,1.525-.6,8.261,8.261,0,0,0,.857-.576,1.6,1.6,0,0,0,.276-.236,2.7,2.7,0,0,0-.3.2c-.2.128-.484.324-.873.536a4.9,4.9,0,0,1-1.505.544,3,3,0,0,1-2.034-.324,2.106,2.106,0,0,1-1.013-2.122,1.469,1.469,0,0,1,.8-1.037,1.2,1.2,0,0,1,1.337.08,1.637,1.637,0,0,1,.541,1.357,2.674,2.674,0,0,1-.629,1.469,5.075,5.075,0,0,1-1.265,1.141,2.915,2.915,0,0,1-1.642.48,2.647,2.647,0,0,1-1.561-.657,3.475,3.475,0,0,1-.969-1.373,5.3,5.3,0,0,1-.348-1.6,5.605,5.605,0,0,1,.1-1.581,1.958,1.958,0,0,1,.753-1.2,1.233,1.233,0,0,1,1.269-.124,1.137,1.137,0,0,1,.517,1.069,2.335,2.335,0,0,1-.368,1.137,3.335,3.335,0,0,1-1.658,1.241,3.635,3.635,0,0,1-1.541.16A4.2,4.2,0,0,1,419.67,417.652Z" transform="translate(-406.893 -331.732)"/></g></g></svg>