<svg xmlns="http://www.w3.org/2000/svg" width="211.147" height="184.342" viewBox="0 0 211.147 184.342"><defs><style>.a{fill:#e0e0e0;}.b{fill:#ebebeb;}.c{fill:#fff;}.d{fill:#263238;}.e{fill:#ffbe9d;}.f{fill:#eb996e;}.g{fill:#455a64;}.h{fill:#0899ba;}.i{opacity:0.3;}.j{opacity:0.2;}.k{fill:#4fc66a;}</style></defs><g transform="translate(-304 -200.036)"><g transform="translate(304 200.036)"><path class="a" d="M47.826,142.977c-.835-2.962-4.686-2.676-4.686-2.676l.1,2.064c2.227-.386,3.629,2.223,3.629,2.223Z" transform="translate(-23.571 -76.654)"/><path class="a" d="M176.657,64.338c4.468,1.361,7.258-3.8,7.258-3.8l-2.722-1.547c-1.329,3.175-5.793,2.79-5.793,2.79Z" transform="translate(-95.835 -32.231)"/><path class="a" d="M254.98,129.291c-.862-2.463-4.11-2.019-4.11-2.019l.2,1.742c1.864-.454,3.175,1.692,3.175,1.692Z" transform="translate(-137.07 -69.522)"/><path class="a" d="M142.05,2.051c-.862-2.463-4.11-2.019-4.11-2.019l.2,1.737c1.864-.454,3.175,1.692,3.175,1.692Z" transform="translate(-75.367 -0.001)"/><path class="b" d="M56.66,71.53c-.862-2.468-4.11-2.019-4.11-2.019l.2,1.751c1.864-.454,3.175,1.692,3.175,1.692Z" transform="translate(-28.712 -37.963)"/><path class="b" d="M40.4,23.24c-2.577.426-2.722,3.7-2.722,3.7l1.746.109c-.113-1.914,2.218-2.831,2.218-2.831Z" transform="translate(-20.588 -12.698)"/><path class="b" d="M1.261,185.788c4.468,1.361,7.258-3.8,7.258-3.8L5.8,180.44C4.464,183.6,0,183.23,0,183.23Z" transform="translate(0 -98.589)"/><path class="a" d="M280.172,67.848c.3-2.073-2.164-2.958-2.164-2.958L277.5,66.2c1.488.377,1.624,2.377,1.624,2.377Z" transform="translate(-151.62 -35.455)"/><path class="b" d="M249.4,21.31c-1.742,1.157-.753,3.588-.753,3.588l1.311-.5c-.712-1.361.685-2.794.685-2.794Z" transform="translate(-135.7 -11.644)"/><rect class="c" width="110.616" height="86.596" transform="translate(6 44.305)"/><path class="d" d="M124.462,184.124c0-.816-.036-34.357-.1-86.6l.1.1-110.593.018h0l.118-.118v86.6l-.1-.109,110.616.109-110.629.1H13.76V97.41H124.553v.1C124.5,149.767,124.462,183.308,124.462,184.124Z" transform="translate(-7.518 -53.223)"/><path class="d" d="M124.9,116.178c0,.064-24.7.118-55.165.118s-55.174-.054-55.174-.118,24.7-.118,55.174-.118S124.9,116.114,124.9,116.178Z" transform="translate(-7.955 -63.413)"/><circle class="d" cx="0.644" cy="0.644" r="0.644" transform="translate(9.599 47.77)"/><circle class="d" cx="0.644" cy="0.644" r="0.644" transform="translate(11.994 47.77)"/><path class="d" d="M32.918,105.96a.644.644,0,1,1-.64-.64A.644.644,0,0,1,32.918,105.96Z" transform="translate(-17.282 -57.545)"/><path class="e" d="M414.307,214.8s5.5-3.348,6.745-2.363a7.858,7.858,0,0,1,2.386,3.815s2.908-11.091,5.684-10.669c1.592.24.812,1.483.1,3.039a60,60,0,0,0-1.815,6.75s5.262-6.242,6.8-6.128c1.2.086,1.361,1.139-.354,2.826s-4.577,7-4.577,7,3.683-3.434,5.208-3.457c1.216,0,2,.83.426,2.2s-3.947,2.386-5.217,4.854c-1.565,3.044-4.9,10.628-4.9,10.628l-11.667-4.132s-1.9-7.739-1.978-9.621c0,0,.159-3.974.141-4.681s1.851-.907,2.422.454.308,2.785.54,3.688a3.458,3.458,0,0,0,1.306,2.146c.662.4,2.341.431,2.772-.068a7.2,7.2,0,0,0,1.061-2.849,12.919,12.919,0,0,0-.032-2.3S414.543,217.911,414.307,214.8Z" transform="translate(-224.643 -112.322)"/><path class="e" d="M104.58,293.527l-8.111-3.035s-8.251-4.836-9.785-3.107a1.692,1.692,0,0,0-2.359.962c-.417,1.012.966,2.472.966,2.472s-.454.454.254,1.923,8.519,6.151,8.519,6.151,10.188,5.557,14.307,8.215l7.108-9.667-.989-.372s-.585-4.817-2.558-6.1a18.879,18.879,0,0,1-5.3-6.664c-.567-1.483-3.307-.794-2.849,2.268s2.849,3.874,2.622,5.924S104.58,293.527,104.58,293.527Z" transform="translate(-46.031 -154.928)"/><path class="f" d="M93.3,303.35a32.807,32.807,0,0,1-3.525-1.814,34.606,34.606,0,0,1-3.416-2.046,33.12,33.12,0,0,1,3.529,1.842A34.84,34.84,0,0,1,93.3,303.35Z" transform="translate(-47.185 -163.635)"/><path class="f" d="M99.041,296.979a10.629,10.629,0,0,1-1.456-.581c-.907-.386-2.1-.939-3.42-1.61s-2.472-1.361-3.284-1.878c-.4-.268-.726-.49-.939-.658a1.788,1.788,0,0,1-.322-.272,13.607,13.607,0,0,1,1.361.789c.826.49,1.991,1.139,3.3,1.814s2.513,1.247,3.379,1.674A9.709,9.709,0,0,1,99.041,296.979Z" transform="translate(-48.966 -159.532)"/><path class="f" d="M105.643,305.487a4.329,4.329,0,0,1-.721-.39l-1.91-1.139h0v-.027a27.013,27.013,0,0,0-1.361-2.636,6.438,6.438,0,0,0-1.03-1.361,1.306,1.306,0,0,0-1.6-.122.762.762,0,0,0-.254.236.25.25,0,0,1,0,.054l.032.1a.651.651,0,0,0,.068.2c.1.272.209.54.313.8l.621,1.511c.4.962.771,1.846,1.093,2.617v-.023l1.629,1.91.454.531c.1.122.15.191.141.2a.927.927,0,0,1-.177-.163l-.454-.5-1.692-1.86h0c-.34-.758-.721-1.638-1.134-2.6l-.635-1.511c-.1-.263-.213-.531-.313-.807-.027-.068-.054-.136-.077-.209l-.032-.109a.815.815,0,0,1-.027-.163.544.544,0,0,1,.168-.24,1.209,1.209,0,0,1,.2-.145,1.588,1.588,0,0,1,.975-.254,1.551,1.551,0,0,1,.907.395A6.547,6.547,0,0,1,101.9,301.2a24.164,24.164,0,0,1,1.361,2.681l-.032-.036,1.869,1.207A5.175,5.175,0,0,1,105.643,305.487Z" transform="translate(-53.862 -163.576)"/><path class="f" d="M124.235,311.9a5.442,5.442,0,0,1-1-.245,9.671,9.671,0,0,0-2.4-.422,4.382,4.382,0,0,0-2.313.563,8.384,8.384,0,0,0-.8.617,1.869,1.869,0,0,1,.708-.758,4.151,4.151,0,0,1,2.409-.662,8,8,0,0,1,2.44.5A3.947,3.947,0,0,1,124.235,311.9Z" transform="translate(-64.325 -169.921)"/><path class="f" d="M129.827,308.286c.05.041-.15.395-.345.844s-.322.835-.39.821a1.415,1.415,0,0,1,.172-.907C129.5,308.554,129.777,308.25,129.827,308.286Z" transform="translate(-70.525 -168.44)"/><path class="d" d="M233.607,154.438c.563-3.82,5.013-9.3,8.95-9.3a10.175,10.175,0,0,1-.086-11.182c1.52-2.268,3.974-3.947,4.99-6.469,1.175-2.849.272-6.074.386-9.145.163-4.5,2.5-8.619,4.786-12.52,2.087-3.579,4.631-7.5,8.741-8.383,2.6-.553,5.294.268,7.734,1.306A41.9,41.9,0,0,1,292.987,126.3c.749,2.894,1.247,6.029,3.266,8.27,2.137,2.372,5.9,3.656,6.528,6.759.454,2.227-.971,4.464-.758,6.723.181,1.892,3.729,7.412,4.536,9.136,1.406,2.971.907,6.178-.535,9.14a14.009,14.009,0,0,1-8.324,6.646l-36.2-12.062c-3.407,1.937-6.8,9.435-10.705,9.9s-8.682,2.164-12.443-1.955A19.379,19.379,0,0,1,233.607,154.438Z" transform="translate(-127.573 -53.14)"/><path class="d" d="M354.786,126.466c4.418,5.77.422,10.3,2.082,12.883a12.451,12.451,0,0,0,4.795,3.865,18.624,18.624,0,0,1,5.13,3.479c1.388,1.533,2.132,3.838,1.2,5.675,3.262,1.216,4.727,5.371,3.529,8.583s-4.477,5.375-7.9,6.015l-14.933-4.491-3.28-19.052,1.629-27.362" transform="translate(-188.724 -63.413)"/><path class="g" d="M370.12,186.76a2.3,2.3,0,0,1,.29.127,9.186,9.186,0,0,1,.816.422,11.018,11.018,0,0,1,2.617,2.182,12.165,12.165,0,0,1,1.393,1.937,12.348,12.348,0,0,1,1.089,2.54,11,11,0,0,1,.041,6.351l-.054-.136a10.947,10.947,0,0,1,2.427,1.846A11.341,11.341,0,0,1,382,208.674a10.887,10.887,0,0,1-1.071,5.974,11.259,11.259,0,0,1-2.45,3.3,8.658,8.658,0,0,1-.871.7,2.207,2.207,0,0,1-.322.218,2.348,2.348,0,0,1,.295-.254,10.929,10.929,0,0,0,.835-.735,11.6,11.6,0,0,0,2.363-3.307,10.787,10.787,0,0,0,1-5.874,11.159,11.159,0,0,0-3.207-6.5,10.624,10.624,0,0,0-2.372-1.814l-.082-.045.027-.091a10.887,10.887,0,0,0,0-6.233A12.213,12.213,0,0,0,375.1,191.5a12.047,12.047,0,0,0-1.361-1.923,11.194,11.194,0,0,0-2.545-2.214c-.327-.222-.612-.345-.789-.454a2.038,2.038,0,0,1-.281-.154Z" transform="translate(-202.225 -102.042)"/><path class="h" d="M197.486,230.26s-6.673,2.028-9.009,5.443c-1.656,2.4-18.6,39.089-18.6,39.089l-25.711-7.712L135,279.188l28.61,15.877a17.424,17.424,0,0,0,17.034-.077h0a17.437,17.437,0,0,0,6.868-7.1l7.258-13.935Z" transform="translate(-73.761 -125.809)"/><path class="h" d="M255.866,302.251l4.015-17.306-3.044-12.565c-1.955-6.469-3.629-17.006-1.506-25.5l7.113-24.409,7.816-3.6L288.15,215.8c.69.231,18.712,5.321,18.712,5.321a27.217,27.217,0,0,1,3.493.975l2.069,13.364-6.215,22.023-2.722,21.946,5.942,22.822Z" transform="translate(-138.967 -117.909)"/><path class="e" d="M280.291,223.9l5.189-2.323,23.384.322,5.53,3.212s-19.315,21.32-24.164,22.028C278.032,248.915,280.291,223.9,280.291,223.9Z" transform="translate(-153.055 -121.067)"/><path class="h" d="M366.308,229.27s3.507.785,6.487,7.194,7.857,24.232,7.857,24.232l2.078-18.893,16.906,1.86-3.252,45.149s-5.979,8.678-15.99,7.879-22.713-32.439-22.713-32.439Z" transform="translate(-195.428 -125.269)"/><path class="d" d="M402.545,298.86a.4.4,0,0,1,0-.109v-.318c0-.3.041-.712.073-1.229.064-1.071.191-2.608.367-4.514.354-3.806,1-9.05,1.787-14.824s1.465-11.014,1.855-14.811c.2-1.9.354-3.438.454-4.5.05-.517.091-.907.118-1.225a2.477,2.477,0,0,1,.036-.318.308.308,0,0,1,.023-.109.422.422,0,0,1,0,.109v.322c0,.3-.045.712-.077,1.229-.064,1.066-.19,2.608-.367,4.509-.354,3.806-1,9.05-1.787,14.829s-1.461,11.009-1.855,14.811c-.2,1.9-.349,3.438-.454,4.5-.05.517-.086.907-.118,1.225a2.294,2.294,0,0,1-.036.318A.419.419,0,0,1,402.545,298.86Z" transform="translate(-219.94 -140.365)"/><path class="d" d="M210.867,338.363a1.311,1.311,0,0,1-.186-.336,8.925,8.925,0,0,1-.39-.975,14.516,14.516,0,0,1-.667-6.841,10.068,10.068,0,0,1,.2-1.034,1.588,1.588,0,0,1,.118-.367c.041,0-.064.549-.15,1.42A17.21,17.21,0,0,0,210.45,337C210.7,337.842,210.9,338.35,210.867,338.363Z" transform="translate(-114.454 -179.655)"/><path class="d" d="M214.338,338.048a1.692,1.692,0,0,1-.295-.34,10.732,10.732,0,0,1-.708-1,17.479,17.479,0,0,1-1.76-3.629,17.137,17.137,0,0,1-.876-3.942,11.793,11.793,0,0,1-.068-1.225,1.588,1.588,0,0,1,.023-.454c.041,0,.068.635.209,1.651a20.24,20.24,0,0,0,2.613,7.512C214,337.5,214.369,338.025,214.338,338.048Z" transform="translate(-115.081 -178.917)"/><path class="d" d="M257.347,261.87a2.722,2.722,0,0,1-.086.367c-.073.259-.168.6-.29,1.034-.259.907-.626,2.218-1.08,3.81a84.339,84.339,0,0,0-2.685,12.738,31.9,31.9,0,0,0-.1,7.149,31.521,31.521,0,0,0,1.193,5.72c.454,1.6.907,2.871,1.238,3.751.15.422.268.762.358,1.012a1.787,1.787,0,0,1,.109.363,3.717,3.717,0,0,1-.154-.345l-.4-1c-.336-.871-.812-2.141-1.316-3.738A29.081,29.081,0,0,1,252.97,279.8a78.308,78.308,0,0,1,2.763-12.765c.454-1.6.871-2.894,1.152-3.783.136-.454.249-.771.331-1.025A1.968,1.968,0,0,1,257.347,261.87Z" transform="translate(-138.072 -143.08)"/><path class="d" d="M358.842,275.189a.453.453,0,0,1-.064-.109l-.159-.336-.585-1.3c-.254-.567-.572-1.252-.907-2.064s-.7-1.751-1.111-2.776-.78-2.186-1.22-3.411l-.6-1.932c-.1-.331-.2-.667-.308-1.012s-.186-.694-.277-1.048a46.127,46.127,0,0,1-1.6-9.395,27.141,27.141,0,0,1,.975-9.481,16.784,16.784,0,0,1,3.742-6.8,13.2,13.2,0,0,1,4.223-3.1,9.943,9.943,0,0,1,1.338-.494l.358-.1a.454.454,0,0,1,.122-.027.382.382,0,0,1-.118.05l-.349.122a11.485,11.485,0,0,0-1.316.535,13.368,13.368,0,0,0-4.137,3.125,16.784,16.784,0,0,0-3.656,6.732,27.171,27.171,0,0,0-.953,9.39,47.212,47.212,0,0,0,1.574,9.354q.136.531.272,1.048l.3,1.007c.2.662.395,1.306.585,1.928.431,1.229.8,2.382,1.193,3.416s.758,1.964,1.075,2.785.635,1.506.871,2.078l.549,1.315.136.345A.454.454,0,0,1,358.842,275.189Z" transform="translate(-192.29 -126.651)"/><g class="i" transform="translate(158.62 128.089)"><path d="M351.183,282.37c-2.209,10.456-2.236,21.211,1.565,31.2.222.581,1.1,2.64,1.715,2.672.785.036,1.157-.939,1.293-1.715.281-1.592.454-4.21.73-5.8.349-1.991.826-6.6.826-6.6s-1.815-4.182-2.631-6.428a63.957,63.957,0,0,1-3.452-12.987" transform="translate(-349.674 -282.37)"/></g><path class="d" d="M315.13,371.66a1.306,1.306,0,0,1-.172.277l-.544.753-.4.544c-.15.2-.331.395-.517.612a18.121,18.121,0,0,1-1.325,1.438l-.812.794c-.286.277-.612.526-.934.8a26.775,26.775,0,0,1-2.168,1.647,27.915,27.915,0,0,1-11.531,4.5,26.047,26.047,0,0,1-2.722.254c-.426,0-.839.05-1.234.041l-1.139-.036a17.708,17.708,0,0,1-1.946-.163c-.286-.032-.553-.054-.794-.1l-.662-.132-.907-.19a1.411,1.411,0,0,1-.313-.082,1.554,1.554,0,0,1,.322.036l.907.145.662.109c.245.036.513.05.794.077.572.045,1.22.141,1.941.132h1.13c.39,0,.8-.036,1.22-.054a22.592,22.592,0,0,0,2.685-.277,30.786,30.786,0,0,0,5.97-1.6,31.139,31.139,0,0,0,5.475-2.858,25.569,25.569,0,0,0,2.164-1.615c.322-.272.653-.517.939-.785l.816-.78c.54-.481.953-.989,1.361-1.406.191-.213.376-.408.531-.594l.413-.531c.24-.3.431-.544.576-.73a2.432,2.432,0,0,1,.213-.227Z" transform="translate(-156.816 -203.067)"/><path class="d" d="M332.758,356.41a1.813,1.813,0,0,1-.059.494,11.925,11.925,0,0,1-.318,1.325,15.787,15.787,0,0,1-4.827,7.448,11.6,11.6,0,0,1-1.08.83,2.068,2.068,0,0,1-.426.259c-.023-.036.553-.454,1.4-1.216a17.61,17.61,0,0,0,2.858-3.38,17.84,17.84,0,0,0,1.919-3.992C332.581,357.1,332.717,356.4,332.758,356.41Z" transform="translate(-178.146 -194.735)"/><path class="d" d="M265.942,107.24c.177,2.4-1.411,4.536-3.008,6.351s-3.379,3.683-3.729,6.069c-.612,4.228,3.529,8.165,2.676,12.339-.454,2.245-2.3,4.046-2.622,6.314-.318,2.191.857,4.337,2.313,6.006s3.144,1.424,4.432,3.225a18.077,18.077,0,0,0,5.584,4.99c4.641,2.54,10.211-1.134,12.447-1.814" transform="translate(-141.59 -58.594)"/><path class="d" d="M309.127,103.357c2.137-.93,2.3-8.619-3.057-9.481a14.557,14.557,0,0,1-5.756-2.622c-1.6-1.08-2.078-3.815-3.434-5.189a13.427,13.427,0,0,0-22.581,6.16c-.78,3.1-.249,6.777,2.2,8.841,2.84,2.391,7.054,1.86,10.692,1.116s7.761-1.479,10.8.658c1.815,1.288,2.885,3.389,4.005,5.326s2.527,3.924,4.645,4.654c0,0,1.61,3.792.295,6.428s1.547-1.86,1.547-1.86,5.226-9.29.644-14.031" transform="translate(-149.688 -44.841)"/><path class="e" d="M279.412,169.879c-.027-4.99,0-19.052,0-19.029s-7.947-1.361-9.571-11.713c-.807-5.162-.531-13.609-.077-20.535.4-6.224,4.536-13.849,10.746-13.155l19.352,4.935a3.629,3.629,0,0,1,3.257,3.706h0l-1.179,48.084Z" transform="translate(-147.154 -57.59)"/><path class="d" d="M277.549,146.124a1.329,1.329,0,0,0,1.279,1.361,1.275,1.275,0,0,0,1.361-1.2,1.329,1.329,0,0,0-1.279-1.361,1.275,1.275,0,0,0-1.361,1.2Z" transform="translate(-151.647 -79.183)"/><path class="d" d="M274.284,142.533c.163.172,1.175-.572,2.608-.562s2.477.726,2.636.549c.073-.077-.1-.39-.549-.726a3.683,3.683,0,0,0-2.109-.653,3.5,3.5,0,0,0-2.073.667C274.352,142.142,274.2,142.437,274.284,142.533Z" transform="translate(-149.851 -77.116)"/><path class="d" d="M305.307,147.563c.168.172,1.175-.572,2.608-.562s2.477.726,2.636.549c.077-.077-.091-.39-.549-.726a3.67,3.67,0,0,0-2.109-.653,3.543,3.543,0,0,0-2.073.662C305.379,147.172,305.23,147.485,305.307,147.563Z" transform="translate(-166.802 -79.864)"/><path class="d" d="M289.46,153.907a9.708,9.708,0,0,0-2.327-.426c-.363-.036-.708-.109-.771-.358a1.855,1.855,0,0,1,.245-1.084c.349-.885.708-1.814,1.089-2.781,1.511-3.96,2.6-7.217,2.445-7.258a49.227,49.227,0,0,0-3.026,7.063l-1.039,2.794a2.118,2.118,0,0,0-.2,1.438.907.907,0,0,0,.6.535,2.363,2.363,0,0,0,.621.086A9.748,9.748,0,0,0,289.46,153.907Z" transform="translate(-156.173 -77.586)"/><path class="f" d="M291.56,201.164a26.378,26.378,0,0,0,13.9-3.674c-.118,0-3.824,7.213-13.767,6.124Z" transform="translate(-159.302 -107.905)"/><path class="f" d="M294.717,174.456c-.172-.88.866-1.166,1.628-1.642s1.2-1.1,1.914-.558a2.8,2.8,0,0,1,.88,1.234,1.683,1.683,0,0,1-.494,2.073,3.008,3.008,0,0,1-1.556.812,2.159,2.159,0,0,1-1.683-.395,1.7,1.7,0,0,1-.64-1.57" transform="translate(-161.017 -94.002)"/><path class="d" d="M297.6,170.45c-.231,0-.24,1.542-1.57,2.64s-2.989.907-3,1.143c0,.1.372.3,1.071.322a3.847,3.847,0,0,0,2.5-.866,3.357,3.357,0,0,0,1.216-2.214C297.884,170.826,297.711,170.441,297.6,170.45Z" transform="translate(-160.105 -93.13)"/><path class="d" d="M304.852,140.9c.141.39,1.574.209,3.252.413s3.035.667,3.262.318c.1-.163-.136-.531-.685-.907a5.375,5.375,0,0,0-2.413-.853,5.466,5.466,0,0,0-2.545.29C305.106,140.41,304.793,140.714,304.852,140.9Z" transform="translate(-166.56 -76.4)"/><path class="d" d="M274.707,131.54c.249.327,1.238,0,2.422,0s2.191.227,2.422-.113c.1-.168-.054-.49-.494-.8a3.511,3.511,0,0,0-3.9.113C274.734,131.05,274.6,131.381,274.707,131.54Z" transform="translate(-150.074 -71.077)"/><path class="d" d="M314.858,142.377c-2.853.576-3.107-.876-5.239-2.858a9.367,9.367,0,0,1-2.867-7.907c.322-2.545,1.7-5.14.812-7.548-1.166-3.175-5.634-4.173-6.8-7.353-.689-1.851-.068-4.01-.853-5.824-.735-1.706-2.527-2.685-4.273-3.316s-3.629-1.066-5.081-2.2-2.377-3.289-1.433-4.886a98.186,98.186,0,0,1,22.681,5.507c1.7.631,3.475,1.393,4.473,2.9,1.061,1.592,1.012,3.629.907,5.557q-.653,13.976-1.3,27.948" transform="translate(-157.759 -54.901)"/><path class="g" d="M321.627,134.667a.756.756,0,0,0,.113-.127,3.669,3.669,0,0,0,.286-.417,5.444,5.444,0,0,0,.685-1.814,6.35,6.35,0,0,0-.168-3.066,5.856,5.856,0,0,0-2.413-3.248c-1.229-.866-2.831-1.47-3.851-2.853a3.112,3.112,0,0,1-.562-2.436,13.9,13.9,0,0,1,.907-2.69,7.743,7.743,0,0,0-.136-6.2,6.727,6.727,0,0,0-2.1-2.613,8.192,8.192,0,0,0-3.175-1.32c-1.125-.254-2.245-.4-3.284-.717a6.428,6.428,0,0,1-2.753-1.506,4.577,4.577,0,0,1-1.193-2.722,23.094,23.094,0,0,0-.485-3.017,10.433,10.433,0,0,0-2.8-4.908,8.224,8.224,0,0,0-4.418-2.182,6.546,6.546,0,0,0-4.01.608,6.3,6.3,0,0,0-2.318,2.01,5.271,5.271,0,0,0-.812,1.76,2.826,2.826,0,0,0-.1.667,6.6,6.6,0,0,1,1.057-2.323,6.251,6.251,0,0,1,6.138-2.4,7.925,7.925,0,0,1,4.2,2.141,10.08,10.08,0,0,1,2.658,4.74,23.731,23.731,0,0,1,.454,2.976,4.962,4.962,0,0,0,1.3,2.971,6.84,6.84,0,0,0,2.939,1.628c1.089.327,2.214.454,3.316.726a7.766,7.766,0,0,1,3.012,1.243,6.351,6.351,0,0,1,1.969,2.436,7.321,7.321,0,0,1,.145,5.856,14.336,14.336,0,0,0-.907,2.781,3.506,3.506,0,0,0,.658,2.722c1.13,1.488,2.781,2.069,3.974,2.9a5.616,5.616,0,0,1,2.354,3.057,6.419,6.419,0,0,1,.236,2.958A6.882,6.882,0,0,1,321.627,134.667Z" transform="translate(-157.92 -50.674)"/><path class="d" d="M324.044,162.44a26.228,26.228,0,0,0-1.211,17.3c.454,1.7,1.116,3.457.717,5.171-.454,1.855-1.987,3.2-3.121,4.731a11.681,11.681,0,0,0,3.579,17.052c.3-1.706,1.887-2.867,3.452-3.629s3.3-1.293,4.491-2.545,1.533-3.556.145-4.6c3.992-1.043,6.255-5.788,5.416-9.825s-4.128-7.258-7.866-8.986" transform="translate(-173.832 -88.754)"/><path class="d" d="M328.269,239.733c-.712.395-1.406.744-1.492,1.551-.1.953.807,2.617,1.134,3.516a4.881,4.881,0,0,1-6.382,6.215,2.568,2.568,0,0,0,2.477-2.422,5.361,5.361,0,0,0-1.27-3.543A35.67,35.67,0,0,1,320.408,242c-1.315-2.268-3.271-8.383-1.765-11.817" transform="translate(-173.802 -125.766)"/><path class="g" d="M345.989,204.525a1.7,1.7,0,0,1,.245-.209c.168-.127.408-.318.712-.576a15.985,15.985,0,0,0,2.332-2.409,12.175,12.175,0,0,0,2.209-4.409,9.953,9.953,0,0,0-.295-5.956,8.945,8.945,0,0,0-1.642-2.654c-.667-.767-1.4-1.438-2.078-2.087a21.111,21.111,0,0,1-1.864-1.937,8.4,8.4,0,0,1-1.22-2.005,5.3,5.3,0,0,1-.4-3.334,3.656,3.656,0,0,1,.34-.862,1.359,1.359,0,0,1,.177-.268,5.66,5.66,0,0,0-.426,1.148,5.33,5.33,0,0,0,.454,3.248,8.422,8.422,0,0,0,1.22,1.951,22.69,22.69,0,0,0,1.86,1.9,29.481,29.481,0,0,1,2.1,2.1,8.973,8.973,0,0,1,1.687,2.722,10.061,10.061,0,0,1,.286,6.1,12.139,12.139,0,0,1-2.291,4.455,14.638,14.638,0,0,1-2.4,2.382c-.318.245-.567.426-.744.544A1.612,1.612,0,0,1,345.989,204.525Z" transform="translate(-187.888 -97.157)"/><path class="h" d="M59.572,337.042c1.148,1.438,3.175.812,4.051-.163a7.761,7.761,0,0,0,1.492-3.629c.653-2.949,1.3-6.042.5-8.954a4.927,4.927,0,0,0-1.288-2.341,2.581,2.581,0,0,0-2.495-.662,3.788,3.788,0,0,0-2,2.377,21.243,21.243,0,0,0-1.52,9.236,7.346,7.346,0,0,0,1.257,4.146" transform="translate(-31.842 -175.498)"/><g class="j" transform="translate(26.436 145.704)"><path d="M59.572,337.042c1.148,1.438,3.175.812,4.051-.163a7.761,7.761,0,0,0,1.492-3.629c.653-2.949,1.3-6.042.5-8.954a4.927,4.927,0,0,0-1.288-2.341,2.581,2.581,0,0,0-2.495-.662,3.788,3.788,0,0,0-2,2.377,21.243,21.243,0,0,0-1.52,9.236,7.346,7.346,0,0,0,1.257,4.146" transform="translate(-58.278 -321.202)"/></g><path class="h" d="M68.649,371a9.132,9.132,0,0,1,5.616-1.048,4.738,4.738,0,0,1,2.871,1.075,2.012,2.012,0,0,1,.2,2.785,2.685,2.685,0,0,1-1.733.562c-1.5.073-3.175-.086-4.309.907-.653.558-1.052,1.438-1.851,1.742a1.923,1.923,0,0,1-2.177-.807,3.293,3.293,0,0,1-.395-2.418A3.706,3.706,0,0,1,68.649,371Z" transform="translate(-36.496 -202.089)"/><path class="h" d="M39.649,346.46a5.475,5.475,0,0,0,.535-5.085,9.73,9.73,0,0,0-3.252-4.114,15.981,15.981,0,0,0-5.534-2.812,5.752,5.752,0,0,0-2.427-.259,2.513,2.513,0,0,0-1.937,1.361c-.494,1.107.122,2.372.771,3.393a41.052,41.052,0,0,0,3.842,5.117,9.464,9.464,0,0,0,4.083,3.062c1.656.513,3.3.336,4.083-.83" transform="translate(-14.673 -182.576)"/><path class="d" d="M64,388.884a3.516,3.516,0,0,0,.054-.69c0-.5.036-1.125.064-1.873a26.458,26.458,0,0,1,.245-2.758,21.007,21.007,0,0,1,.794-3.289,11.8,11.8,0,0,1,1.461-3.026,6.256,6.256,0,0,1,1.973-1.864,5.793,5.793,0,0,1,1.724-.653,3.473,3.473,0,0,0,.671-.141,2.87,2.87,0,0,0-.694.032,5.222,5.222,0,0,0-1.814.59A6.092,6.092,0,0,0,66.39,377.1a11.585,11.585,0,0,0-1.524,3.085,20.1,20.1,0,0,0-.78,3.339,22.761,22.761,0,0,0-.186,2.794c0,.794,0,1.438.023,1.883A3.229,3.229,0,0,0,64,388.884Z" transform="translate(-34.914 -204.664)"/><path class="d" d="M63.538,365.536a1.684,1.684,0,0,0,0-.318c0-.236-.036-.535-.059-.907-.05-.789-.122-1.928-.168-3.334-.109-2.817-.109-6.709.091-11s.581-8.165.98-10.96c.091-.7.186-1.329.281-1.883s.159-1.03.236-1.415.113-.658.154-.907a1.18,1.18,0,0,0,.036-.318,1.443,1.443,0,0,0-.091.3l-.209.907c-.091.381-.181.857-.286,1.406s-.218,1.179-.322,1.878a104.123,104.123,0,0,0-1.066,10.978c-.2,4.3-.163,8.206,0,11.028.073,1.411.172,2.549.259,3.334.045.363.082.662.113.907A.971.971,0,0,0,63.538,365.536Z" transform="translate(-34.41 -182.758)"/><path class="d" d="M49.49,361.852a6.891,6.891,0,0,0-.068-.948,25.761,25.761,0,0,0-.454-2.545,32.775,32.775,0,0,0-1.066-3.683,33.059,33.059,0,0,0-1.842-4.341,23.516,23.516,0,0,0-5.04-6.859,11.582,11.582,0,0,0-1.152-.916c-.172-.132-.327-.259-.485-.363l-.454-.263a5.74,5.74,0,0,0-.83-.454,27.515,27.515,0,0,1,2.758,2.164,24.912,24.912,0,0,1,4.954,6.836,35.657,35.657,0,0,1,1.846,4.282c.494,1.361.848,2.59,1.12,3.629a22.865,22.865,0,0,1,.535,2.518A5.7,5.7,0,0,0,49.49,361.852Z" transform="translate(-20.817 -186.578)"/><path class="h" d="M210.13,154.357c-.839-2.962-4.69-2.676-4.69-2.676l.1,2.064c2.227-.386,3.629,2.223,3.629,2.223Z" transform="translate(-112.248 -82.872)"/><path class="h" d="M129.422,81.58c-2.082.222-2.332,2.831-2.332,2.831l1.393.168c0-1.538,1.905-2.164,1.905-2.164Z" transform="translate(-69.439 -44.574)"/><path class="h" d="M174.91,18.294c1.27,3.234,5.557,2.481,5.557,2.481l-.345-2.3c-2.459.68-4.3-2.1-4.3-2.1Z" transform="translate(-95.567 -8.95)"/><path class="h" d="M65.472,141c-2.082.218-2.332,2.831-2.332,2.831l1.393.163c0-1.533,1.905-2.159,1.905-2.159Z" transform="translate(-34.498 -77.04)"/><path class="h" d="M83.947,39.808c.3-2.069-2.164-2.958-2.164-2.958l-.5,1.306c1.483.381,1.619,2.382,1.619,2.382Z" transform="translate(-44.41 -20.135)"/><path class="h" d="M8.762,111.735c-.372,3.243,3.924,4.028,3.924,4.028l.776-2.123c-2.577-.231-2.949-3.271-2.949-3.271Z" transform="translate(-4.775 -60.304)"/><path class="h" d="M232.995,75.488c2.087.118,2.754-2.418,2.754-2.418l-1.361-.39c-.249,1.515-2.227,1.814-2.227,1.814Z" transform="translate(-126.847 -39.711)"/><path class="k" d="M30.387,15.475A14.912,14.912,0,1,1,15.475.563,14.912,14.912,0,0,1,30.387,15.475ZM13.75,23.37,24.814,12.307a.962.962,0,0,0,0-1.361L23.453,9.586a.962.962,0,0,0-1.361,0l-9.023,9.023L8.857,14.4a.962.962,0,0,0-1.361,0L6.136,15.756a.962.962,0,0,0,0,1.361l6.253,6.253a.962.962,0,0,0,1.361,0Z" transform="translate(46.437 76.488)"/></g></g></svg>