<svg xmlns="http://www.w3.org/2000/svg" width="119.7" height="119.701" viewBox="0 0 119.7 119.701"><g transform="translate(-196.15 -320.25)"><g transform="translate(-773.582 16)"><circle cx="26.276" cy="26.276" r="26.276" transform="translate(1003.684 337.826)" fill="#f6e58d" stroke="#f9ca24" stroke-linecap="round" stroke-linejoin="round" stroke-miterlimit="10" stroke-width="6"/><path d="M99.49,120.4h0a4.182,4.182,0,0,1-4.169-4.169V99.55a4.182,4.182,0,0,1,4.169-4.169h0a4.182,4.182,0,0,1,4.169,4.169v16.675A4.181,4.181,0,0,1,99.49,120.4Z" transform="translate(930.093 303.556)" fill="#f9ca24"/><path d="M99.674,74.18h0A4.182,4.182,0,0,1,95.5,70.011V53.335a4.182,4.182,0,0,1,4.169-4.169h0a4.182,4.182,0,0,1,4.169,4.169V70.011A4.184,4.184,0,0,1,99.674,74.18Z" transform="translate(930.287 255.084)" fill="#f9ca24"/><path d="M139.373,80.512h0a4.182,4.182,0,0,1-4.169,4.169H118.528a4.182,4.182,0,0,1-4.169-4.169h0a4.182,4.182,0,0,1,4.169-4.169H135.2A4.184,4.184,0,0,1,139.373,80.512Z" transform="translate(950.059 283.588)" fill="#f9ca24"/><path d="M93.157,80.329h0A4.182,4.182,0,0,1,88.988,84.5H72.312a4.182,4.182,0,0,1-4.169-4.169h0a4.182,4.182,0,0,1,4.169-4.169H88.988A4.181,4.181,0,0,1,93.157,80.329Z" transform="translate(901.589 283.396)" fill="#f9ca24"/><path d="M110.5,71.617h0a4.181,4.181,0,0,1,0-5.894l5.894-5.894a4.181,4.181,0,0,1,5.894,0h0a4.181,4.181,0,0,1,0,5.894l-5.894,5.894A4.181,4.181,0,0,1,110.5,71.617Z" transform="translate(944.738 264.992)" fill="#f9ca24"/><path d="M91.859,71.617h0a4.181,4.181,0,0,1-5.894,0L80.07,65.723a4.181,4.181,0,0,1,0-5.894h0a4.181,4.181,0,0,1,5.894,0l5.894,5.894A4.181,4.181,0,0,1,91.859,71.617Z" transform="translate(912.824 264.992)" fill="#f9ca24"/><path d="M110.5,92.419h0a4.181,4.181,0,0,0,0,5.894l5.894,5.894a4.181,4.181,0,0,0,5.894,0h0a4.181,4.181,0,0,0,0-5.894l-5.894-5.894A4.181,4.181,0,0,0,110.5,92.419Z" transform="translate(944.738 299.174)" fill="#f9ca24"/><path d="M91.859,92.419h0a4.181,4.181,0,0,0-5.894,0L80.07,98.314a4.181,4.181,0,0,0,0,5.894h0a4.181,4.181,0,0,0,5.894,0l5.894-5.894A4.181,4.181,0,0,0,91.859,92.419Z" transform="translate(912.824 299.174)" fill="#f9ca24"/></g></g></svg>