<svg xmlns="http://www.w3.org/2000/svg" width="83.8" height="74.351" viewBox="0 0 83.8 74.351"><defs><style>.a{fill:none;}.a,.b{stroke:#0899ba;stroke-width:3.8px;}.a,.b,.d{stroke-linecap:round;stroke-linejoin:round;stroke-miterlimit:10;}.b{fill:rgba(15,255,255,0);}.c{fill:#0899ba;}.d{fill:#f6e58d;stroke:#f9ca24;stroke-width:4px;}.e{fill:#f9ca24;}</style></defs><g transform="translate(-450.1 -38.621)"><g transform="translate(452 38.621)"><path class="a" d="M49.563,119.838v-13.1H43.87l21.517-18.6" transform="translate(-43.87 -60.365)"/><path class="b" d="M122.954,88.138,146.6,109.23h-6.267v23.587" transform="translate(-66.596 -60.365)"/><path class="c" d="M65.993,123.341q-.658-.226-1.2-.457a3.655,3.655,0,0,1-.928-.562,2.323,2.323,0,0,1-.606-.786,2.581,2.581,0,0,1-.217-1.115,2.448,2.448,0,0,1,.98-2.035,4.38,4.38,0,0,1,2.746-.763,7.491,7.491,0,0,1,1.2.09,3.567,3.567,0,0,1,.95.277,1.65,1.65,0,0,1,.621.479,1.087,1.087,0,0,1,.224.681,1.2,1.2,0,0,1-.18.666,1.856,1.856,0,0,1-.434.472,3.382,3.382,0,0,0-.883-.367,4.428,4.428,0,0,0-1.212-.158,2,2,0,0,0-.988.187.546.546,0,0,0-.314.471.436.436,0,0,0,.195.367,1.984,1.984,0,0,0,.584.262l.793.254a5.745,5.745,0,0,1,2.162,1.145,2.447,2.447,0,0,1,.756,1.893,2.492,2.492,0,0,1-1,2.058,4.711,4.711,0,0,1-2.948.786,6.915,6.915,0,0,1-1.279-.112,4.05,4.05,0,0,1-1.033-.329,1.908,1.908,0,0,1-.688-.539,1.185,1.185,0,0,1-.247-.741,1.122,1.122,0,0,1,.254-.74,1.941,1.941,0,0,1,.554-.472,4.057,4.057,0,0,0,1.025.569,3.56,3.56,0,0,0,1.324.239,1.777,1.777,0,0,0,1.033-.224.647.647,0,0,0,.3-.524.515.515,0,0,0-.239-.457,3.151,3.151,0,0,0-.673-.306Z" transform="translate(-49.38 -68.839)"/><path class="c" d="M74.595,122.385a5.413,5.413,0,0,1,.367-2.065,4.162,4.162,0,0,1,2.5-2.424,5.68,5.68,0,0,1,3.726,0,4.344,4.344,0,0,1,1.5.92,4.232,4.232,0,0,1,1.01,1.5,5.431,5.431,0,0,1,.366,2.065,5.587,5.587,0,0,1-.359,2.072,4.186,4.186,0,0,1-.995,1.512,4.252,4.252,0,0,1-1.5.92,5.482,5.482,0,0,1-1.886.314,5.383,5.383,0,0,1-1.886-.321,4.2,4.2,0,0,1-1.5-.936,4.33,4.33,0,0,1-.988-1.512A5.465,5.465,0,0,1,74.595,122.385Zm2.694,0a3.154,3.154,0,0,0,.554,2.035,1.983,1.983,0,0,0,2.978,0,4.011,4.011,0,0,0,.007-4.055,1.815,1.815,0,0,0-1.489-.673,1.85,1.85,0,0,0-1.489.666A3.088,3.088,0,0,0,77.289,122.385Z" transform="translate(-52.7 -68.827)"/><path class="c" d="M91.379,127.035a1.292,1.292,0,0,1-1.392-1.392v-7.737c.11-.019.284-.047.524-.082a4.775,4.775,0,0,1,.688-.052,3.13,3.13,0,0,1,.606.052,1.079,1.079,0,0,1,.442.187.81.81,0,0,1,.269.373,1.83,1.83,0,0,1,.09.629v5.911h3.427a1.965,1.965,0,0,1,.195.442,1.855,1.855,0,0,1,.09.577,1.152,1.152,0,0,1-.254.846.929.929,0,0,1-.673.247H91.379Z" transform="translate(-57.123 -68.881)"/><path class="c" d="M102.152,127.035a1.292,1.292,0,0,1-1.392-1.392v-7.737c.11-.019.284-.047.524-.082a4.78,4.78,0,0,1,.689-.052,3.122,3.122,0,0,1,.606.052,1.078,1.078,0,0,1,.442.187.81.81,0,0,1,.269.373,1.831,1.831,0,0,1,.09.629v5.911h3.427a1.934,1.934,0,0,1,.195.442,1.855,1.855,0,0,1,.09.577,1.152,1.152,0,0,1-.254.846.928.928,0,0,1-.673.247h-4.011Z" transform="translate(-60.219 -68.881)"/><path class="c" d="M113.42,118.189a3.165,3.165,0,0,1,.77-.284,4.106,4.106,0,0,1,1.04-.134,3.76,3.76,0,0,1,1.324.217,1.153,1.153,0,0,1,.74.681q.269.778.584,1.811t.629,2.132q.314,1.1.614,2.17t.523,1.893a1.235,1.235,0,0,1-.539.337,2.554,2.554,0,0,1-.852.128,2.619,2.619,0,0,1-.606-.06,1.079,1.079,0,0,1-.4-.18.892.892,0,0,1-.254-.314,2.727,2.727,0,0,1-.172-.449l-.269-1.033h-2.709c-.08.3-.16.609-.239.929s-.16.629-.239.928a3.944,3.944,0,0,1-.442.128,2.583,2.583,0,0,1-.561.052,1.966,1.966,0,0,1-1.13-.262.843.843,0,0,1-.366-.726,1.493,1.493,0,0,1,.06-.419c.04-.14.084-.3.134-.494q.1-.4.291-1t.412-1.294q.224-.695.479-1.429t.479-1.385q.224-.65.411-1.159C113.253,118.629,113.35,118.369,113.42,118.189Zm1.8,1.931q-.21.629-.471,1.4t-.471,1.564h1.856q-.209-.808-.427-1.578t-.4-1.384Z" transform="translate(-63.121 -68.881)"/><path class="c" d="M127.513,124.013v2.873a4.147,4.147,0,0,1-.516.09,5.494,5.494,0,0,1-.7.045,3.118,3.118,0,0,1-.606-.053,1.016,1.016,0,0,1-.434-.187.833.833,0,0,1-.262-.373,1.822,1.822,0,0,1-.09-.629v-7.049a.66.66,0,0,1,.172-.487,1.237,1.237,0,0,1,.471-.276,5.623,5.623,0,0,1,1.182-.262,12.015,12.015,0,0,1,1.437-.082,4.782,4.782,0,0,1,3.112.868,2.893,2.893,0,0,1,1.048,2.35,2.632,2.632,0,0,1-.479,1.587,3.434,3.434,0,0,1-1.138,1.018q.539.734,1.063,1.377a8.872,8.872,0,0,1,.823,1.168,1.413,1.413,0,0,1-.547.8,1.519,1.519,0,0,1-.891.277,1.942,1.942,0,0,1-.569-.074,1.377,1.377,0,0,1-.419-.21,1.693,1.693,0,0,1-.329-.329,4.393,4.393,0,0,1-.284-.419l-1.258-2.02h-.792Zm.944-1.99a1.309,1.309,0,0,0,.9-.291,1.088,1.088,0,0,0,.33-.861,1.033,1.033,0,0,0-.367-.86,1.863,1.863,0,0,0-1.16-.291,3.407,3.407,0,0,0-.359.015c-.09.011-.19.025-.3.045v2.244h.958Z" transform="translate(-67.158 -68.838)"/><path class="c" d="M66.414,139.388a1.839,1.839,0,0,1-.821-.177,1.946,1.946,0,0,1-.609-.459l.192-.205a1.712,1.712,0,0,0,.552.417,1.557,1.557,0,0,0,.686.155,1.17,1.17,0,0,0,.77-.234.757.757,0,0,0,.282-.612.834.834,0,0,0-.061-.337.765.765,0,0,0-.163-.237.989.989,0,0,0-.24-.17q-.138-.071-.292-.141l-.641-.289c-.09-.039-.186-.085-.289-.14a1.2,1.2,0,0,1-.279-.209,1.078,1.078,0,0,1-.208-.3.915.915,0,0,1-.083-.407.943.943,0,0,1,.093-.42,1.009,1.009,0,0,1,.257-.327,1.19,1.19,0,0,1,.391-.214,1.521,1.521,0,0,1,.49-.077,1.482,1.482,0,0,1,.683.151,1.75,1.75,0,0,1,.49.356l-.167.193a1.475,1.475,0,0,0-.436-.311,1.317,1.317,0,0,0-.571-.119,1.056,1.056,0,0,0-.68.205.67.67,0,0,0-.257.552.641.641,0,0,0,.071.314.788.788,0,0,0,.18.222,1.324,1.324,0,0,0,.237.161c.086.045.167.084.244.118l.641.282a2.706,2.706,0,0,1,.34.172,1.355,1.355,0,0,1,.282.224.982.982,0,0,1,.2.305,1.083,1.083,0,0,1,.074.42,1.065,1.065,0,0,1-.1.453,1.049,1.049,0,0,1-.272.359,1.3,1.3,0,0,1-.427.237A1.7,1.7,0,0,1,66.414,139.388Z" transform="translate(-49.938 -73.834)"/><path class="c" d="M71.492,139.387a1.568,1.568,0,0,1-.7-.157,1.6,1.6,0,0,1-.552-.446,2.115,2.115,0,0,1-.359-.7,3.01,3.01,0,0,1-.128-.907,2.952,2.952,0,0,1,.128-.9,2.107,2.107,0,0,1,.359-.686,1.543,1.543,0,0,1,.552-.435,1.708,1.708,0,0,1,1.4,0,1.558,1.558,0,0,1,.552.435,2.107,2.107,0,0,1,.359.686,2.952,2.952,0,0,1,.128.9,3,3,0,0,1-.128.907,2.116,2.116,0,0,1-.359.7,1.569,1.569,0,0,1-1.257.6Zm0-.269a1.229,1.229,0,0,0,.584-.138,1.336,1.336,0,0,0,.453-.391,1.865,1.865,0,0,0,.291-.609,2.883,2.883,0,0,0,.1-.8,2.819,2.819,0,0,0-.1-.788,1.812,1.812,0,0,0-.291-.6,1.337,1.337,0,0,0-.453-.381,1.261,1.261,0,0,0-.584-.135,1.282,1.282,0,0,0-.587.135,1.3,1.3,0,0,0-.452.381,1.844,1.844,0,0,0-.289.6,2.819,2.819,0,0,0-.1.788,2.883,2.883,0,0,0,.1.8,1.906,1.906,0,0,0,.289.609,1.3,1.3,0,0,0,.452.391A1.252,1.252,0,0,0,71.492,139.118Z" transform="translate(-51.307 -73.834)"/><path class="c" d="M76,135.115h.3v3.969h1.95v.257H76Z" transform="translate(-53.103 -73.865)"/><path class="c" d="M81.387,139.419a1.75,1.75,0,0,1-.526-.081,1.1,1.1,0,0,1-.455-.276,1.384,1.384,0,0,1-.317-.522,2.427,2.427,0,0,1-.119-.821v-2.6h.3v2.571a2.248,2.248,0,0,0,.093.7,1.245,1.245,0,0,0,.247.45.865.865,0,0,0,.356.24,1.284,1.284,0,0,0,.427.071,1.341,1.341,0,0,0,.439-.071.874.874,0,0,0,.366-.24,1.251,1.251,0,0,0,.253-.45,2.181,2.181,0,0,0,.1-.7v-2.571h.276v2.6a2.369,2.369,0,0,1-.122.821,1.4,1.4,0,0,1-.321.522,1.1,1.1,0,0,1-.455.276A1.774,1.774,0,0,1,81.387,139.419Z" transform="translate(-54.243 -73.865)"/><path class="c" d="M87.085,139.387a1.655,1.655,0,0,1-.718-.155,1.6,1.6,0,0,1-.562-.439,2.05,2.05,0,0,1-.363-.693,3.036,3.036,0,0,1-.128-.914,2.915,2.915,0,0,1,.132-.905,2.072,2.072,0,0,1,.368-.69,1.58,1.58,0,0,1,.568-.435,1.737,1.737,0,0,1,.735-.151,1.348,1.348,0,0,1,.654.154,1.557,1.557,0,0,1,.448.353l-.172.2a1.33,1.33,0,0,0-.4-.317,1.118,1.118,0,0,0-.519-.119,1.416,1.416,0,0,0-.625.135,1.36,1.36,0,0,0-.475.381,1.735,1.735,0,0,0-.3.6,2.846,2.846,0,0,0-.1.8,2.881,2.881,0,0,0,.1.8,1.81,1.81,0,0,0,.3.606,1.352,1.352,0,0,0,.465.388,1.325,1.325,0,0,0,.612.138,1.26,1.26,0,0,0,.583-.132,1.707,1.707,0,0,0,.487-.388l.174.186a1.886,1.886,0,0,1-.546.443A1.468,1.468,0,0,1,87.085,139.387Zm-.487,1.135a1.527,1.527,0,0,0,.571-.109.255.255,0,0,0,.155-.231.24.24,0,0,0-.115-.215,1.014,1.014,0,0,0-.384-.113l.262-.557h.225l-.192.43a.854.854,0,0,1,.33.151.35.35,0,0,1,.125.291.414.414,0,0,1-.238.381,1.706,1.706,0,0,1-.692.163Z" transform="translate(-55.78 -73.834)"/><path class="c" d="M91.913,138.967a1.562,1.562,0,0,1-.7-.158,1.59,1.59,0,0,1-.552-.446,2.116,2.116,0,0,1-.359-.7,3.01,3.01,0,0,1-.128-.907,2.952,2.952,0,0,1,.128-.9,2.107,2.107,0,0,1,.359-.686,1.548,1.548,0,0,1,.552-.435,1.706,1.706,0,0,1,1.4,0,1.552,1.552,0,0,1,.552.435,2.106,2.106,0,0,1,.359.686,2.952,2.952,0,0,1,.128.9,3,3,0,0,1-.128.907,2.116,2.116,0,0,1-.359.7,1.6,1.6,0,0,1-.552.446A1.577,1.577,0,0,1,91.913,138.967Zm0-.269a1.227,1.227,0,0,0,.584-.138,1.337,1.337,0,0,0,.453-.391,1.865,1.865,0,0,0,.291-.609,2.883,2.883,0,0,0,.1-.8,2.819,2.819,0,0,0-.1-.788,1.812,1.812,0,0,0-.291-.6,1.337,1.337,0,0,0-.453-.381,1.261,1.261,0,0,0-.584-.135,1.28,1.28,0,0,0-.586.135,1.3,1.3,0,0,0-.453.381,1.828,1.828,0,0,0-.288.6,2.792,2.792,0,0,0-.1.788,2.856,2.856,0,0,0,.1.8,1.905,1.905,0,0,0,.288.609,1.3,1.3,0,0,0,.453.391A1.247,1.247,0,0,0,91.913,138.7Zm.495-4.413a.582.582,0,0,1-.314-.08,1.791,1.791,0,0,1-.234-.173q-.106-.093-.205-.173a.36.36,0,0,0-.234-.08.286.286,0,0,0-.237.132.687.687,0,0,0-.115.356l-.212-.019a.909.909,0,0,1,.157-.5.472.472,0,0,1,.407-.2.579.579,0,0,1,.314.08,1.851,1.851,0,0,1,.234.173c.071.062.138.12.205.173a.36.36,0,0,0,.234.08.269.269,0,0,0,.231-.135.865.865,0,0,0,.122-.359l.212.019a.925.925,0,0,1-.157.507A.469.469,0,0,1,92.408,134.285Z" transform="translate(-57.177 -73.413)"/><path class="c" d="M96.422,135.115h2.315v.256h-2.02v1.6H98.41v.257H96.717v1.859H98.8v.257H96.422Z" transform="translate(-58.971 -73.865)"/><path class="c" d="M102.028,139.388a1.839,1.839,0,0,1-.821-.177,1.943,1.943,0,0,1-.609-.459l.192-.205a1.728,1.728,0,0,0,.552.417,1.557,1.557,0,0,0,.686.155,1.169,1.169,0,0,0,.77-.234.757.757,0,0,0,.282-.612.833.833,0,0,0-.061-.337.766.766,0,0,0-.163-.237.993.993,0,0,0-.241-.17c-.092-.047-.19-.094-.291-.141l-.641-.289c-.09-.039-.186-.085-.288-.14a1.207,1.207,0,0,1-.279-.209,1.08,1.08,0,0,1-.209-.3.915.915,0,0,1-.083-.407.943.943,0,0,1,.093-.42,1.009,1.009,0,0,1,.257-.327,1.183,1.183,0,0,1,.391-.214,1.521,1.521,0,0,1,.49-.077,1.482,1.482,0,0,1,.683.151,1.74,1.74,0,0,1,.49.356l-.166.193a1.475,1.475,0,0,0-.436-.311,1.315,1.315,0,0,0-.571-.119,1.056,1.056,0,0,0-.68.205.67.67,0,0,0-.257.552.634.634,0,0,0,.071.314.764.764,0,0,0,.18.222,1.323,1.323,0,0,0,.237.161c.086.045.166.084.244.118l.641.282a2.755,2.755,0,0,1,.34.172,1.355,1.355,0,0,1,.282.224,1.008,1.008,0,0,1,.2.305,1.1,1.1,0,0,1,.074.42,1.055,1.055,0,0,1-.1.453,1.041,1.041,0,0,1-.272.359,1.287,1.287,0,0,1-.427.237A1.7,1.7,0,0,1,102.028,139.388Z" transform="translate(-60.171 -73.834)"/><path class="c" d="M107.546,135.115h.308l1.783,2.982.475.84h.026c-.009-.205-.016-.41-.026-.615s-.013-.41-.013-.616v-2.591h.282v4.227h-.308l-1.783-2.982-.475-.841h-.026c.009.205.017.4.026.6s.013.395.013.6v2.623h-.282Z" transform="translate(-62.168 -73.865)"/><path class="c" d="M114.629,139.387a1.563,1.563,0,0,1-.7-.157,1.59,1.59,0,0,1-.552-.446,2.115,2.115,0,0,1-.359-.7,3.01,3.01,0,0,1-.128-.907,2.952,2.952,0,0,1,.128-.9,2.107,2.107,0,0,1,.359-.686,1.549,1.549,0,0,1,.552-.435,1.706,1.706,0,0,1,1.4,0,1.552,1.552,0,0,1,.552.435,2.106,2.106,0,0,1,.359.686,2.951,2.951,0,0,1,.128.9,3,3,0,0,1-.128.907,2.115,2.115,0,0,1-.359.7,1.6,1.6,0,0,1-.552.446A1.58,1.58,0,0,1,114.629,139.387Zm0-.269a1.227,1.227,0,0,0,.584-.138,1.336,1.336,0,0,0,.453-.391,1.865,1.865,0,0,0,.291-.609,2.883,2.883,0,0,0,.1-.8,2.819,2.819,0,0,0-.1-.788,1.812,1.812,0,0,0-.291-.6,1.337,1.337,0,0,0-.453-.381,1.261,1.261,0,0,0-.584-.135,1.279,1.279,0,0,0-.586.135,1.3,1.3,0,0,0-.453.381,1.829,1.829,0,0,0-.288.6,2.793,2.793,0,0,0-.1.788,2.856,2.856,0,0,0,.1.8,1.9,1.9,0,0,0,.288.609,1.3,1.3,0,0,0,.453.391A1.247,1.247,0,0,0,114.629,139.118Z" transform="translate(-63.704 -73.834)"/><path class="c" d="M120.938,135.115h.3v3.969h1.95v.257h-2.245Z" transform="translate(-66.017 -73.865)"/><path class="c" d="M126.881,137.892h-1.674l-.5,1.45h-.3l1.488-4.227h.3l1.488,4.227h-.308Zm-.083-.25-.269-.789c-.086-.252-.167-.493-.244-.725s-.152-.477-.224-.738h-.026q-.109.391-.224.738c-.077.231-.159.472-.244.725l-.269.789Z" transform="translate(-67.015 -73.865)"/><path class="c" d="M132.287,139.342l-1.148-1.943h-.9v1.943h-.3v-4.227h1.212a2.475,2.475,0,0,1,.571.061,1.177,1.177,0,0,1,.436.2.914.914,0,0,1,.279.346,1.2,1.2,0,0,1,.1.513,1.066,1.066,0,0,1-.291.8,1.322,1.322,0,0,1-.792.353l1.167,1.963h-.341Zm-1.206-2.187a1.4,1.4,0,0,0,.863-.227.821.821,0,0,0,.3-.7.738.738,0,0,0-.3-.67,1.579,1.579,0,0,0-.859-.2h-.84v1.789h.84Z" transform="translate(-68.605 -73.865)"/><circle class="d" cx="9.14" cy="9.14" r="9.14" transform="translate(29.107 11.679)"/><path class="e" d="M96.771,104.082h0a1.455,1.455,0,0,1-1.45-1.45v-5.8a1.455,1.455,0,0,1,1.45-1.45h0a1.455,1.455,0,0,1,1.45,1.45v5.8A1.454,1.454,0,0,1,96.771,104.082Z" transform="translate(-58.655 -62.447)"/><path class="e" d="M96.955,57.867h0a1.455,1.455,0,0,1-1.45-1.45v-5.8a1.455,1.455,0,0,1,1.45-1.45h0a1.455,1.455,0,0,1,1.45,1.45v5.8A1.455,1.455,0,0,1,96.955,57.867Z" transform="translate(-58.708 -49.166)"/><path class="e" d="M123.06,77.793h0a1.455,1.455,0,0,1-1.45,1.45h-5.8a1.455,1.455,0,0,1-1.45-1.45h0a1.455,1.455,0,0,1,1.45-1.45h5.8A1.455,1.455,0,0,1,123.06,77.793Z" transform="translate(-64.126 -56.976)"/><path class="e" d="M76.844,77.61h0a1.455,1.455,0,0,1-1.45,1.45h-5.8a1.455,1.455,0,0,1-1.45-1.45h0a1.455,1.455,0,0,1,1.45-1.45h5.8A1.454,1.454,0,0,1,76.844,77.61Z" transform="translate(-50.845 -56.923)"/><path class="e" d="M109.706,63.136h0a1.454,1.454,0,0,1,0-2.05l2.05-2.05a1.454,1.454,0,0,1,2.05,0h0a1.454,1.454,0,0,1,0,2.05l-2.05,2.05A1.454,1.454,0,0,1,109.706,63.136Z" transform="translate(-62.667 -51.881)"/><path class="e" d="M83.378,63.136h0a1.454,1.454,0,0,1-2.05,0l-2.05-2.05a1.454,1.454,0,0,1,0-2.05h0a1.454,1.454,0,0,1,2.05,0l2.05,2.05A1.454,1.454,0,0,1,83.378,63.136Z" transform="translate(-53.923 -51.881)"/><path class="e" d="M109.706,91.627h0a1.454,1.454,0,0,0,0,2.05l2.05,2.05a1.454,1.454,0,0,0,2.05,0h0a1.454,1.454,0,0,0,0-2.05l-2.05-2.05A1.454,1.454,0,0,0,109.706,91.627Z" transform="translate(-62.667 -61.246)"/><path class="e" d="M83.378,91.627h0a1.454,1.454,0,0,0-2.05,0l-2.05,2.05a1.454,1.454,0,0,0,0,2.05h0a1.454,1.454,0,0,0,2.05,0l2.05-2.05A1.454,1.454,0,0,0,83.378,91.627Z" transform="translate(-53.923 -61.246)"/></g></g></svg>