<svg xmlns="http://www.w3.org/2000/svg" width="33.37" height="33.37" viewBox="0 0 33.37 33.37"><defs><style>.a{fill:#0899BA;}</style></defs><path class="a" d="M32.5,10.816,17.9.388a2.087,2.087,0,0,0-2.424,0L.874,10.816a2.086,2.086,0,0,0,2.424,3.4l.874-.624v17.7A2.085,2.085,0,0,0,6.257,33.37H27.114A2.085,2.085,0,0,0,29.2,31.285v-17.7A3.555,3.555,0,0,0,31.283,14.6,2.086,2.086,0,0,0,32.5,10.816ZM25.028,29.2H20.857V22.942a4.171,4.171,0,0,0-8.343,0V29.2H8.343V10.608l8.343-5.959,8.343,5.959Z" transform="translate(0 0)"/></svg>
