<svg xmlns="http://www.w3.org/2000/svg" width="83.8" height="74.351" viewBox="0 0 83.8 74.351"><defs><style>.logo-a{fill:none;}.logo-a,.logo-b{stroke:#fff;stroke-width:3.8px;}.logo-a,.logo-b,.d{stroke-linecap:round;stroke-linejoin:round;stroke-miterlimit:10;}.logo-b{fill:rgba(15,255,255,0);}.c{fill:#fff;}.d{fill:#f6e58d;stroke:#f9ca24;stroke-width:4px;}.e{fill:#f9ca24;}</style></defs><g transform="translate(1.9)"><g transform="translate(0)"><path class="logo-a" d="M49.212,117.888v-12.3H43.87L64.063,88.138" transform="translate(-43.87 -59.036)"/><path class="logo-b" d="M122.954,88.138l22.188,19.794h-5.881v22.136" transform="translate(-65.142 -57.617)"/><g transform="translate(15.206 49.215)"><path class="c" d="M65.811,122.989q-.618-.212-1.124-.429a3.43,3.43,0,0,1-.871-.527,2.18,2.18,0,0,1-.569-.738,2.423,2.423,0,0,1-.2-1.046,2.3,2.3,0,0,1,.92-1.909,4.111,4.111,0,0,1,2.578-.716,7.031,7.031,0,0,1,1.124.084,3.348,3.348,0,0,1,.891.26,1.548,1.548,0,0,1,.583.449,1.02,1.02,0,0,1,.211.639,1.125,1.125,0,0,1-.169.625,1.742,1.742,0,0,1-.407.443,3.175,3.175,0,0,0-.829-.344,4.156,4.156,0,0,0-1.138-.148,1.875,1.875,0,0,0-.927.176.512.512,0,0,0-.295.442.409.409,0,0,0,.183.344,1.862,1.862,0,0,0,.548.245l.744.239a5.392,5.392,0,0,1,2.029,1.074,2.3,2.3,0,0,1,.71,1.776,2.338,2.338,0,0,1-.941,1.931,4.421,4.421,0,0,1-2.767.738,6.49,6.49,0,0,1-1.2-.1,3.8,3.8,0,0,1-.969-.309,1.791,1.791,0,0,1-.646-.506,1.112,1.112,0,0,1-.232-.7,1.053,1.053,0,0,1,.239-.695,1.822,1.822,0,0,1,.52-.443,3.808,3.808,0,0,0,.962.534,3.341,3.341,0,0,0,1.243.225,1.668,1.668,0,0,0,.969-.21.607.607,0,0,0,.281-.492.483.483,0,0,0-.225-.429,2.957,2.957,0,0,0-.632-.288Z" transform="translate(-63.044 -117.596)"/><path class="c" d="M74.595,122.09a5.08,5.08,0,0,1,.344-1.938,3.906,3.906,0,0,1,2.345-2.275,5.33,5.33,0,0,1,3.5,0,4.077,4.077,0,0,1,1.412.863,3.971,3.971,0,0,1,.948,1.411,5.1,5.1,0,0,1,.344,1.938,5.243,5.243,0,0,1-.337,1.945,3.928,3.928,0,0,1-.934,1.419,3.99,3.99,0,0,1-1.411.863,5.145,5.145,0,0,1-1.77.295,5.052,5.052,0,0,1-1.77-.3,3.938,3.938,0,0,1-1.4-.878,4.063,4.063,0,0,1-.927-1.419A5.129,5.129,0,0,1,74.595,122.09Zm2.528,0a2.96,2.96,0,0,0,.52,1.909,1.861,1.861,0,0,0,2.795,0,3.764,3.764,0,0,0,.007-3.805,1.7,1.7,0,0,0-1.4-.632,1.736,1.736,0,0,0-1.4.625A2.9,2.9,0,0,0,77.123,122.09Z" transform="translate(-66.87 -117.582)"/><path class="c" d="M91.293,126.465a1.212,1.212,0,0,1-1.306-1.306V117.9c.1-.018.267-.044.492-.077a4.48,4.48,0,0,1,.646-.049,2.936,2.936,0,0,1,.569.049,1.012,1.012,0,0,1,.415.176.76.76,0,0,1,.253.35,1.718,1.718,0,0,1,.084.59v5.548h3.216a1.844,1.844,0,0,1,.183.415,1.741,1.741,0,0,1,.084.541,1.081,1.081,0,0,1-.239.794.872.872,0,0,1-.632.232H91.293Z" transform="translate(-71.968 -117.645)"/><path class="c" d="M102.067,126.465a1.212,1.212,0,0,1-1.307-1.306V117.9c.1-.018.267-.044.492-.077a4.487,4.487,0,0,1,.647-.049,2.929,2.929,0,0,1,.568.049,1.012,1.012,0,0,1,.415.176.76.76,0,0,1,.253.35,1.718,1.718,0,0,1,.084.59v5.548h3.216a1.815,1.815,0,0,1,.183.415,1.741,1.741,0,0,1,.084.541,1.081,1.081,0,0,1-.239.794.871.871,0,0,1-.631.232h-3.765Z" transform="translate(-75.536 -117.645)"/><path class="c" d="M113.262,118.164a2.969,2.969,0,0,1,.723-.267,3.853,3.853,0,0,1,.976-.126,3.529,3.529,0,0,1,1.243.2,1.082,1.082,0,0,1,.695.639q.253.73.548,1.7t.59,2q.295,1.032.576,2.036t.491,1.776a1.159,1.159,0,0,1-.506.316,2.4,2.4,0,0,1-.8.12,2.458,2.458,0,0,1-.569-.056,1.013,1.013,0,0,1-.379-.169.837.837,0,0,1-.239-.295,2.558,2.558,0,0,1-.161-.421l-.253-.969h-2.542c-.075.282-.15.571-.225.871s-.15.59-.225.871a3.705,3.705,0,0,1-.415.12,2.426,2.426,0,0,1-.526.049,1.845,1.845,0,0,1-1.061-.245.791.791,0,0,1-.344-.682,1.4,1.4,0,0,1,.056-.393c.037-.131.079-.286.126-.463q.1-.379.274-.941t.387-1.215q.211-.652.449-1.341t.449-1.3q.211-.61.386-1.088C113.106,118.576,113.2,118.332,113.262,118.164Zm1.685,1.812q-.2.59-.442,1.313t-.442,1.467h1.742q-.2-.758-.4-1.481t-.373-1.3Z" transform="translate(-78.881 -117.645)"/><path class="c" d="M127.353,123.62v2.7a3.892,3.892,0,0,1-.484.084,5.156,5.156,0,0,1-.653.042,2.927,2.927,0,0,1-.569-.049.954.954,0,0,1-.407-.176.782.782,0,0,1-.245-.35,1.71,1.71,0,0,1-.084-.59v-6.616a.619.619,0,0,1,.161-.457,1.161,1.161,0,0,1,.442-.259,5.278,5.278,0,0,1,1.11-.246,11.273,11.273,0,0,1,1.349-.077,4.488,4.488,0,0,1,2.921.815,2.715,2.715,0,0,1,.984,2.205,2.47,2.47,0,0,1-.449,1.489,3.223,3.223,0,0,1-1.068.955q.506.689,1,1.292a8.325,8.325,0,0,1,.772,1.1,1.326,1.326,0,0,1-.513.751,1.425,1.425,0,0,1-.836.26,1.822,1.822,0,0,1-.534-.07,1.292,1.292,0,0,1-.393-.2,1.59,1.59,0,0,1-.309-.309,4.119,4.119,0,0,1-.266-.393l-1.18-1.9h-.743Zm.885-1.868a1.228,1.228,0,0,0,.843-.274,1.021,1.021,0,0,0,.31-.808.97.97,0,0,0-.344-.807,1.748,1.748,0,0,0-1.089-.274,3.2,3.2,0,0,0-.337.014c-.084.01-.178.023-.281.042v2.106h.9Z" transform="translate(-83.534 -117.595)"/></g><g transform="translate(16.508 60.887)"><path class="c" d="M66.326,139.118a1.726,1.726,0,0,1-.77-.166,1.826,1.826,0,0,1-.572-.431l.181-.193a1.606,1.606,0,0,0,.518.391,1.461,1.461,0,0,0,.644.145,1.1,1.1,0,0,0,.722-.22.71.71,0,0,0,.265-.575.782.782,0,0,0-.057-.316.718.718,0,0,0-.153-.223.929.929,0,0,0-.225-.159q-.129-.066-.274-.132l-.6-.271c-.084-.036-.175-.08-.271-.132a1.129,1.129,0,0,1-.261-.2,1.013,1.013,0,0,1-.2-.277.859.859,0,0,1-.078-.382.885.885,0,0,1,.087-.395.947.947,0,0,1,.241-.307,1.117,1.117,0,0,1,.367-.2,1.427,1.427,0,0,1,.46-.072,1.39,1.39,0,0,1,.641.142,1.642,1.642,0,0,1,.46.334l-.156.181a1.384,1.384,0,0,0-.409-.292,1.236,1.236,0,0,0-.536-.112.991.991,0,0,0-.638.193.628.628,0,0,0-.241.518.6.6,0,0,0,.066.294.739.739,0,0,0,.169.208,1.242,1.242,0,0,0,.223.151c.08.042.156.079.229.111l.6.265a2.544,2.544,0,0,1,.319.162,1.271,1.271,0,0,1,.265.211.921.921,0,0,1,.183.286,1.017,1.017,0,0,1,.07.394,1,1,0,0,1-.09.425.985.985,0,0,1-.255.337,1.222,1.222,0,0,1-.4.223A1.594,1.594,0,0,1,66.326,139.118Z" transform="translate(-64.984 -134.028)"/><path class="c" d="M71.385,139.118a1.471,1.471,0,0,1-.656-.148,1.5,1.5,0,0,1-.518-.419,1.985,1.985,0,0,1-.337-.653,2.825,2.825,0,0,1-.12-.851,2.77,2.77,0,0,1,.12-.846,1.977,1.977,0,0,1,.337-.644,1.448,1.448,0,0,1,.518-.409,1.6,1.6,0,0,1,1.318,0,1.462,1.462,0,0,1,.518.409,1.977,1.977,0,0,1,.337.644,2.77,2.77,0,0,1,.12.846,2.818,2.818,0,0,1-.12.851,1.986,1.986,0,0,1-.337.653,1.472,1.472,0,0,1-1.18.566Zm0-.253a1.154,1.154,0,0,0,.548-.13,1.254,1.254,0,0,0,.425-.367,1.75,1.75,0,0,0,.274-.571,2.706,2.706,0,0,0,.1-.75,2.646,2.646,0,0,0-.1-.74,1.7,1.7,0,0,0-.274-.563,1.255,1.255,0,0,0-.425-.358,1.184,1.184,0,0,0-.548-.126,1.2,1.2,0,0,0-.551.126,1.216,1.216,0,0,0-.424.358,1.73,1.73,0,0,0-.271.563,2.647,2.647,0,0,0-.1.74,2.706,2.706,0,0,0,.1.75,1.789,1.789,0,0,0,.271.571,1.215,1.215,0,0,0,.424.367A1.175,1.175,0,0,0,71.385,138.865Z" transform="translate(-66.564 -134.027)"/><path class="c" d="M76,135.115h.277v3.725h1.83v.241H76Z" transform="translate(-68.633 -134.063)"/><path class="c" d="M81.3,139.154a1.642,1.642,0,0,1-.494-.076,1.034,1.034,0,0,1-.427-.259,1.3,1.3,0,0,1-.3-.49,2.278,2.278,0,0,1-.112-.77v-2.443h.277v2.413a2.11,2.11,0,0,0,.087.659,1.168,1.168,0,0,0,.232.422.812.812,0,0,0,.334.225,1.205,1.205,0,0,0,.4.067,1.258,1.258,0,0,0,.412-.067.82.82,0,0,0,.343-.225,1.174,1.174,0,0,0,.237-.422,2.047,2.047,0,0,0,.09-.659v-2.413h.259v2.443a2.223,2.223,0,0,1-.114.77,1.318,1.318,0,0,1-.3.49,1.034,1.034,0,0,1-.427.259A1.665,1.665,0,0,1,81.3,139.154Z" transform="translate(-69.947 -134.063)"/><path class="c" d="M86.976,139.118a1.553,1.553,0,0,1-.673-.145,1.5,1.5,0,0,1-.527-.412,1.924,1.924,0,0,1-.34-.65,2.849,2.849,0,0,1-.12-.857,2.735,2.735,0,0,1,.124-.849,1.945,1.945,0,0,1,.346-.647,1.482,1.482,0,0,1,.533-.409,1.63,1.63,0,0,1,.69-.142,1.265,1.265,0,0,1,.614.144,1.461,1.461,0,0,1,.421.331l-.162.187a1.248,1.248,0,0,0-.38-.3,1.049,1.049,0,0,0-.488-.112,1.329,1.329,0,0,0-.587.126,1.277,1.277,0,0,0-.446.358,1.628,1.628,0,0,0-.28.563,2.672,2.672,0,0,0-.1.746,2.7,2.7,0,0,0,.1.749,1.7,1.7,0,0,0,.277.569,1.269,1.269,0,0,0,.437.364,1.244,1.244,0,0,0,.574.13,1.183,1.183,0,0,0,.547-.124,1.6,1.6,0,0,0,.457-.365l.163.175a1.77,1.77,0,0,1-.512.415A1.378,1.378,0,0,1,86.976,139.118Zm-.457,1.065a1.434,1.434,0,0,0,.536-.1.239.239,0,0,0,.145-.217.225.225,0,0,0-.108-.2.951.951,0,0,0-.36-.106l.245-.523h.211l-.181.4a.8.8,0,0,1,.31.142.328.328,0,0,1,.118.274.388.388,0,0,1-.223.358,1.6,1.6,0,0,1-.649.153Z" transform="translate(-71.718 -134.027)"/><path class="c" d="M91.807,138.633a1.466,1.466,0,0,1-.655-.148,1.492,1.492,0,0,1-.518-.419,1.986,1.986,0,0,1-.337-.653,2.824,2.824,0,0,1-.12-.851,2.77,2.77,0,0,1,.12-.846,1.977,1.977,0,0,1,.337-.644,1.453,1.453,0,0,1,.518-.409,1.6,1.6,0,0,1,1.318,0,1.457,1.457,0,0,1,.518.409,1.977,1.977,0,0,1,.337.644,2.77,2.77,0,0,1,.12.846,2.819,2.819,0,0,1-.12.851,1.986,1.986,0,0,1-.337.653,1.5,1.5,0,0,1-.518.419A1.48,1.48,0,0,1,91.807,138.633Zm0-.253a1.152,1.152,0,0,0,.548-.13,1.254,1.254,0,0,0,.425-.367,1.75,1.75,0,0,0,.274-.571,2.706,2.706,0,0,0,.1-.75,2.646,2.646,0,0,0-.1-.74,1.7,1.7,0,0,0-.274-.563,1.255,1.255,0,0,0-.425-.358,1.184,1.184,0,0,0-.548-.126,1.2,1.2,0,0,0-.55.126,1.224,1.224,0,0,0-.425.358,1.716,1.716,0,0,0-.27.563,2.621,2.621,0,0,0-.1.74,2.681,2.681,0,0,0,.1.75,1.788,1.788,0,0,0,.27.571,1.224,1.224,0,0,0,.425.367A1.17,1.17,0,0,0,91.807,138.38Zm.464-4.141a.546.546,0,0,1-.295-.075,1.681,1.681,0,0,1-.219-.163q-.1-.087-.193-.163a.338.338,0,0,0-.219-.075.268.268,0,0,0-.223.124.645.645,0,0,0-.108.334l-.2-.017a.853.853,0,0,1,.148-.473.443.443,0,0,1,.382-.189.544.544,0,0,1,.294.075,1.735,1.735,0,0,1,.22.163c.066.058.13.112.193.163a.338.338,0,0,0,.219.075.252.252,0,0,0,.217-.126.812.812,0,0,0,.114-.337l.2.018a.868.868,0,0,1-.148.476A.44.44,0,0,1,92.271,134.239Z" transform="translate(-73.328 -133.542)"/><path class="c" d="M96.422,135.115h2.173v.24H96.7v1.5h1.589v.241H96.7v1.745h1.956v.241H96.422Z" transform="translate(-75.396 -134.063)"/><path class="c" d="M101.94,139.118a1.726,1.726,0,0,1-.77-.166,1.823,1.823,0,0,1-.571-.431l.181-.193a1.621,1.621,0,0,0,.518.391,1.461,1.461,0,0,0,.644.145,1.1,1.1,0,0,0,.722-.22.71.71,0,0,0,.265-.575.782.782,0,0,0-.058-.316.718.718,0,0,0-.153-.223.933.933,0,0,0-.226-.159c-.086-.044-.178-.088-.274-.132l-.6-.271c-.084-.036-.175-.08-.27-.132a1.133,1.133,0,0,1-.262-.2,1.014,1.014,0,0,1-.2-.277.859.859,0,0,1-.078-.382.885.885,0,0,1,.088-.395.947.947,0,0,1,.241-.307,1.11,1.11,0,0,1,.367-.2,1.427,1.427,0,0,1,.46-.072,1.39,1.39,0,0,1,.641.142,1.633,1.633,0,0,1,.46.334l-.156.181a1.384,1.384,0,0,0-.409-.292,1.234,1.234,0,0,0-.536-.112.991.991,0,0,0-.638.193.628.628,0,0,0-.241.518.594.594,0,0,0,.067.294.716.716,0,0,0,.169.208,1.242,1.242,0,0,0,.223.151c.08.042.156.079.229.111l.6.265a2.591,2.591,0,0,1,.319.162,1.271,1.271,0,0,1,.265.211.946.946,0,0,1,.183.286,1.029,1.029,0,0,1,.07.394.99.99,0,0,1-.091.425.976.976,0,0,1-.255.337,1.209,1.209,0,0,1-.4.223A1.6,1.6,0,0,1,101.94,139.118Z" transform="translate(-76.78 -134.028)"/><path class="c" d="M107.546,135.115h.289l1.673,2.8.445.789h.024c-.008-.193-.015-.385-.024-.577s-.012-.385-.012-.578v-2.432h.265v3.967h-.289l-1.673-2.8-.445-.789h-.024c.008.193.016.38.024.563s.012.371.012.563v2.462h-.265Z" transform="translate(-79.081 -134.063)"/><path class="c" d="M114.523,139.118a1.466,1.466,0,0,1-.655-.148,1.493,1.493,0,0,1-.518-.419,1.985,1.985,0,0,1-.337-.653,2.825,2.825,0,0,1-.12-.851,2.77,2.77,0,0,1,.12-.846,1.977,1.977,0,0,1,.337-.644,1.453,1.453,0,0,1,.518-.409,1.6,1.6,0,0,1,1.318,0,1.457,1.457,0,0,1,.518.409,1.977,1.977,0,0,1,.337.644,2.77,2.77,0,0,1,.12.846,2.818,2.818,0,0,1-.12.851,1.986,1.986,0,0,1-.337.653,1.505,1.505,0,0,1-.518.419A1.483,1.483,0,0,1,114.523,139.118Zm0-.253a1.152,1.152,0,0,0,.548-.13,1.254,1.254,0,0,0,.425-.367,1.75,1.75,0,0,0,.274-.571,2.705,2.705,0,0,0,.1-.75,2.645,2.645,0,0,0-.1-.74,1.7,1.7,0,0,0-.274-.563,1.255,1.255,0,0,0-.425-.358,1.184,1.184,0,0,0-.548-.126,1.2,1.2,0,0,0-.55.126,1.224,1.224,0,0,0-.425.358,1.716,1.716,0,0,0-.27.563,2.621,2.621,0,0,0-.1.74,2.68,2.68,0,0,0,.1.75,1.788,1.788,0,0,0,.27.571,1.223,1.223,0,0,0,.425.367A1.17,1.17,0,0,0,114.523,138.865Z" transform="translate(-80.851 -134.027)"/><path class="c" d="M120.938,135.115h.277v3.725h1.83v.241h-2.107Z" transform="translate(-83.516 -134.063)"/><path class="c" d="M126.729,137.721h-1.571l-.47,1.36h-.277l1.4-3.967h.277l1.4,3.967h-.289Zm-.078-.235-.253-.74c-.08-.237-.157-.463-.229-.68s-.142-.447-.211-.692h-.024q-.1.367-.21.692c-.072.217-.149.443-.229.68l-.253.74Z" transform="translate(-84.667 -134.063)"/><path class="c" d="M132.143,139.082l-1.077-1.824h-.843v1.824h-.277v-3.967h1.138a2.321,2.321,0,0,1,.536.057,1.1,1.1,0,0,1,.409.183.858.858,0,0,1,.262.325,1.126,1.126,0,0,1,.093.482,1,1,0,0,1-.274.746,1.24,1.24,0,0,1-.743.331l1.1,1.842h-.32Zm-1.132-2.053a1.316,1.316,0,0,0,.81-.213.771.771,0,0,0,.28-.653.692.692,0,0,0-.283-.629,1.482,1.482,0,0,0-.807-.183h-.789v1.679h.789Z" transform="translate(-86.5 -134.063)"/></g><g transform="translate(18.453)"><g transform="translate(11.083 10.96)"><circle class="d" cx="8.577" cy="8.577" r="8.577"/></g><g transform="translate(18.176)"><path class="e" d="M96.682,103.546h0a1.365,1.365,0,0,1-1.361-1.361V96.742a1.365,1.365,0,0,1,1.361-1.361h0a1.365,1.365,0,0,1,1.361,1.361v5.443A1.365,1.365,0,0,1,96.682,103.546Z" transform="translate(-95.321 -64.473)"/><path class="e" d="M96.866,57.331h0A1.365,1.365,0,0,1,95.5,55.97V50.527a1.365,1.365,0,0,1,1.361-1.361h0a1.365,1.365,0,0,1,1.361,1.361V55.97A1.366,1.366,0,0,1,96.866,57.331Z" transform="translate(-95.382 -49.166)"/></g><g transform="translate(0 18.053)"><path class="e" d="M122.524,77.7h0a1.365,1.365,0,0,1-1.361,1.361H115.72a1.365,1.365,0,0,1-1.361-1.361h0a1.365,1.365,0,0,1,1.361-1.361h5.443A1.366,1.366,0,0,1,122.524,77.7Z" transform="translate(-83.45 -76.221)"/><path class="e" d="M76.308,77.521h0a1.365,1.365,0,0,1-1.361,1.361H69.5a1.365,1.365,0,0,1-1.361-1.361h0A1.365,1.365,0,0,1,69.5,76.16h5.443A1.365,1.365,0,0,1,76.308,77.521Z" transform="translate(-68.143 -76.16)"/></g><g transform="translate(7.164 6.318)"><path class="e" d="M109.681,62.858h0a1.365,1.365,0,0,1,0-1.924L111.6,59.01a1.365,1.365,0,0,1,1.924,0h0a1.365,1.365,0,0,1,0,1.924L111.6,62.858A1.365,1.365,0,0,1,109.681,62.858Z" transform="translate(-88.933 -58.613)"/><path class="e" d="M83.1,62.858h0a1.365,1.365,0,0,1-1.924,0l-1.924-1.924a1.365,1.365,0,0,1,0-1.924h0a1.365,1.365,0,0,1,1.924,0L83.1,60.934A1.365,1.365,0,0,1,83.1,62.858Z" transform="translate(-78.855 -58.613)"/></g><g transform="translate(7.164 28.115)"><path class="e" d="M109.681,91.6h0a1.365,1.365,0,0,0,0,1.924l1.924,1.924a1.365,1.365,0,0,0,1.924,0h0a1.365,1.365,0,0,0,0-1.924L111.6,91.6A1.365,1.365,0,0,0,109.681,91.6Z" transform="translate(-88.933 -91.204)"/><path class="e" d="M83.1,91.6h0a1.365,1.365,0,0,0-1.924,0l-1.924,1.924a1.365,1.365,0,0,0,0,1.924h0a1.365,1.365,0,0,0,1.924,0L83.1,93.525A1.365,1.365,0,0,0,83.1,91.6Z" transform="translate(-78.855 -91.204)"/></g></g></g></g></svg>
