<svg xmlns="http://www.w3.org/2000/svg" width="156.989" height="139.823" viewBox="0 0 156.989 139.823"><defs><style>.a{fill:none;}.a,.b{stroke:#0899ba;stroke-width:5.8px;}.a,.b,.d{stroke-linecap:round;stroke-linejoin:round;stroke-miterlimit:10;}.b{fill:rgba(15,255,255,0);}.c{fill:#0899ba;}.d{fill:#f6e58d;stroke:#f9ca24;stroke-width:4px;}.e{fill:#f9ca24;}</style></defs><g transform="translate(-574.1 -45.493)"><g transform="translate(-101 -22.507)"><path class="a" d="M54.628,148.047V123.282H43.87L84.533,88.138" transform="translate(634.13 32.349)"/><path class="b" d="M122.954,88.138,167.635,128H155.791v44.576" transform="translate(661.554 32.349)"/><path class="c" d="M68.617,128.428q-1.244-.426-2.263-.863A6.908,6.908,0,0,1,64.6,126.5a4.391,4.391,0,0,1-1.146-1.486,4.878,4.878,0,0,1-.411-2.106,4.626,4.626,0,0,1,1.852-3.845,8.278,8.278,0,0,1,5.19-1.442,14.156,14.156,0,0,1,2.263.17,6.741,6.741,0,0,1,1.8.524,3.118,3.118,0,0,1,1.174.905,2.054,2.054,0,0,1,.424,1.286,2.264,2.264,0,0,1-.339,1.259,3.508,3.508,0,0,1-.82.892,6.392,6.392,0,0,0-1.669-.694,8.368,8.368,0,0,0-2.291-.3,3.776,3.776,0,0,0-1.867.354,1.031,1.031,0,0,0-.594.89.824.824,0,0,0,.368.694,3.749,3.749,0,0,0,1.1.494l1.5.481a10.857,10.857,0,0,1,4.086,2.163,4.625,4.625,0,0,1,1.429,3.577,4.709,4.709,0,0,1-1.895,3.889,8.9,8.9,0,0,1-5.572,1.485,13.068,13.068,0,0,1-2.417-.211,7.652,7.652,0,0,1-1.951-.622,3.607,3.607,0,0,1-1.3-1.018,2.239,2.239,0,0,1-.467-1.4,2.12,2.12,0,0,1,.481-1.4,3.668,3.668,0,0,1,1.046-.892,7.667,7.667,0,0,0,1.937,1.075,6.727,6.727,0,0,0,2.5.453,3.359,3.359,0,0,0,1.951-.423,1.223,1.223,0,0,0,.566-.99.973.973,0,0,0-.453-.863,5.956,5.956,0,0,0-1.273-.579Z" transform="translate(640.779 42.574)"/><path class="c" d="M74.595,126.659a10.23,10.23,0,0,1,.694-3.9,7.866,7.866,0,0,1,4.723-4.58,10.734,10.734,0,0,1,7.042,0,8.21,8.21,0,0,1,2.843,1.739,8,8,0,0,1,1.908,2.842,10.265,10.265,0,0,1,.692,3.9,10.558,10.558,0,0,1-.679,3.916,7.911,7.911,0,0,1-1.88,2.857,8.035,8.035,0,0,1-2.842,1.739,10.36,10.36,0,0,1-3.564.594,10.173,10.173,0,0,1-3.564-.607,7.93,7.93,0,0,1-2.828-1.768,8.182,8.182,0,0,1-1.867-2.857A10.328,10.328,0,0,1,74.595,126.659Zm5.091,0a5.96,5.96,0,0,0,1.046,3.845,3.747,3.747,0,0,0,5.628,0,7.58,7.58,0,0,0,.014-7.663,3.43,3.43,0,0,0-2.813-1.273,3.5,3.5,0,0,0-2.813,1.259A5.837,5.837,0,0,0,79.686,126.659Z" transform="translate(644.784 42.559)"/><path class="c" d="M92.617,135.277a2.441,2.441,0,0,1-2.63-2.63V118.025c.207-.036.537-.089.99-.155a9.023,9.023,0,0,1,1.3-.1,5.914,5.914,0,0,1,1.146.1,2.039,2.039,0,0,1,.835.354,1.531,1.531,0,0,1,.509.706,3.459,3.459,0,0,1,.17,1.188V131.29h6.477a3.714,3.714,0,0,1,.368.835,3.505,3.505,0,0,1,.17,1.09,2.177,2.177,0,0,1-.481,1.6,1.756,1.756,0,0,1-1.273.467H92.617Z" transform="translate(650.122 42.625)"/><path class="c" d="M103.392,135.277a2.441,2.441,0,0,1-2.632-2.63V118.025c.207-.036.537-.089.99-.155a9.034,9.034,0,0,1,1.3-.1,5.9,5.9,0,0,1,1.145.1,2.038,2.038,0,0,1,.835.354,1.531,1.531,0,0,1,.509.706,3.46,3.46,0,0,1,.17,1.188V131.29h6.477a3.654,3.654,0,0,1,.368.835,3.5,3.5,0,0,1,.17,1.09,2.177,2.177,0,0,1-.481,1.6,1.755,1.755,0,0,1-1.271.467h-7.581Z" transform="translate(653.857 42.625)"/><path class="c" d="M115.7,118.562a5.979,5.979,0,0,1,1.456-.537,7.758,7.758,0,0,1,1.966-.253,7.106,7.106,0,0,1,2.5.409,2.178,2.178,0,0,1,1.4,1.288q.509,1.471,1.1,3.422t1.188,4.03q.594,2.079,1.16,4.1t.989,3.577a2.335,2.335,0,0,1-1.018.637,4.827,4.827,0,0,1-1.611.241,4.949,4.949,0,0,1-1.146-.113,2.039,2.039,0,0,1-.764-.339,1.686,1.686,0,0,1-.481-.594,5.152,5.152,0,0,1-.325-.848l-.509-1.952h-5.119c-.151.567-.3,1.15-.453,1.755s-.3,1.188-.453,1.754a7.456,7.456,0,0,1-.835.241,4.884,4.884,0,0,1-1.06.1,3.716,3.716,0,0,1-2.136-.494,1.593,1.593,0,0,1-.692-1.372,2.821,2.821,0,0,1,.113-.792c.075-.264.159-.575.253-.933q.2-.764.551-1.895t.778-2.446q.424-1.313.905-2.7t.905-2.617q.424-1.228.777-2.191C115.382,119.392,115.566,118.9,115.7,118.562Zm3.394,3.648q-.4,1.188-.89,2.644t-.89,2.955h3.507q-.4-1.527-.807-2.983t-.75-2.615Z" transform="translate(657.361 42.625)"/><path class="c" d="M129.83,129.7v5.43a7.837,7.837,0,0,1-.975.17,10.383,10.383,0,0,1-1.316.085,5.894,5.894,0,0,1-1.146-.1,1.921,1.921,0,0,1-.82-.354,1.575,1.575,0,0,1-.494-.706,3.443,3.443,0,0,1-.17-1.188V119.715a1.247,1.247,0,0,1,.325-.92,2.338,2.338,0,0,1,.89-.523,10.627,10.627,0,0,1,2.234-.5,22.7,22.7,0,0,1,2.716-.155q3.9,0,5.881,1.64a5.467,5.467,0,0,1,1.981,4.44,4.975,4.975,0,0,1-.905,3,6.489,6.489,0,0,1-2.151,1.923q1.018,1.388,2.008,2.6a16.765,16.765,0,0,1,1.556,2.207,2.671,2.671,0,0,1-1.033,1.512,2.87,2.87,0,0,1-1.683.524,3.67,3.67,0,0,1-1.075-.14,2.6,2.6,0,0,1-.792-.4,3.2,3.2,0,0,1-.622-.622,8.3,8.3,0,0,1-.536-.792l-2.377-3.818h-1.5Zm1.783-3.762a2.473,2.473,0,0,0,1.7-.551,2.057,2.057,0,0,0,.624-1.627,1.953,1.953,0,0,0-.694-1.626,3.52,3.52,0,0,0-2.193-.551,6.438,6.438,0,0,0-.679.028c-.17.02-.358.047-.566.085v4.241h1.81Z" transform="translate(662.232 42.573)"/><path class="c" d="M67.687,143.285a3.476,3.476,0,0,1-1.551-.334,3.677,3.677,0,0,1-1.152-.867l.364-.388a3.235,3.235,0,0,0,1.042.788,2.942,2.942,0,0,0,1.3.292,2.21,2.21,0,0,0,1.455-.443,1.431,1.431,0,0,0,.533-1.157,1.576,1.576,0,0,0-.114-.637,1.446,1.446,0,0,0-.308-.448,1.869,1.869,0,0,0-.454-.321q-.261-.133-.552-.267l-1.212-.545c-.17-.073-.352-.16-.545-.265a2.273,2.273,0,0,1-.527-.395,2.039,2.039,0,0,1-.393-.558,1.729,1.729,0,0,1-.158-.769,1.782,1.782,0,0,1,.175-.795,1.907,1.907,0,0,1,.485-.618,2.25,2.25,0,0,1,.739-.405,2.874,2.874,0,0,1,.927-.145,2.8,2.8,0,0,1,1.29.286,3.309,3.309,0,0,1,.927.672l-.315.365a2.787,2.787,0,0,0-.824-.589,2.489,2.489,0,0,0-1.079-.225,2,2,0,0,0-1.285.388,1.265,1.265,0,0,0-.485,1.042,1.212,1.212,0,0,0,.133.593,1.488,1.488,0,0,0,.339.419,2.5,2.5,0,0,0,.448.3c.162.085.315.159.461.224l1.212.533a5.122,5.122,0,0,1,.642.326,2.56,2.56,0,0,1,.533.424,1.856,1.856,0,0,1,.369.576,2.047,2.047,0,0,1,.14.793,2.013,2.013,0,0,1-.182.855,1.983,1.983,0,0,1-.514.679,2.46,2.46,0,0,1-.807.448A3.209,3.209,0,0,1,67.687,143.285Z" transform="translate(641.452 48.602)"/><path class="c" d="M73.039,143.286a2.963,2.963,0,0,1-1.321-.3,3.018,3.018,0,0,1-1.042-.843A4,4,0,0,1,70,140.829a5.688,5.688,0,0,1-.242-1.714,5.579,5.579,0,0,1,.242-1.7,3.981,3.981,0,0,1,.679-1.3,2.916,2.916,0,0,1,1.042-.823,3.228,3.228,0,0,1,2.655,0,2.944,2.944,0,0,1,1.042.823,3.98,3.98,0,0,1,.679,1.3,5.579,5.579,0,0,1,.242,1.7,5.676,5.676,0,0,1-.242,1.714,4,4,0,0,1-.679,1.316,2.965,2.965,0,0,1-2.376,1.141Zm0-.509a2.323,2.323,0,0,0,1.1-.261,2.524,2.524,0,0,0,.855-.739,3.524,3.524,0,0,0,.551-1.15,5.448,5.448,0,0,0,.194-1.51,5.328,5.328,0,0,0-.194-1.49A3.424,3.424,0,0,0,75,136.493a2.527,2.527,0,0,0-.855-.721,2.383,2.383,0,0,0-1.1-.255,2.423,2.423,0,0,0-1.11.255,2.449,2.449,0,0,0-.854.721,3.485,3.485,0,0,0-.545,1.134,5.329,5.329,0,0,0-.194,1.49,5.449,5.449,0,0,0,.194,1.51,3.6,3.6,0,0,0,.545,1.15,2.447,2.447,0,0,0,.854.739A2.365,2.365,0,0,0,73.039,142.777Z" transform="translate(643.107 48.601)"/><path class="c" d="M76,135.115h.558v7.5h3.685v.485H76Z" transform="translate(645.272 48.639)"/><path class="c" d="M82.649,143.248a3.307,3.307,0,0,1-.994-.152,2.083,2.083,0,0,1-.861-.521,2.615,2.615,0,0,1-.6-.987,4.587,4.587,0,0,1-.225-1.552v-4.92h.558v4.859A4.248,4.248,0,0,0,80.7,141.3a2.353,2.353,0,0,0,.467.85,1.635,1.635,0,0,0,.673.454,2.427,2.427,0,0,0,.807.135,2.534,2.534,0,0,0,.83-.135,1.651,1.651,0,0,0,.691-.454,2.365,2.365,0,0,0,.478-.85,4.121,4.121,0,0,0,.182-1.327v-4.859h.521v4.92a4.477,4.477,0,0,1-.23,1.552,2.654,2.654,0,0,1-.606.987,2.083,2.083,0,0,1-.861.521A3.353,3.353,0,0,1,82.649,143.248Z" transform="translate(646.65 48.639)"/><path class="c" d="M88.66,143.286a3.128,3.128,0,0,1-1.356-.292,3.023,3.023,0,0,1-1.061-.83,3.874,3.874,0,0,1-.686-1.309,5.737,5.737,0,0,1-.242-1.727,5.508,5.508,0,0,1,.249-1.71,3.915,3.915,0,0,1,.7-1.3,2.985,2.985,0,0,1,1.073-.823,3.282,3.282,0,0,1,1.389-.286,2.548,2.548,0,0,1,1.236.291,2.942,2.942,0,0,1,.847.667l-.326.376a2.513,2.513,0,0,0-.765-.6,2.113,2.113,0,0,0-.982-.225,2.676,2.676,0,0,0-1.181.255,2.571,2.571,0,0,0-.9.72,3.279,3.279,0,0,0-.563,1.134,5.379,5.379,0,0,0-.194,1.5,5.446,5.446,0,0,0,.194,1.508,3.42,3.42,0,0,0,.558,1.146,2.556,2.556,0,0,0,.879.733,2.5,2.5,0,0,0,1.157.261,2.382,2.382,0,0,0,1.1-.249,3.226,3.226,0,0,0,.921-.734l.329.352A3.564,3.564,0,0,1,90,142.98,2.775,2.775,0,0,1,88.66,143.286Zm-.921,2.145a2.886,2.886,0,0,0,1.079-.206.481.481,0,0,0,.292-.436.454.454,0,0,0-.218-.405,1.916,1.916,0,0,0-.726-.213l.494-1.053h.426l-.364.812a1.613,1.613,0,0,1,.624.286.661.661,0,0,1,.237.551.782.782,0,0,1-.45.721,3.225,3.225,0,0,1-1.308.308Z" transform="translate(648.503 48.601)"/><path class="c" d="M93.459,143.794a2.952,2.952,0,0,1-1.32-.3,3.005,3.005,0,0,1-1.042-.843,4,4,0,0,1-.679-1.316,5.688,5.688,0,0,1-.242-1.714,5.578,5.578,0,0,1,.242-1.7,3.981,3.981,0,0,1,.679-1.3,2.926,2.926,0,0,1,1.042-.823,3.224,3.224,0,0,1,2.653,0,2.933,2.933,0,0,1,1.042.823,3.98,3.98,0,0,1,.679,1.3,5.579,5.579,0,0,1,.242,1.7,5.676,5.676,0,0,1-.242,1.714,4,4,0,0,1-.679,1.316,3.03,3.03,0,0,1-1.042.843A2.981,2.981,0,0,1,93.459,143.794Zm0-.509a2.319,2.319,0,0,0,1.1-.261,2.526,2.526,0,0,0,.855-.739,3.524,3.524,0,0,0,.551-1.15,5.449,5.449,0,0,0,.2-1.51,5.328,5.328,0,0,0-.2-1.49A3.424,3.424,0,0,0,95.418,137a2.527,2.527,0,0,0-.855-.721,2.383,2.383,0,0,0-1.1-.255,2.418,2.418,0,0,0-1.108.255A2.465,2.465,0,0,0,91.5,137a3.455,3.455,0,0,0-.544,1.134,5.278,5.278,0,0,0-.2,1.49,5.4,5.4,0,0,0,.2,1.51,3.6,3.6,0,0,0,.544,1.15,2.465,2.465,0,0,0,.855.739A2.356,2.356,0,0,0,93.459,143.285Zm.935-8.339a1.1,1.1,0,0,1-.594-.151,3.385,3.385,0,0,1-.442-.327q-.2-.176-.388-.327a.681.681,0,0,0-.442-.151.541.541,0,0,0-.448.249,1.3,1.3,0,0,0-.218.672l-.4-.035a1.718,1.718,0,0,1,.3-.952.892.892,0,0,1,.769-.381,1.1,1.1,0,0,1,.593.151,3.5,3.5,0,0,1,.443.327c.133.117.261.226.388.327a.681.681,0,0,0,.442.151.508.508,0,0,0,.436-.255,1.636,1.636,0,0,0,.23-.679l.4.036a1.747,1.747,0,0,1-.3.958A.887.887,0,0,1,94.394,134.945Z" transform="translate(650.188 48.094)"/><path class="c" d="M96.422,135.115H100.8v.483H96.98v3.018h3.2v.485h-3.2v3.514h3.939v.485h-4.5Z" transform="translate(652.354 48.639)"/><path class="c" d="M103.3,143.285a3.476,3.476,0,0,1-1.552-.334,3.672,3.672,0,0,1-1.15-.867l.364-.388a3.265,3.265,0,0,0,1.042.788,2.942,2.942,0,0,0,1.3.292,2.21,2.21,0,0,0,1.454-.443,1.431,1.431,0,0,0,.533-1.157,1.575,1.575,0,0,0-.116-.637,1.446,1.446,0,0,0-.308-.448,1.877,1.877,0,0,0-.455-.321c-.174-.089-.358-.178-.551-.267l-1.212-.545c-.17-.073-.352-.16-.544-.265a2.282,2.282,0,0,1-.528-.395,2.043,2.043,0,0,1-.395-.558,1.729,1.729,0,0,1-.158-.769,1.783,1.783,0,0,1,.176-.795,1.907,1.907,0,0,1,.485-.618,2.236,2.236,0,0,1,.739-.405,2.874,2.874,0,0,1,.927-.145,2.8,2.8,0,0,1,1.29.286,3.29,3.29,0,0,1,.927.672l-.314.365a2.787,2.787,0,0,0-.824-.589,2.485,2.485,0,0,0-1.079-.225,2,2,0,0,0-1.285.388,1.266,1.266,0,0,0-.485,1.042,1.2,1.2,0,0,0,.135.593,1.444,1.444,0,0,0,.339.419,2.5,2.5,0,0,0,.448.3c.162.085.314.159.461.224l1.212.533a5.215,5.215,0,0,1,.642.326,2.56,2.56,0,0,1,.533.424,1.906,1.906,0,0,1,.369.576,2.072,2.072,0,0,1,.14.793,1.994,1.994,0,0,1-.183.855,1.966,1.966,0,0,1-.514.679,2.433,2.433,0,0,1-.807.448A3.218,3.218,0,0,1,103.3,143.285Z" transform="translate(653.803 48.602)"/><path class="c" d="M107.546,135.115h.582l3.37,5.636.9,1.588h.048c-.016-.388-.031-.774-.048-1.162s-.024-.776-.024-1.164v-4.9h.533V143.1h-.582l-3.37-5.636-.9-1.589h-.048c.016.388.032.765.048,1.134s.024.746.024,1.134V143.1h-.533Z" transform="translate(656.211 48.639)"/><path class="c" d="M116.175,143.286a2.953,2.953,0,0,1-1.32-.3,3.006,3.006,0,0,1-1.042-.843,4,4,0,0,1-.679-1.316,5.689,5.689,0,0,1-.242-1.714,5.579,5.579,0,0,1,.242-1.7,3.981,3.981,0,0,1,.679-1.3,2.927,2.927,0,0,1,1.042-.823,3.224,3.224,0,0,1,2.653,0,2.933,2.933,0,0,1,1.042.823,3.98,3.98,0,0,1,.679,1.3,5.578,5.578,0,0,1,.242,1.7,5.675,5.675,0,0,1-.242,1.714,4,4,0,0,1-.679,1.316,3.031,3.031,0,0,1-1.042.843A2.986,2.986,0,0,1,116.175,143.286Zm0-.509a2.319,2.319,0,0,0,1.1-.261,2.525,2.525,0,0,0,.855-.739,3.525,3.525,0,0,0,.551-1.15,5.448,5.448,0,0,0,.2-1.51,5.328,5.328,0,0,0-.2-1.49,3.424,3.424,0,0,0-.551-1.134,2.527,2.527,0,0,0-.855-.721,2.383,2.383,0,0,0-1.1-.255,2.418,2.418,0,0,0-1.108.255,2.465,2.465,0,0,0-.855.721,3.456,3.456,0,0,0-.544,1.134,5.279,5.279,0,0,0-.2,1.49,5.4,5.4,0,0,0,.2,1.51,3.6,3.6,0,0,0,.544,1.15,2.463,2.463,0,0,0,.855.739A2.356,2.356,0,0,0,116.175,142.777Z" transform="translate(658.066 48.601)"/><path class="c" d="M120.938,135.115h.558v7.5h3.685v.485h-4.242Z" transform="translate(660.855 48.639)"/><path class="c" d="M129.079,140.363h-3.164l-.945,2.739h-.558l2.812-7.988h.558l2.812,7.988h-.582Zm-.158-.473-.509-1.491c-.162-.477-.315-.932-.461-1.37s-.287-.9-.424-1.394h-.048q-.206.739-.423,1.394c-.145.436-.3.893-.461,1.37l-.509,1.491Z" transform="translate(662.061 48.639)"/><path class="c" d="M134.37,143.1l-2.17-3.673h-1.7V143.1h-.558v-7.988h2.291a4.675,4.675,0,0,1,1.079.114,2.225,2.225,0,0,1,.824.369,1.728,1.728,0,0,1,.528.655,2.268,2.268,0,0,1,.187.97,2.014,2.014,0,0,1-.551,1.5,2.5,2.5,0,0,1-1.5.667l2.206,3.709h-.644Zm-2.279-4.133a2.651,2.651,0,0,0,1.631-.43,1.552,1.552,0,0,0,.563-1.316,1.394,1.394,0,0,0-.57-1.266,2.984,2.984,0,0,0-1.624-.369H130.5v3.382h1.588Z" transform="translate(663.979 48.639)"/><circle class="d" cx="17.272" cy="17.272" r="17.272" transform="translate(733.008 90.071)"/><path class="e" d="M98.062,111.824h0a2.749,2.749,0,0,1-2.741-2.741V98.122a2.749,2.749,0,0,1,2.741-2.741h0a2.749,2.749,0,0,1,2.741,2.741v10.961A2.748,2.748,0,0,1,98.062,111.824Z" transform="translate(651.972 34.86)"/><path class="e" d="M98.246,65.609h0A2.749,2.749,0,0,1,95.5,62.868V51.907a2.749,2.749,0,0,1,2.741-2.741h0a2.749,2.749,0,0,1,2.741,2.741V62.868A2.75,2.75,0,0,1,98.246,65.609Z" transform="translate(652.036 18.834)"/><path class="e" d="M130.8,79.084h0a2.749,2.749,0,0,1-2.741,2.741H117.1a2.749,2.749,0,0,1-2.741-2.741h0a2.749,2.749,0,0,1,2.741-2.741h10.961A2.75,2.75,0,0,1,130.8,79.084Z" transform="translate(658.573 28.258)"/><path class="e" d="M84.586,78.9h0a2.749,2.749,0,0,1-2.741,2.741H70.884A2.749,2.749,0,0,1,68.143,78.9h0a2.749,2.749,0,0,1,2.741-2.741H81.845A2.748,2.748,0,0,1,84.586,78.9Z" transform="translate(642.548 28.195)"/><path class="e" d="M110.083,67.161h0a2.748,2.748,0,0,1,0-3.875l3.875-3.875a2.748,2.748,0,0,1,3.875,0h0a2.748,2.748,0,0,1,0,3.875l-3.875,3.875A2.748,2.748,0,0,1,110.083,67.161Z" transform="translate(656.815 22.11)"/><path class="e" d="M87.4,67.161h0a2.748,2.748,0,0,1-3.875,0l-3.875-3.875a2.748,2.748,0,0,1,0-3.875h0a2.748,2.748,0,0,1,3.875,0L87.4,63.286A2.748,2.748,0,0,1,87.4,67.161Z" transform="translate(646.262 22.11)"/><path class="e" d="M110.083,92h0a2.748,2.748,0,0,0,0,3.875l3.875,3.875a2.748,2.748,0,0,0,3.875,0h0a2.748,2.748,0,0,0,0-3.875L113.957,92A2.748,2.748,0,0,0,110.083,92Z" transform="translate(656.815 33.411)"/><path class="e" d="M87.4,92h0a2.748,2.748,0,0,0-3.875,0l-3.875,3.875a2.748,2.748,0,0,0,0,3.875h0a2.748,2.748,0,0,0,3.875,0L87.4,95.877A2.748,2.748,0,0,0,87.4,92Z" transform="translate(646.262 33.411)"/></g></g></svg>