<svg id="Camada_1" data-name="Camada 1" xmlns="http://www.w3.org/2000/svg" viewBox="0 0 200 200"><defs><style>.cls-1{fill:none;stroke:#22a6b3;stroke-width:6px;}.cls-1,.cls-3{stroke-linecap:round;stroke-linejoin:round;}.cls-2{fill:#22a6b3;}.cls-3{fill:#f6e58d;stroke:#f9ca24;stroke-width:4px;}.cls-4{fill:#f9ca24;}</style></defs><title>sollar-marca</title><polyline class="cls-1" points="51.86 132.62 51.86 114.23 43.87 114.23 74.06 88.14"/><polyline class="cls-1" points="122.95 88.14 156.13 117.73 147.34 117.73 147.34 150.83"/><path class="cls-2" d="M67.18,125.65c-.61-.22-1.17-.43-1.68-.65a4.88,4.88,0,0,1-1.3-.78,3.3,3.3,0,0,1-.85-1.11,3.61,3.61,0,0,1-.31-1.56,3.45,3.45,0,0,1,1.38-2.86,6.16,6.16,0,0,1,3.85-1.07,10.82,10.82,0,0,1,1.68.13,4.71,4.71,0,0,1,1.34.39,2.3,2.3,0,0,1,.87.67,1.51,1.51,0,0,1,.31,1,1.67,1.67,0,0,1-.25.94,2.57,2.57,0,0,1-.61.66,4.59,4.59,0,0,0-1.24-.51,6,6,0,0,0-1.7-.22,2.72,2.72,0,0,0-1.38.26.74.74,0,0,0-.44.66.6.6,0,0,0,.27.51,2.53,2.53,0,0,0,.82.37l1.11.36a8,8,0,0,1,3,1.61,3.44,3.44,0,0,1,1.06,2.65,3.5,3.5,0,0,1-1.41,2.89A6.66,6.66,0,0,1,67.6,131a9.17,9.17,0,0,1-1.79-.16,5.15,5.15,0,0,1-1.45-.46,2.59,2.59,0,0,1-1-.75,1.67,1.67,0,0,1-.35-1,1.57,1.57,0,0,1,.36-1,2.64,2.64,0,0,1,.78-.66,5.75,5.75,0,0,0,1.44.79,4.85,4.85,0,0,0,1.86.34,2.52,2.52,0,0,0,1.45-.31.92.92,0,0,0,.42-.74.73.73,0,0,0-.34-.64,4.1,4.1,0,0,0-1-.43Z"/><path class="cls-2" d="M74.59,124.32a7.69,7.69,0,0,1,.52-2.9,5.93,5.93,0,0,1,1.41-2.11,6.08,6.08,0,0,1,2.1-1.29,7.6,7.6,0,0,1,2.61-.44,7.7,7.7,0,0,1,2.62.44A6.41,6.41,0,0,1,86,119.31a5.93,5.93,0,0,1,1.41,2.11,7.5,7.5,0,0,1,.52,2.9,7.79,7.79,0,0,1-.51,2.91A5.84,5.84,0,0,1,86,129.35a5.92,5.92,0,0,1-2.11,1.29,8.11,8.11,0,0,1-5.3,0,6,6,0,0,1-2.1-1.31,6.18,6.18,0,0,1-1.38-2.12A7.63,7.63,0,0,1,74.59,124.32Zm3.79,0a4.42,4.42,0,0,0,.77,2.86,2.55,2.55,0,0,0,2.08.94,2.58,2.58,0,0,0,2.1-.94,5.61,5.61,0,0,0,0-5.69,2.55,2.55,0,0,0-2.09-.95,2.58,2.58,0,0,0-2.09.94A4.36,4.36,0,0,0,78.38,124.32Z"/><path class="cls-2" d="M91.94,130.77a1.94,1.94,0,0,1-1.43-.53,1.91,1.91,0,0,1-.52-1.42V118l.73-.12a6.61,6.61,0,0,1,1-.07,4.36,4.36,0,0,1,.85.07,1.52,1.52,0,0,1,.62.27,1.14,1.14,0,0,1,.38.52,2.71,2.71,0,0,1,.12.88v8.3h4.81a3,3,0,0,1,.4,1.43,1.59,1.59,0,0,1-.36,1.18,1.28,1.28,0,0,1-.94.35Z"/><path class="cls-2" d="M102.71,130.77a1.83,1.83,0,0,1-1.95-2V118l.74-.12a6.39,6.39,0,0,1,1-.07,4.29,4.29,0,0,1,.85.07,1.46,1.46,0,0,1,.62.27,1.07,1.07,0,0,1,.38.52,2.68,2.68,0,0,1,.13.88v8.3h4.8a2.81,2.81,0,0,1,.28.62,2.74,2.74,0,0,1,.12.81,1.63,1.63,0,0,1-.35,1.18,1.32,1.32,0,0,1-1,.35Z"/><path class="cls-2" d="M114.45,118.36a4.26,4.26,0,0,1,1.08-.4,5.63,5.63,0,0,1,1.46-.19,5.34,5.34,0,0,1,1.86.3,1.64,1.64,0,0,1,1,1c.25.73.53,1.58.82,2.54s.59,2,.88,3,.58,2,.86,3l.74,2.65a1.72,1.72,0,0,1-.76.48,3.51,3.51,0,0,1-1.19.18,3.55,3.55,0,0,1-.86-.09,1.38,1.38,0,0,1-.56-.25,1.2,1.2,0,0,1-.36-.44,3.78,3.78,0,0,1-.24-.63l-.38-1.45H115l-.34,1.3c-.11.45-.22.88-.33,1.3a6.32,6.32,0,0,1-.62.18,3.56,3.56,0,0,1-.79.08,2.77,2.77,0,0,1-1.58-.37,1.18,1.18,0,0,1-.52-1,2,2,0,0,1,.09-.59l.18-.69c.1-.38.24-.85.41-1.41l.58-1.81c.21-.65.43-1.32.67-2l.67-1.94c.21-.61.41-1.15.58-1.63S114.35,118.61,114.45,118.36Zm2.52,2.71c-.19.59-.41,1.24-.66,2s-.47,1.45-.66,2.19h2.6c-.19-.75-.39-1.49-.6-2.21s-.38-1.37-.55-1.94Z"/><path class="cls-2" d="M128.56,126.59v4a5.4,5.4,0,0,1-.72.13,8.18,8.18,0,0,1-1,.06,4.36,4.36,0,0,1-.85-.07,1.42,1.42,0,0,1-.61-.27A1.11,1.11,0,0,1,125,130a2.4,2.4,0,0,1-.13-.88v-9.89a1,1,0,0,1,.24-.69,1.62,1.62,0,0,1,.66-.38,8,8,0,0,1,1.66-.37,16,16,0,0,1,2-.12,6.74,6.74,0,0,1,4.37,1.22,4.06,4.06,0,0,1,1.47,3.3,3.64,3.64,0,0,1-.68,2.22,4.69,4.69,0,0,1-1.59,1.43c.5.69,1,1.33,1.49,1.93a12.91,12.91,0,0,1,1.15,1.64,2,2,0,0,1-.76,1.13,2.19,2.19,0,0,1-1.25.38,2.69,2.69,0,0,1-.8-.1,1.93,1.93,0,0,1-.59-.3,2,2,0,0,1-.46-.46,6.75,6.75,0,0,1-.4-.59l-1.76-2.83Zm1.33-2.79a1.85,1.85,0,0,0,1.26-.41,1.54,1.54,0,0,0,.46-1.21,1.45,1.45,0,0,0-.52-1.21,2.6,2.6,0,0,0-1.62-.41l-.51,0-.42.07v3.15Z"/><path class="cls-2" d="M67,141.15a2.66,2.66,0,0,1-1.15-.24,2.79,2.79,0,0,1-.86-.65l.27-.29a2.37,2.37,0,0,0,.78.59,2.25,2.25,0,0,0,1,.22,1.62,1.62,0,0,0,1.08-.33,1.17,1.17,0,0,0,.31-1.33,1.13,1.13,0,0,0-.23-.34,1.47,1.47,0,0,0-.34-.24l-.4-.19-.9-.41a3.07,3.07,0,0,1-.41-.2,1.52,1.52,0,0,1-.39-.29,1.33,1.33,0,0,1-.29-.41,1.28,1.28,0,0,1-.12-.58,1.24,1.24,0,0,1,.13-.58,1.47,1.47,0,0,1,.36-.46,1.62,1.62,0,0,1,.55-.3A1.92,1.92,0,0,1,67,135a2.12,2.12,0,0,1,1,.21,2.55,2.55,0,0,1,.68.5l-.23.27a2.07,2.07,0,0,0-.61-.44,1.88,1.88,0,0,0-.8-.17,1.5,1.5,0,0,0-1,.29,1,1,0,0,0-.36.78,1,1,0,0,0,.1.44,1.26,1.26,0,0,0,.25.31,1.79,1.79,0,0,0,.34.22,3.59,3.59,0,0,0,.34.17l.9.4a3.58,3.58,0,0,1,.48.24,1.72,1.72,0,0,1,.39.31,1.39,1.39,0,0,1,.28.43,1.71,1.71,0,0,1,0,1.23,1.45,1.45,0,0,1-.39.5,1.73,1.73,0,0,1-.6.33A2.37,2.37,0,0,1,67,141.15Z"/><path class="cls-2" d="M72.19,141.15a2.17,2.17,0,0,1-1-.22,2.1,2.1,0,0,1-.77-.62,2.94,2.94,0,0,1-.51-1,4.57,4.57,0,0,1,0-2.54,2.94,2.94,0,0,1,.51-1,2.07,2.07,0,0,1,.77-.61,2.42,2.42,0,0,1,2,0,2.18,2.18,0,0,1,.78.61,3.12,3.12,0,0,1,.5,1,4.57,4.57,0,0,1,0,2.54,3.12,3.12,0,0,1-.5,1,2.21,2.21,0,0,1-.78.62A2.18,2.18,0,0,1,72.19,141.15Zm0-.37a1.72,1.72,0,0,0,.82-.2,1.86,1.86,0,0,0,.64-.55,2.8,2.8,0,0,0,.41-.85,4.29,4.29,0,0,0,.14-1.12,4.21,4.21,0,0,0-.14-1.11,2.74,2.74,0,0,0-.41-.84,2,2,0,0,0-.64-.54,1.83,1.83,0,0,0-.82-.19,1.87,1.87,0,0,0-.82.19,1.82,1.82,0,0,0-.63.54,2.53,2.53,0,0,0-.41.84,3.83,3.83,0,0,0-.14,1.11,3.9,3.9,0,0,0,.14,1.12,2.59,2.59,0,0,0,.41.85,1.77,1.77,0,0,0,1.45.75Z"/><path class="cls-2" d="M76,135.12h.41v5.57h2.74v.36H76Z"/><path class="cls-2" d="M82,141.15a2.33,2.33,0,0,1-.74-.11,1.48,1.48,0,0,1-.64-.39,1.92,1.92,0,0,1-.44-.73,3.4,3.4,0,0,1-.17-1.15v-3.65h.41v3.6a3.39,3.39,0,0,0,.13,1,1.89,1.89,0,0,0,.35.63,1.21,1.21,0,0,0,.5.34,2,2,0,0,0,.6.1,2.17,2.17,0,0,0,.62-.1,1.31,1.31,0,0,0,.51-.34,1.73,1.73,0,0,0,.35-.63,3.06,3.06,0,0,0,.14-1v-3.6H84v3.65a3.15,3.15,0,0,1-.18,1.15,1.82,1.82,0,0,1-.45.73,1.39,1.39,0,0,1-.63.39A2.35,2.35,0,0,1,82,141.15Z"/><path class="cls-2" d="M87.8,141.15a2.4,2.4,0,0,1-1-.21,2.36,2.36,0,0,1-.79-.62,3.06,3.06,0,0,1-.5-1,4.26,4.26,0,0,1-.18-1.28,4.19,4.19,0,0,1,.18-1.27,2.9,2.9,0,0,1,.52-1,2.22,2.22,0,0,1,.79-.61,2.51,2.51,0,0,1,1-.21,1.91,1.91,0,0,1,.91.21,2,2,0,0,1,.63.5l-.24.28a1.78,1.78,0,0,0-.57-.45,1.57,1.57,0,0,0-.73-.17,2.06,2.06,0,0,0-.87.19,2,2,0,0,0-.67.54,2.55,2.55,0,0,0-.42.84,4.23,4.23,0,0,0-.14,1.12,4.35,4.35,0,0,0,.14,1.12,2.7,2.7,0,0,0,.42.85,1.88,1.88,0,0,0,.65.54,1.91,1.91,0,0,0,1.68,0,2.25,2.25,0,0,0,.68-.54l.24.26a2.63,2.63,0,0,1-.76.62A2.11,2.11,0,0,1,87.8,141.15Zm-.68,1.6a2.23,2.23,0,0,0,.8-.16.34.34,0,0,0,.21-.32A.33.33,0,0,0,88,142a1.51,1.51,0,0,0-.54-.16l.37-.78h.32l-.27.6a1.31,1.31,0,0,1,.46.21.49.49,0,0,1,.17.41.59.59,0,0,1-.33.54,2.42,2.42,0,0,1-1,.23Z"/><path class="cls-2" d="M92.61,141.15a2.2,2.2,0,0,1-1.75-.84,2.92,2.92,0,0,1-.5-1,4.57,4.57,0,0,1,0-2.54,2.92,2.92,0,0,1,.5-1,2.15,2.15,0,0,1,.77-.61,2.42,2.42,0,0,1,2,0,2.18,2.18,0,0,1,.78.61,3.12,3.12,0,0,1,.5,1,4.57,4.57,0,0,1,0,2.54,3.12,3.12,0,0,1-.5,1,2.21,2.21,0,0,1-.78.62A2.18,2.18,0,0,1,92.61,141.15Zm0-.37a1.69,1.69,0,0,0,.82-.2,1.86,1.86,0,0,0,.64-.55,2.59,2.59,0,0,0,.41-.85,4.29,4.29,0,0,0,.14-1.12,4.21,4.21,0,0,0-.14-1.11,2.53,2.53,0,0,0-.41-.84,2,2,0,0,0-.64-.54,1.8,1.8,0,0,0-.82-.19,1.87,1.87,0,0,0-.82.19,1.82,1.82,0,0,0-.63.54,2.53,2.53,0,0,0-.41.84,4.21,4.21,0,0,0-.14,1.11,4.29,4.29,0,0,0,.14,1.12,2.59,2.59,0,0,0,.41.85,1.77,1.77,0,0,0,1.45.75Zm.7-6.2a.76.76,0,0,1-.44-.11,2,2,0,0,1-.33-.24l-.29-.24a.48.48,0,0,0-.33-.12.39.39,0,0,0-.33.19.9.9,0,0,0-.16.5l-.3,0a1.25,1.25,0,0,1,.22-.71.67.67,0,0,1,.57-.28.84.84,0,0,1,.44.11,2.85,2.85,0,0,1,.33.25l.29.24a.52.52,0,0,0,.33.11.36.36,0,0,0,.32-.19,1.09,1.09,0,0,0,.17-.5l.3,0a1.36,1.36,0,0,1-.22.72A.67.67,0,0,1,93.31,134.58Z"/><path class="cls-2" d="M96.42,135.12h3.25v.35H96.84v2.25h2.37v.36H96.84v2.61h2.92v.36H96.42Z"/><path class="cls-2" d="M102.6,141.15a2.66,2.66,0,0,1-1.15-.24,2.75,2.75,0,0,1-.85-.65l.27-.29a2.3,2.3,0,0,0,1.73.81,1.62,1.62,0,0,0,1.08-.33,1.06,1.06,0,0,0,.4-.86,1.24,1.24,0,0,0-.08-.47,1.36,1.36,0,0,0-.23-.34,1.72,1.72,0,0,0-.34-.24l-.41-.19-.9-.41a3.81,3.81,0,0,1-.41-.2,1.52,1.52,0,0,1-.39-.29A1.77,1.77,0,0,1,101,137a1.28,1.28,0,0,1-.12-.58,1.37,1.37,0,0,1,.13-.58,1.47,1.47,0,0,1,.36-.46,1.72,1.72,0,0,1,.55-.3,2,2,0,0,1,.69-.11,2.12,2.12,0,0,1,1,.21,2.45,2.45,0,0,1,.69.5l-.24.27a2,2,0,0,0-.61-.44,1.85,1.85,0,0,0-.8-.17,1.48,1.48,0,0,0-1,.29,1,1,0,0,0-.36.78.87.87,0,0,0,.1.44,1.07,1.07,0,0,0,.25.31,1.46,1.46,0,0,0,.33.22,3.59,3.59,0,0,0,.34.17l.9.4a3.58,3.58,0,0,1,.48.24,2,2,0,0,1,.4.31,1.57,1.57,0,0,1,.27.43,1.71,1.71,0,0,1,0,1.23,1.55,1.55,0,0,1-.38.5,1.93,1.93,0,0,1-.6.33A2.47,2.47,0,0,1,102.6,141.15Z"/><path class="cls-2" d="M107.55,135.12H108l2.5,4.18.67,1.18h0l0-.86c0-.29,0-.58,0-.87v-3.63h.39v5.93h-.43l-2.5-4.19-.67-1.18h0q0,.44,0,.84c0,.28,0,.56,0,.85v3.68h-.39Z"/><path class="cls-2" d="M115.33,141.15a2.17,2.17,0,0,1-1-.22,2.1,2.1,0,0,1-.77-.62,2.94,2.94,0,0,1-.51-1,4.57,4.57,0,0,1,0-2.54,2.94,2.94,0,0,1,.51-1,2.07,2.07,0,0,1,.77-.61,2.42,2.42,0,0,1,2,0,2.07,2.07,0,0,1,.77.61,2.94,2.94,0,0,1,.51,1,4.57,4.57,0,0,1,0,2.54,2.94,2.94,0,0,1-.51,1,2.1,2.1,0,0,1-.77.62A2.18,2.18,0,0,1,115.33,141.15Zm0-.37a1.77,1.77,0,0,0,1.45-.75,2.4,2.4,0,0,0,.41-.85,3.89,3.89,0,0,0,.15-1.12,3.82,3.82,0,0,0-.15-1.11,2.35,2.35,0,0,0-.41-.84,1.82,1.82,0,0,0-.63-.54,1.86,1.86,0,0,0-1.64,0,2,2,0,0,0-.64.54,2.52,2.52,0,0,0-.4.84,3.82,3.82,0,0,0-.15,1.11,3.89,3.89,0,0,0,.15,1.12,2.58,2.58,0,0,0,.4.85,1.86,1.86,0,0,0,.64.55A1.74,1.74,0,0,0,115.33,140.78Z"/><path class="cls-2" d="M120.94,135.12h.41v5.57h2.74v.36h-3.15Z"/><path class="cls-2" d="M127.88,139h-2.35l-.7,2h-.42l2.09-5.93h.41l2.09,5.93h-.43Zm-.12-.35-.38-1.11-.34-1c-.11-.33-.21-.67-.32-1h0c-.1.37-.21.71-.32,1s-.22.66-.34,1l-.38,1.11Z"/><path class="cls-2" d="M133.23,141.05l-1.61-2.73h-1.26v2.73H130v-5.93h1.7a3.34,3.34,0,0,1,.8.08,1.8,1.8,0,0,1,.61.27,1.25,1.25,0,0,1,.39.49,1.74,1.74,0,0,1,.14.72,1.47,1.47,0,0,1-.41,1.12,1.84,1.84,0,0,1-1.11.49l1.64,2.76ZM131.54,138a2,2,0,0,0,1.21-.32,1.16,1.16,0,0,0,.42-1,1,1,0,0,0-.42-.94,2.28,2.28,0,0,0-1.21-.27h-1.18V138Z"/><circle class="cls-3" cx="97.54" cy="78.38" r="12.82"/><rect class="cls-4" x="95.32" y="95.38" width="4.07" height="12.21" rx="2.03" ry="2.03"/><rect class="cls-4" x="95.51" y="49.17" width="4.07" height="12.21" rx="2.03" ry="2.03"/><rect class="cls-4" x="118.43" y="72.27" width="4.07" height="12.21" rx="2.03" ry="2.03" transform="translate(42.09 198.84) rotate(-90)"/><rect class="cls-4" x="72.21" y="72.09" width="4.07" height="12.21" rx="2.03" ry="2.03" transform="translate(-3.95 152.44) rotate(-90)"/><rect class="cls-4" x="110.72" y="58.01" width="4.07" height="8.14" rx="2.03" ry="2.03" transform="translate(76.92 -61.55) rotate(45)"/><rect class="cls-4" x="80.29" y="58.01" width="4.07" height="8.14" rx="2.03" ry="2.03" transform="translate(-19.79 76.4) rotate(-45)"/><rect class="cls-4" x="110.72" y="90.6" width="4.07" height="8.14" rx="2.03" ry="2.03" transform="translate(-33.92 107.46) rotate(-45)"/><rect class="cls-4" x="80.29" y="90.6" width="4.07" height="8.14" rx="2.03" ry="2.03" transform="translate(91.06 -30.48) rotate(45)"/></svg>