<svg xmlns="http://www.w3.org/2000/svg" width="41.234" height="55" viewBox="0 0 41.234 55"><defs><style>.a{fill:#16679a;}.b{fill:#0899ba;font-size:33px;font-family:Nunito-Bold, Nunito;font-weight:700;}</style></defs><g transform="translate(-650 -219)"><g transform="translate(206 0.493)"><path class="a" d="M35.262,3.733H26.426a6.261,6.261,0,0,0-11.456,0H6.135A6.077,6.077,0,0,0,.082,9.793v39.17A6.057,6.057,0,0,0,6.135,55H35.262a6.058,6.058,0,0,0,6.053-6.037V9.793A6.077,6.077,0,0,0,35.262,3.733Zm-19.3,2.749a1.364,1.364,0,0,0,1.342-1.068,3.5,3.5,0,0,1,6.783,0,1.368,1.368,0,0,0,1.343,1.072h2.688V7.711a3.277,3.277,0,0,1-3.247,3.307H16.528a3.277,3.277,0,0,1-3.251-3.3V6.482Zm22.6,42.481a3.306,3.306,0,0,1-3.3,3.288H6.135a3.305,3.305,0,0,1-3.3-3.288V9.793a3.325,3.325,0,0,1,3.3-3.311h4.393V7.71a6.028,6.028,0,0,0,6,6.057h8.341a6.029,6.029,0,0,0,6-6.057V6.482h4.392a3.325,3.325,0,0,1,3.3,3.311Zm0,0" transform="translate(443.918 218.507)"/><text class="b" transform="translate(464 259)"><tspan x="-9.9" y="0">+</tspan></text></g></g></svg>