<svg xmlns="http://www.w3.org/2000/svg" width="13.524" height="13.521" viewBox="0 0 13.524 13.521"><defs><style>.a{fill:#af5252;}</style></defs><path class="a" d="M8.2,4.616,6.729,6.089a.212.212,0,0,0,0,.3l.3.3a.212.212,0,0,0,.3,0L8.8,5.213l1.2,1.2L8.519,7.883a.212.212,0,0,0,0,.3l.3.3a.212.212,0,0,0,.3,0L10.59,7l.7.7a2.11,2.11,0,0,1,.607,1.727l-.188,1.68,1.754,1.754a.212.212,0,0,1,0,.3l-.3.3a.212.212,0,0,1-.3,0l-1.751-1.751-1.68.188a2.1,2.1,0,0,1-1.727-.607l-4.8-4.8L6.486,2.9,8.2,4.616ZM.06,2.151,2.151.06a.212.212,0,0,1,.3,0l.3.3a.212.212,0,0,1,0,.3L2,1.4,3.2,2.6,4.692,1.106,5.141.657a.212.212,0,0,1,.3,0l.9.9a.212.212,0,0,1,0,.3L5.886,2.3,2.3,5.889l-.449.449a.212.212,0,0,1-.3,0l-.9-.9a.212.212,0,0,1,0-.3L2.6,3.2,1.4,2l-.747.747a.212.212,0,0,1-.3,0l-.3-.3a.215.215,0,0,1,0-.3Z" transform="translate(0.002 0.002)"/></svg>